<?xml version="1.0" encoding="utf-8"?>
<!-- Generator: Adobe Illustrator 27.0.0, SVG Export Plug-In . SVG Version: 6.00 Build 0)  -->
<svg version="1.1" id="Layer_1" xmlns="http://www.w3.org/2000/svg" xmlns:xlink="http://www.w3.org/1999/xlink" x="0px" y="0px"
	 viewBox="0 0 591.6 416.1" style="enable-background:new 0 0 591.6 416.1;" xml:space="preserve">
<style type="text/css">
	.st0{fill:#EB1C24;}
	.st1{fill:#0000FF;}
	.st2{font-family:'MisterPixel16pt-Regular';}
	.st3{font-size:20px;}
</style>
<rect x="454" y="176" class="st0" width="3" height="3"/>
<rect x="454" y="173" class="st0" width="3" height="3"/>
<rect x="454" y="170" class="st0" width="3" height="3"/>
<rect x="452.5" y="188.1" class="st0" width="3" height="3"/>
<rect x="449.5" y="188.1" class="st0" width="3" height="3"/>
<rect x="448" y="176" class="st0" width="3" height="3"/>
<rect x="448" y="173" class="st0" width="3" height="3"/>
<rect x="448" y="170" class="st0" width="3" height="3"/>
<rect x="446.5" y="188.1" class="st0" width="3" height="3"/>
<rect x="446.5" y="185.1" class="st0" width="3" height="3"/>
<rect x="443.5" y="185.1" class="st0" width="3" height="3"/>
<rect x="440.5" y="185.1" class="st0" width="3" height="3"/>
<rect x="440.5" y="182.1" class="st0" width="3" height="3"/>
<rect x="437.4" y="179.1" class="st0" width="3" height="3"/>
<rect x="451" y="188.1" class="st0" width="3" height="3"/>
<rect x="454" y="188.1" class="st0" width="3" height="3"/>
<rect x="457" y="188.1" class="st0" width="3" height="3"/>
<rect x="457" y="185.1" class="st0" width="3" height="3"/>
<rect x="460" y="185.1" class="st0" width="3" height="3"/>
<rect x="463" y="185.1" class="st0" width="3" height="3"/>
<rect x="463" y="182.1" class="st0" width="3" height="3"/>
<rect x="466.1" y="179.1" class="st0" width="3" height="3"/>
<g>
	<path class="st1" d="M551.9,145.9h-3v3h-3v3h-3h-3h-3v-3h-3h-3h-3v3h-3h-3h-3v3h-3h-3h-3v3h-3h-3v3h-3h-3h-3h-3h-3v-3h-3v-3v-3v-3
		v-3v-3h3v-3h3h3v-3v-3h-3v3h-3h-3v3h-3v3v3h-3v-3h-3h-3v3h-3v3h3v3h3h3v-3h3v3v3v3v3h3v3h-3v3h-3h-3v3h-3v3h-3v3v3v3v3v3v3h3v3v3v3
		h3h3v3h-3v3h-3v3v3h-3v3h-3h-3v3v3h3v-3h3v3h-3v3h-3v3h-3v-3h3v-3h-3v-3v-3h-3v-3v-3h-3v3v3h-3v3h-3v3v3h-3v-3v-3h-3v3h-3v3h-3v-3
		h-3v3h-3v3h-3h-3v-3h3h3v-3h3v-3h-3h-3v3h-3v-3h-3v3h-3v3h3v3h-3v-3h-3v3v3v3v3v3h3v3v3v3h3v3h3v3h3h3v3h3h3h3h3v3h3h3h3h3h3h3h3h3
		h3h3h3h3h3v-3h3h3h3v-3h-3v-3h3v3h3h3v-3h3h3v-3h3v-3v-3v-3v-3v-3h3v-3h3v3h-3v3v3v3v3v3h3v-3v-3v-3v-3h3v-3v-3v-3h3h3h3v-3h3h3h3
		v-3h-3h-3h-3h-3v3h-3h-3h-3v3h-3h-3v3h-3h-3v3h-3h-3h-3h-3h-3v-3h-3h-3v-3v-3h-3v-3v-3v-3v-3v-3h3v-3h3v-3h3v3h3h3h3h3h3v-3h-3h-3
		h-3h-3v-3h-3h-3v-3h-3v-3h-3v-3v-3h-3v-3v-3v-3v-3h3v-3h3v-3h3h3v-3h3h3v-3h3h3h3h3h3v-3h3h3v-3h3h3h3v-3h3h3h3v-3h3v3h3h3h3v3h3h3
		v-3v-3h3v-3h3v-3v-3h-3V145.9z M458.5,221.2h-3v-3h3V221.2z M473.6,230.2v-3h3v3H473.6z M479.6,236.3h3v3h-3h-3v-3H479.6z"/>
	<polygon class="st1" points="554.9,127.9 554.9,130.9 554.9,133.9 554.9,136.9 554.9,139.9 554.9,142.9 557.9,142.9 557.9,139.9 
		557.9,136.9 557.9,133.9 557.9,130.9 557.9,127.9 	"/>
	<polygon class="st1" points="545.8,182.1 545.8,185.1 548.8,185.1 548.8,182.1 548.8,179.1 545.8,179.1 	"/>
	<polygon class="st1" points="548.8,173 548.8,176 548.8,179.1 551.9,179.1 551.9,176 551.9,173 551.9,170 548.8,170 	"/>
	<polygon class="st1" points="551.9,170 554.9,170 554.9,167 554.9,164 551.9,164 551.9,167 	"/>
	<polygon class="st1" points="548.8,164 551.9,164 551.9,161 551.9,158 548.8,158 548.8,161 	"/>
	<polygon class="st1" points="548.8,121.9 548.8,124.9 551.9,124.9 551.9,127.9 554.9,127.9 554.9,124.9 554.9,121.9 551.9,121.9 
		551.9,118.8 548.8,118.8 545.8,118.8 545.8,121.9 	"/>
	<polygon class="st1" points="542.8,188.1 539.8,188.1 539.8,191.1 536.8,191.1 533.8,191.1 530.8,191.1 527.8,191.1 527.8,194.1 
		524.8,194.1 521.7,194.1 518.7,194.1 515.7,194.1 515.7,197.1 518.7,197.1 521.7,197.1 524.8,197.1 527.8,197.1 530.8,197.1 
		530.8,194.1 533.8,194.1 536.8,194.1 539.8,194.1 542.8,194.1 542.8,191.1 545.8,191.1 545.8,188.1 545.8,185.1 542.8,185.1 	"/>
	<polygon class="st1" points="539.8,209.2 539.8,212.2 536.8,212.2 536.8,215.2 536.8,218.2 533.8,218.2 533.8,221.2 536.8,221.2 
		539.8,221.2 539.8,218.2 539.8,215.2 542.8,215.2 542.8,212.2 542.8,209.2 542.8,206.2 539.8,206.2 	"/>
	<polygon class="st1" points="542.8,200.1 542.8,203.1 542.8,206.2 545.8,206.2 545.8,203.1 545.8,200.1 545.8,197.1 545.8,194.1 
		542.8,194.1 542.8,197.1 	"/>
	<polygon class="st1" points="527.8,103.8 527.8,106.8 527.8,109.8 527.8,112.8 524.8,112.8 524.8,115.8 524.8,118.8 521.7,118.8 
		521.7,115.8 521.7,112.8 521.7,109.8 524.8,109.8 524.8,106.8 524.8,103.8 524.8,100.8 527.8,100.8 527.8,97.8 527.8,94.8 
		527.8,91.7 527.8,88.7 527.8,85.7 527.8,82.7 530.8,82.7 530.8,79.7 530.8,76.7 530.8,73.7 527.8,73.7 527.8,76.7 524.8,76.7 
		524.8,79.7 521.7,79.7 521.7,82.7 518.7,82.7 518.7,79.7 515.7,79.7 512.7,79.7 512.7,82.7 509.7,82.7 506.7,82.7 503.7,82.7 
		500.7,82.7 500.7,85.7 503.7,85.7 503.7,88.7 506.7,88.7 509.7,88.7 509.7,85.7 512.7,85.7 515.7,85.7 518.7,85.7 521.7,85.7 
		524.8,85.7 524.8,88.7 524.8,91.7 524.8,94.8 524.8,97.8 521.7,97.8 521.7,100.8 521.7,103.8 521.7,106.8 518.7,106.8 518.7,109.8 
		515.7,109.8 515.7,112.8 518.7,112.8 518.7,115.8 518.7,118.8 515.7,118.8 515.7,121.9 512.7,121.9 509.7,121.9 509.7,124.9 
		506.7,124.9 503.7,124.9 503.7,127.9 500.7,127.9 497.7,127.9 497.7,130.9 494.7,130.9 494.7,133.9 497.7,133.9 500.7,133.9 
		500.7,130.9 503.7,130.9 506.7,130.9 506.7,127.9 509.7,127.9 512.7,127.9 512.7,124.9 515.7,124.9 518.7,124.9 518.7,121.9 
		521.7,121.9 524.8,121.9 527.8,121.9 527.8,118.8 530.8,118.8 533.8,118.8 536.8,118.8 539.8,118.8 542.8,118.8 545.8,118.8 
		545.8,115.8 542.8,115.8 539.8,115.8 536.8,115.8 533.8,115.8 530.8,115.8 530.8,112.8 530.8,109.8 530.8,106.8 530.8,103.8 
		530.8,100.8 527.8,100.8 	"/>
	<rect x="515.7" y="91.7" class="st1" width="3" height="3"/>
	<polygon class="st1" points="515.7,200.1 515.7,197.1 512.7,197.1 509.7,197.1 509.7,200.1 512.7,200.1 	"/>
	<polygon class="st1" points="506.7,251.3 506.7,254.3 503.7,254.3 503.7,257.3 503.7,260.4 500.7,260.4 500.7,263.4 497.7,263.4 
		497.7,266.4 494.7,266.4 494.7,269.4 497.7,269.4 500.7,269.4 500.7,266.4 503.7,266.4 503.7,263.4 506.7,263.4 506.7,260.4 
		506.7,257.3 509.7,257.3 509.7,254.3 509.7,251.3 509.7,248.3 506.7,248.3 	"/>
	<polygon class="st1" points="506.7,203.1 509.7,203.1 509.7,200.1 506.7,200.1 503.7,200.1 500.7,200.1 500.7,203.1 503.7,203.1 	
		"/>
	<polygon class="st1" points="506.7,37.6 506.7,40.6 509.7,40.6 509.7,37.6 509.7,34.5 506.7,34.5 503.7,34.5 503.7,37.6 	"/>
	<rect x="500.7" y="106.8" class="st1" width="3" height="3"/>
	<rect x="497.7" y="115.8" class="st1" width="3" height="3"/>
	<polygon class="st1" points="497.7,34.5 500.7,34.5 503.7,34.5 503.7,31.5 500.7,31.5 497.7,31.5 494.7,31.5 494.7,34.5 	"/>
	<rect x="491.6" y="100.8" class="st1" width="3" height="3"/>
	<polygon class="st1" points="494.7,82.7 497.7,82.7 497.7,79.7 494.7,79.7 491.6,79.7 491.6,82.7 	"/>
	<rect x="491.6" y="28.5" class="st1" width="3" height="3"/>
	<polygon class="st1" points="488.6,269.4 485.6,269.4 485.6,272.4 482.6,272.4 479.6,272.4 476.6,272.4 473.6,272.4 470.6,272.4 
		467.6,272.4 464.5,272.4 461.5,272.4 458.5,272.4 455.5,272.4 452.5,272.4 449.5,272.4 446.5,272.4 446.5,269.4 443.5,269.4 
		440.5,269.4 437.4,269.4 434.4,269.4 434.4,266.4 431.4,266.4 428.4,266.4 425.4,266.4 425.4,263.4 422.4,263.4 422.4,260.4 
		419.4,260.4 419.4,257.3 416.4,257.3 416.4,254.3 413.4,254.3 413.4,251.3 413.4,248.3 413.4,245.3 413.4,242.3 410.3,242.3 
		410.3,239.3 410.3,236.3 410.3,233.3 410.3,230.2 410.3,227.2 410.3,224.2 410.3,221.2 407.3,221.2 407.3,224.2 407.3,227.2 
		407.3,230.2 407.3,233.3 407.3,236.3 407.3,239.3 407.3,242.3 407.3,245.3 410.3,245.3 410.3,248.3 410.3,251.3 410.3,254.3 
		410.3,257.3 413.4,257.3 413.4,260.4 416.4,260.4 416.4,263.4 419.4,263.4 419.4,266.4 422.4,266.4 422.4,269.4 425.4,269.4 
		428.4,269.4 431.4,269.4 431.4,272.4 434.4,272.4 437.4,272.4 440.5,272.4 443.5,272.4 443.5,275.4 446.5,275.4 449.5,275.4 
		452.5,275.4 455.5,275.4 458.5,275.4 461.5,275.4 464.5,275.4 467.6,275.4 470.6,275.4 473.6,275.4 473.6,278.4 473.6,281.4 
		473.6,284.4 470.6,284.4 470.6,287.4 470.6,290.5 470.6,293.5 467.6,293.5 467.6,296.5 467.6,299.5 467.6,302.5 467.6,305.5 
		464.5,305.5 461.5,305.5 458.5,305.5 455.5,305.5 452.5,305.5 449.5,305.5 446.5,305.5 443.5,305.5 440.5,305.5 437.4,305.5 
		434.4,305.5 431.4,305.5 428.4,305.5 428.4,302.5 425.4,302.5 422.4,302.5 419.4,302.5 416.4,302.5 413.4,302.5 410.3,302.5 
		410.3,299.5 407.3,299.5 404.3,299.5 401.3,299.5 401.3,296.5 401.3,293.5 404.3,293.5 404.3,290.5 401.3,290.5 401.3,287.4 
		404.3,287.4 404.3,284.4 404.3,281.4 404.3,278.4 404.3,275.4 404.3,272.4 407.3,272.4 410.3,272.4 410.3,269.4 407.3,269.4 
		407.3,266.4 404.3,266.4 401.3,266.4 398.3,266.4 398.3,263.4 395.3,263.4 395.3,266.4 395.3,269.4 398.3,269.4 401.3,269.4 
		401.3,272.4 401.3,275.4 398.3,275.4 395.3,275.4 392.3,275.4 389.3,275.4 386.3,275.4 383.3,275.4 380.2,275.4 380.2,278.4 
		377.2,278.4 374.2,278.4 371.2,278.4 371.2,281.4 368.2,281.4 368.2,284.4 368.2,287.4 371.2,287.4 371.2,284.4 374.2,284.4 
		374.2,281.4 377.2,281.4 380.2,281.4 383.3,281.4 383.3,278.4 386.3,278.4 389.3,278.4 392.3,278.4 395.3,278.4 398.3,278.4 
		401.3,278.4 401.3,281.4 401.3,284.4 398.3,284.4 398.3,287.4 395.3,287.4 392.3,287.4 389.3,287.4 386.3,287.4 383.3,287.4 
		380.2,287.4 377.2,287.4 374.2,287.4 371.2,287.4 371.2,290.5 374.2,290.5 374.2,293.5 377.2,293.5 380.2,293.5 380.2,296.5 
		383.3,296.5 383.3,299.5 386.3,299.5 389.3,299.5 392.3,299.5 395.3,299.5 395.3,302.5 398.3,302.5 401.3,302.5 404.3,302.5 
		407.3,302.5 407.3,305.5 410.3,305.5 413.4,305.5 416.4,305.5 419.4,305.5 422.4,305.5 425.4,305.5 425.4,308.5 428.4,308.5 
		431.4,308.5 434.4,308.5 437.4,308.5 440.5,308.5 443.5,308.5 446.5,308.5 449.5,308.5 452.5,308.5 455.5,308.5 458.5,308.5 
		461.5,308.5 464.5,308.5 467.6,308.5 470.6,308.5 470.6,305.5 473.6,305.5 476.6,305.5 479.6,305.5 482.6,305.5 485.6,305.5 
		488.6,305.5 488.6,302.5 491.6,302.5 494.7,302.5 497.7,302.5 497.7,299.5 500.7,299.5 503.7,299.5 503.7,296.5 506.7,296.5 
		506.7,293.5 506.7,290.5 506.7,287.4 506.7,284.4 503.7,284.4 500.7,284.4 500.7,287.4 503.7,287.4 503.7,290.5 503.7,293.5 
		500.7,293.5 500.7,296.5 497.7,296.5 494.7,296.5 494.7,293.5 491.6,293.5 491.6,290.5 488.6,290.5 485.6,290.5 482.6,290.5 
		479.6,290.5 479.6,287.4 476.6,287.4 476.6,284.4 476.6,281.4 479.6,281.4 482.6,281.4 485.6,281.4 488.6,281.4 491.6,281.4 
		491.6,284.4 494.7,284.4 497.7,284.4 500.7,284.4 500.7,281.4 497.7,281.4 494.7,281.4 494.7,278.4 491.6,278.4 488.6,278.4 
		485.6,278.4 482.6,278.4 479.6,278.4 479.6,275.4 482.6,275.4 485.6,275.4 488.6,275.4 488.6,272.4 491.6,272.4 494.7,272.4 
		494.7,269.4 491.6,269.4 	"/>
	<rect x="488.6" y="124.9" class="st1" width="3" height="3"/>
	<polygon class="st1" points="491.6,28.5 491.6,25.5 488.6,25.5 485.6,25.5 485.6,28.5 488.6,28.5 	"/>
	<rect x="485.6" y="103.8" class="st1" width="3" height="3"/>
	<polygon class="st1" points="485.6,85.7 485.6,82.7 488.6,82.7 488.6,79.7 491.6,79.7 491.6,76.7 488.6,76.7 488.6,73.7 
		485.6,73.7 485.6,76.7 485.6,79.7 482.6,79.7 482.6,82.7 479.6,82.7 479.6,85.7 482.6,85.7 	"/>
	<polygon class="st1" points="482.6,19.5 485.6,19.5 485.6,22.5 488.6,22.5 488.6,19.5 491.6,19.5 494.7,19.5 494.7,16.5 
		497.7,16.5 500.7,16.5 500.7,19.5 503.7,19.5 503.7,22.5 506.7,22.5 506.7,25.5 506.7,28.5 506.7,31.5 509.7,31.5 512.7,31.5 
		515.7,31.5 518.7,31.5 518.7,34.5 518.7,37.6 518.7,40.6 515.7,40.6 515.7,43.6 518.7,43.6 521.7,43.6 524.8,43.6 527.8,43.6 
		530.8,43.6 530.8,46.6 533.8,46.6 533.8,49.6 536.8,49.6 536.8,52.6 539.8,52.6 539.8,55.6 539.8,58.6 539.8,61.6 536.8,61.6 
		533.8,61.6 533.8,58.6 530.8,58.6 527.8,58.6 527.8,55.6 524.8,55.6 521.7,55.6 518.7,55.6 518.7,58.6 521.7,58.6 524.8,58.6 
		524.8,61.6 527.8,61.6 530.8,61.6 530.8,64.7 533.8,64.7 533.8,67.7 536.8,67.7 536.8,70.7 536.8,73.7 536.8,76.7 533.8,76.7 
		533.8,79.7 533.8,82.7 533.8,85.7 533.8,88.7 530.8,88.7 530.8,91.7 530.8,94.8 530.8,97.8 530.8,100.8 533.8,100.8 533.8,97.8 
		533.8,94.8 533.8,91.7 536.8,91.7 536.8,88.7 536.8,85.7 536.8,82.7 536.8,79.7 539.8,79.7 539.8,76.7 539.8,73.7 539.8,70.7 
		539.8,67.7 539.8,64.7 542.8,64.7 542.8,61.6 542.8,58.6 542.8,55.6 542.8,52.6 542.8,49.6 539.8,49.6 539.8,46.6 536.8,46.6 
		536.8,43.6 533.8,43.6 533.8,40.6 530.8,40.6 527.8,40.6 524.8,40.6 521.7,40.6 521.7,37.6 521.7,34.5 521.7,31.5 521.7,28.5 
		518.7,28.5 515.7,28.5 512.7,28.5 509.7,28.5 509.7,25.5 509.7,22.5 509.7,19.5 506.7,19.5 506.7,16.5 503.7,16.5 503.7,13.5 
		500.7,13.5 497.7,13.5 494.7,13.5 491.6,13.5 491.6,16.5 488.6,16.5 485.6,16.5 485.6,13.5 482.6,13.5 482.6,16.5 	"/>
	<rect x="479.6" y="109.8" class="st1" width="3" height="3"/>
	<rect x="476.6" y="121.9" class="st1" width="3" height="3"/>
	<rect x="476.6" y="94.8" class="st1" width="3" height="3"/>
	<rect x="470.6" y="203.1" class="st1" width="3" height="3"/>
	<rect x="470.6" y="167" class="st1" width="3" height="3"/>
	<rect x="470.6" y="158" class="st1" width="3" height="3"/>
	<polygon class="st1" points="473.6,7.4 473.6,10.5 476.6,10.5 479.6,10.5 479.6,13.5 482.6,13.5 482.6,10.5 482.6,7.4 479.6,7.4 
		476.6,7.4 476.6,4.4 473.6,4.4 470.6,4.4 467.6,4.4 467.6,7.4 470.6,7.4 	"/>
	<rect x="467.6" y="209.2" class="st1" width="3" height="3"/>
	<polygon class="st1" points="467.6,200.1 464.5,200.1 464.5,203.1 464.5,206.2 467.6,206.2 467.6,203.1 470.6,203.1 470.6,200.1 	
		"/>
	<rect x="467.6" y="194.1" class="st1" width="3" height="3"/>
	<rect x="467.6" y="100.8" class="st1" width="3" height="3"/>
	<polygon class="st1" points="467.6,85.7 470.6,85.7 470.6,88.7 473.6,88.7 476.6,88.7 479.6,88.7 479.6,85.7 476.6,85.7 
		473.6,85.7 473.6,82.7 470.6,82.7 470.6,79.7 467.6,79.7 467.6,82.7 	"/>
	<rect x="464.5" y="161" class="st1" width="3" height="3"/>
	<rect x="464.5" y="136.9" class="st1" width="3" height="3"/>
	<rect x="464.5" y="127.9" class="st1" width="3" height="3"/>
	<polygon class="st1" points="467.6,10.5 467.6,7.4 464.5,7.4 461.5,7.4 461.5,10.5 464.5,10.5 	"/>
	<rect x="461.5" y="209.2" class="st1" width="3" height="3"/>
	<rect x="461.5" y="149" class="st1" width="3" height="3"/>
	<polygon class="st1" points="464.5,79.7 467.6,79.7 467.6,76.7 467.6,73.7 464.5,73.7 464.5,76.7 461.5,76.7 461.5,79.7 
		461.5,82.7 464.5,82.7 	"/>
	<polygon class="st1" points="464.5,37.6 464.5,34.5 467.6,34.5 467.6,31.5 470.6,31.5 473.6,31.5 476.6,31.5 479.6,31.5 
		482.6,31.5 485.6,31.5 485.6,28.5 482.6,28.5 479.6,28.5 476.6,28.5 473.6,28.5 470.6,28.5 467.6,28.5 464.5,28.5 464.5,31.5 
		461.5,31.5 461.5,34.5 458.5,34.5 458.5,37.6 461.5,37.6 	"/>
	<rect x="458.5" y="203.1" class="st1" width="3" height="3"/>
	<rect x="458.5" y="197.1" class="st1" width="3" height="3"/>
	<rect x="458.5" y="112.8" class="st1" width="3" height="3"/>
	<polygon class="st1" points="458.5,94.8 458.5,91.7 461.5,91.7 461.5,88.7 461.5,85.7 461.5,82.7 458.5,82.7 458.5,85.7 
		458.5,88.7 455.5,88.7 455.5,91.7 452.5,91.7 452.5,94.8 455.5,94.8 	"/>
	<rect x="452.5" y="206.2" class="st1" width="3" height="3"/>
	<rect x="452.5" y="136.9" class="st1" width="3" height="3"/>
	<polygon class="st1" points="455.5,16.5 458.5,16.5 458.5,13.5 461.5,13.5 461.5,10.5 458.5,10.5 455.5,10.5 455.5,13.5 
		452.5,13.5 452.5,16.5 452.5,19.5 455.5,19.5 	"/>
	<rect x="449.5" y="212.2" class="st1" width="3" height="3"/>
	<rect x="449.5" y="155" class="st1" width="3" height="3"/>
	<rect x="449.5" y="124.9" class="st1" width="3" height="3"/>
	<rect x="446.5" y="215.2" class="st1" width="3" height="3"/>
	<rect x="446.5" y="106.8" class="st1" width="3" height="3"/>
	<rect x="440.5" y="215.2" class="st1" width="3" height="3"/>
	<rect x="440.5" y="112.8" class="st1" width="3" height="3"/>
	<rect x="437.4" y="218.2" class="st1" width="3" height="3"/>
	<rect x="437.4" y="212.2" class="st1" width="3" height="3"/>
	<polygon class="st1" points="437.4,127.9 437.4,130.9 440.5,130.9 443.5,130.9 443.5,127.9 440.5,127.9 	"/>
	<polygon class="st1" points="440.5,94.8 440.5,97.8 443.5,97.8 446.5,97.8 449.5,97.8 452.5,97.8 452.5,94.8 449.5,94.8 
		446.5,94.8 443.5,94.8 443.5,91.7 440.5,91.7 437.4,91.7 437.4,94.8 	"/>
	<rect x="434.4" y="161" class="st1" width="3" height="3"/>
	<rect x="434.4" y="139.9" class="st1" width="3" height="3"/>
	<rect x="434.4" y="121.9" class="st1" width="3" height="3"/>
	<rect x="434.4" y="88.7" class="st1" width="3" height="3"/>
	<rect x="431.4" y="182.1" class="st1" width="3" height="3"/>
	<rect x="428.4" y="188.1" class="st1" width="3" height="3"/>
	<polygon class="st1" points="431.4,139.9 431.4,136.9 431.4,133.9 431.4,130.9 431.4,127.9 428.4,127.9 428.4,124.9 428.4,121.9 
		428.4,118.8 428.4,115.8 428.4,112.8 425.4,112.8 425.4,109.8 422.4,109.8 422.4,112.8 422.4,115.8 425.4,115.8 425.4,118.8 
		425.4,121.9 425.4,124.9 425.4,127.9 425.4,130.9 428.4,130.9 428.4,133.9 428.4,136.9 428.4,139.9 428.4,142.9 431.4,142.9 	"/>
	<rect x="425.4" y="203.1" class="st1" width="3" height="3"/>
	<rect x="425.4" y="176" class="st1" width="3" height="3"/>
	<rect x="425.4" y="91.7" class="st1" width="3" height="3"/>
	<rect x="422.4" y="194.1" class="st1" width="3" height="3"/>
	<rect x="422.4" y="185.1" class="st1" width="3" height="3"/>
	<rect x="422.4" y="179.1" class="st1" width="3" height="3"/>
	<polygon class="st1" points="416.4,40.6 419.4,40.6 422.4,40.6 422.4,37.6 422.4,34.5 422.4,31.5 425.4,31.5 428.4,31.5 
		428.4,28.5 431.4,28.5 434.4,28.5 434.4,31.5 437.4,31.5 437.4,28.5 440.5,28.5 440.5,25.5 443.5,25.5 446.5,25.5 449.5,25.5 
		452.5,25.5 452.5,22.5 452.5,19.5 449.5,19.5 449.5,22.5 446.5,22.5 443.5,22.5 440.5,22.5 437.4,22.5 437.4,25.5 434.4,25.5 
		431.4,25.5 428.4,25.5 425.4,25.5 425.4,28.5 422.4,28.5 419.4,28.5 419.4,31.5 419.4,34.5 419.4,37.6 416.4,37.6 413.4,37.6 
		410.3,37.6 410.3,40.6 413.4,40.6 	"/>
	<polygon class="st1" points="410.3,194.1 410.3,191.1 413.4,191.1 413.4,188.1 413.4,185.1 416.4,185.1 416.4,188.1 416.4,191.1 
		416.4,194.1 416.4,197.1 416.4,200.1 416.4,203.1 416.4,206.2 419.4,206.2 419.4,203.1 422.4,203.1 422.4,200.1 419.4,200.1 
		419.4,197.1 419.4,194.1 419.4,191.1 419.4,188.1 419.4,185.1 419.4,182.1 419.4,179.1 419.4,176 422.4,176 422.4,173 422.4,170 
		425.4,170 425.4,167 425.4,164 428.4,164 428.4,161 428.4,158 428.4,155 428.4,152 428.4,149 428.4,145.9 428.4,142.9 425.4,142.9 
		425.4,145.9 425.4,149 425.4,152 425.4,155 425.4,158 425.4,161 422.4,161 422.4,164 422.4,167 419.4,167 419.4,170 419.4,173 
		416.4,173 416.4,176 416.4,179.1 413.4,179.1 413.4,182.1 410.3,182.1 410.3,185.1 410.3,188.1 407.3,188.1 407.3,191.1 
		407.3,194.1 407.3,197.1 410.3,197.1 	"/>
	<polygon class="st1" points="407.3,43.6 410.3,43.6 410.3,40.6 407.3,40.6 404.3,40.6 404.3,43.6 404.3,46.6 407.3,46.6 	"/>
	<polygon class="st1" points="404.3,100.8 407.3,100.8 410.3,100.8 410.3,103.8 413.4,103.8 416.4,103.8 416.4,106.8 419.4,106.8 
		419.4,109.8 422.4,109.8 422.4,106.8 422.4,103.8 419.4,103.8 419.4,100.8 416.4,100.8 416.4,97.8 416.4,94.8 416.4,91.7 
		413.4,91.7 413.4,88.7 413.4,85.7 413.4,82.7 413.4,79.7 413.4,76.7 416.4,76.7 416.4,79.7 419.4,79.7 422.4,79.7 425.4,79.7 
		428.4,79.7 431.4,79.7 431.4,82.7 431.4,85.7 431.4,88.7 434.4,88.7 434.4,85.7 434.4,82.7 434.4,79.7 434.4,76.7 431.4,76.7 
		431.4,73.7 428.4,73.7 428.4,76.7 425.4,76.7 422.4,76.7 419.4,76.7 419.4,73.7 416.4,73.7 416.4,70.7 413.4,70.7 413.4,67.7 
		410.3,67.7 410.3,70.7 410.3,73.7 410.3,76.7 410.3,79.7 410.3,82.7 410.3,85.7 410.3,88.7 410.3,91.7 410.3,94.8 413.4,94.8 
		413.4,97.8 410.3,97.8 410.3,94.8 407.3,94.8 407.3,91.7 407.3,88.7 407.3,85.7 407.3,82.7 407.3,79.7 407.3,76.7 407.3,73.7 
		404.3,73.7 404.3,70.7 404.3,67.7 404.3,64.7 404.3,61.6 407.3,61.6 410.3,61.6 410.3,58.6 413.4,58.6 413.4,55.6 416.4,55.6 
		419.4,55.6 419.4,52.6 422.4,52.6 425.4,52.6 428.4,52.6 428.4,49.6 431.4,49.6 434.4,49.6 437.4,49.6 440.5,49.6 443.5,49.6 
		443.5,46.6 446.5,46.6 449.5,46.6 452.5,46.6 455.5,46.6 458.5,46.6 461.5,46.6 464.5,46.6 467.6,46.6 470.6,46.6 473.6,46.6 
		476.6,46.6 476.6,49.6 479.6,49.6 482.6,49.6 485.6,49.6 488.6,49.6 491.6,49.6 491.6,52.6 494.7,52.6 497.7,52.6 500.7,52.6 
		503.7,52.6 503.7,55.6 506.7,55.6 509.7,55.6 512.7,55.6 515.7,55.6 518.7,55.6 518.7,52.6 515.7,52.6 512.7,52.6 509.7,52.6 
		506.7,52.6 506.7,49.6 503.7,49.6 500.7,49.6 497.7,49.6 494.7,49.6 494.7,46.6 491.6,46.6 488.6,46.6 485.6,46.6 482.6,46.6 
		479.6,46.6 479.6,43.6 476.6,43.6 473.6,43.6 470.6,43.6 467.6,43.6 464.5,43.6 461.5,43.6 458.5,43.6 455.5,43.6 452.5,43.6 
		449.5,43.6 446.5,43.6 443.5,43.6 440.5,43.6 440.5,46.6 437.4,46.6 434.4,46.6 431.4,46.6 428.4,46.6 425.4,46.6 425.4,49.6 
		422.4,49.6 419.4,49.6 416.4,49.6 416.4,52.6 413.4,52.6 410.3,52.6 410.3,55.6 407.3,55.6 404.3,55.6 404.3,52.6 404.3,49.6 
		404.3,46.6 401.3,46.6 401.3,49.6 401.3,52.6 401.3,55.6 401.3,58.6 401.3,61.6 401.3,64.7 401.3,67.7 401.3,70.7 401.3,73.7 
		401.3,76.7 404.3,76.7 404.3,79.7 404.3,82.7 404.3,85.7 404.3,88.7 404.3,91.7 404.3,94.8 404.3,97.8 401.3,97.8 398.3,97.8 
		398.3,100.8 401.3,100.8 	"/>
	<polygon class="st1" points="395.3,257.3 392.3,257.3 392.3,254.3 389.3,254.3 389.3,251.3 386.3,251.3 386.3,254.3 386.3,257.3 
		389.3,257.3 389.3,260.4 392.3,260.4 392.3,263.4 395.3,263.4 395.3,260.4 	"/>
	<polygon class="st1" points="386.3,245.3 383.3,245.3 383.3,242.3 383.3,239.3 380.2,239.3 380.2,236.3 380.2,233.3 380.2,230.2 
		380.2,227.2 377.2,227.2 377.2,224.2 377.2,221.2 377.2,218.2 374.2,218.2 374.2,215.2 374.2,212.2 371.2,212.2 371.2,215.2 
		371.2,218.2 371.2,221.2 374.2,221.2 374.2,224.2 374.2,227.2 374.2,230.2 377.2,230.2 377.2,233.3 377.2,236.3 377.2,239.3 
		377.2,242.3 380.2,242.3 380.2,245.3 380.2,248.3 383.3,248.3 383.3,251.3 386.3,251.3 386.3,248.3 	"/>
	<polygon class="st1" points="383.3,158 383.3,155 383.3,152 383.3,149 386.3,149 386.3,145.9 386.3,142.9 386.3,139.9 389.3,139.9 
		389.3,136.9 389.3,133.9 389.3,130.9 389.3,127.9 389.3,124.9 389.3,121.9 389.3,118.8 389.3,115.8 389.3,112.8 392.3,112.8 
		392.3,109.8 392.3,106.8 395.3,106.8 395.3,103.8 398.3,103.8 398.3,100.8 395.3,100.8 392.3,100.8 392.3,103.8 389.3,103.8 
		389.3,106.8 389.3,109.8 386.3,109.8 386.3,112.8 386.3,115.8 386.3,118.8 386.3,121.9 386.3,124.9 386.3,127.9 386.3,130.9 
		386.3,133.9 386.3,136.9 383.3,136.9 383.3,139.9 383.3,142.9 383.3,145.9 380.2,145.9 380.2,149 380.2,152 380.2,155 380.2,158 
		380.2,161 383.3,161 	"/>
	<polygon class="st1" points="380.2,212.2 380.2,215.2 383.3,215.2 386.3,215.2 389.3,215.2 392.3,215.2 392.3,218.2 395.3,218.2 
		398.3,218.2 401.3,218.2 404.3,218.2 407.3,218.2 410.3,218.2 413.4,218.2 416.4,218.2 419.4,218.2 419.4,215.2 422.4,215.2 
		425.4,215.2 428.4,215.2 431.4,215.2 434.4,215.2 434.4,212.2 437.4,212.2 437.4,209.2 440.5,209.2 443.5,209.2 443.5,212.2 
		446.5,212.2 449.5,212.2 449.5,209.2 449.5,206.2 449.5,203.1 449.5,200.1 449.5,197.1 446.5,197.1 443.5,197.1 440.5,197.1 
		437.4,197.1 434.4,197.1 431.4,197.1 431.4,200.1 434.4,200.1 434.4,203.1 437.4,203.1 437.4,206.2 434.4,206.2 431.4,206.2 
		431.4,209.2 428.4,209.2 425.4,209.2 422.4,209.2 419.4,209.2 416.4,209.2 413.4,209.2 410.3,209.2 410.3,212.2 407.3,212.2 
		407.3,209.2 407.3,206.2 407.3,203.1 407.3,200.1 407.3,197.1 404.3,197.1 404.3,200.1 404.3,203.1 404.3,206.2 404.3,209.2 
		401.3,209.2 398.3,209.2 395.3,209.2 392.3,209.2 392.3,206.2 389.3,206.2 386.3,206.2 383.3,206.2 383.3,203.1 380.2,203.1 
		380.2,200.1 377.2,200.1 374.2,200.1 374.2,197.1 374.2,194.1 374.2,191.1 374.2,188.1 374.2,185.1 377.2,185.1 377.2,182.1 
		377.2,179.1 377.2,176 380.2,176 380.2,173 380.2,170 380.2,167 380.2,164 380.2,161 377.2,161 377.2,164 377.2,167 377.2,170 
		377.2,173 374.2,173 374.2,176 374.2,179.1 374.2,182.1 371.2,182.1 371.2,185.1 371.2,188.1 371.2,191.1 368.2,191.1 368.2,188.1 
		365.2,188.1 365.2,185.1 365.2,182.1 362.2,182.1 362.2,179.1 362.2,176 359.2,176 359.2,173 359.2,170 359.2,167 359.2,164 
		356.2,164 356.2,161 356.2,158 356.2,155 353.1,155 353.1,152 353.1,149 353.1,145.9 353.1,142.9 353.1,139.9 350.1,139.9 
		350.1,142.9 347.1,142.9 344.1,142.9 341.1,142.9 341.1,145.9 338.1,145.9 338.1,149 338.1,152 338.1,155 341.1,155 341.1,158 
		341.1,161 344.1,161 344.1,164 344.1,167 344.1,170 347.1,170 347.1,173 347.1,176 347.1,179.1 350.1,179.1 350.1,182.1 
		350.1,185.1 353.1,185.1 353.1,188.1 353.1,191.1 356.2,191.1 356.2,194.1 359.2,194.1 359.2,197.1 359.2,200.1 362.2,200.1 
		362.2,203.1 365.2,203.1 365.2,206.2 368.2,206.2 371.2,206.2 371.2,209.2 374.2,209.2 374.2,212.2 377.2,212.2 	"/>
	<polygon class="st1" points="308,67.7 305,67.7 302,67.7 298.9,67.7 295.9,67.7 292.9,67.7 289.9,67.7 286.9,67.7 283.9,67.7 
		280.9,67.7 277.9,67.7 274.9,67.7 271.9,67.7 268.8,67.7 265.8,67.7 262.8,67.7 259.8,67.7 256.8,67.7 253.8,67.7 250.8,67.7 
		247.8,67.7 244.8,67.7 241.7,67.7 238.7,67.7 235.7,67.7 232.7,67.7 229.7,67.7 226.7,67.7 223.7,67.7 220.7,67.7 217.7,67.7 
		214.6,67.7 211.6,67.7 208.6,67.7 205.6,67.7 202.6,67.7 199.6,67.7 199.6,70.7 202.6,70.7 205.6,70.7 208.6,70.7 211.6,70.7 
		214.6,70.7 217.7,70.7 220.7,70.7 223.7,70.7 226.7,70.7 229.7,70.7 232.7,70.7 235.7,70.7 238.7,70.7 241.7,70.7 244.8,70.7 
		247.8,70.7 250.8,70.7 253.8,70.7 256.8,70.7 259.8,70.7 262.8,70.7 265.8,70.7 268.8,70.7 271.9,70.7 274.9,70.7 277.9,70.7 
		280.9,70.7 283.9,70.7 286.9,70.7 289.9,70.7 292.9,70.7 295.9,70.7 298.9,70.7 302,70.7 305,70.7 308,70.7 311,70.7 314,70.7 
		314,67.7 311,67.7 	"/>
	<polygon class="st1" points="308,61.6 305,61.6 302,61.6 298.9,61.6 295.9,61.6 292.9,61.6 289.9,61.6 286.9,61.6 283.9,61.6 
		280.9,61.6 277.9,61.6 274.9,61.6 271.9,61.6 268.8,61.6 265.8,61.6 262.8,61.6 259.8,61.6 256.8,61.6 253.8,61.6 250.8,61.6 
		247.8,61.6 244.8,61.6 241.7,61.6 238.7,61.6 235.7,61.6 232.7,61.6 229.7,61.6 226.7,61.6 223.7,61.6 220.7,61.6 217.7,61.6 
		214.6,61.6 211.6,61.6 208.6,61.6 205.6,61.6 202.6,61.6 199.6,61.6 199.6,64.7 202.6,64.7 205.6,64.7 208.6,64.7 211.6,64.7 
		214.6,64.7 217.7,64.7 220.7,64.7 223.7,64.7 226.7,64.7 229.7,64.7 232.7,64.7 235.7,64.7 238.7,64.7 241.7,64.7 244.8,64.7 
		247.8,64.7 250.8,64.7 253.8,64.7 256.8,64.7 259.8,64.7 262.8,64.7 265.8,64.7 268.8,64.7 271.9,64.7 274.9,64.7 277.9,64.7 
		280.9,64.7 283.9,64.7 286.9,64.7 289.9,64.7 292.9,64.7 295.9,64.7 298.9,64.7 302,64.7 305,64.7 308,64.7 311,64.7 314,64.7 
		314,61.6 311,61.6 	"/>
	<rect x="256.8" y="206.2" class="st1" width="3" height="3"/>
	<rect x="256.8" y="130.9" class="st1" width="3" height="3"/>
	<rect x="256.8" y="121.9" class="st1" width="3" height="3"/>
	<polygon class="st1" points="256.8,215.2 256.8,218.2 259.8,218.2 259.8,215.2 259.8,212.2 256.8,212.2 253.8,212.2 253.8,215.2 	
		"/>
	<polygon class="st1" points="253.8,203.1 250.8,203.1 250.8,206.2 253.8,206.2 256.8,206.2 256.8,203.1 	"/>
	<rect x="253.8" y="127.9" class="st1" width="3" height="3"/>
	<polygon class="st1" points="253.8,118.8 250.8,118.8 250.8,121.9 253.8,121.9 256.8,121.9 256.8,118.8 	"/>
	<polygon class="st1" points="250.8,218.2 250.8,221.2 253.8,221.2 256.8,221.2 256.8,218.2 253.8,218.2 	"/>
	<rect x="250.8" y="209.2" class="st1" width="3" height="3"/>
	<polygon class="st1" points="250.8,133.9 250.8,136.9 253.8,136.9 256.8,136.9 256.8,133.9 253.8,133.9 	"/>
	<rect x="250.8" y="124.9" class="st1" width="3" height="3"/>
	<rect x="247.8" y="269.4" class="st1" width="3" height="3"/>
	<rect x="247.8" y="260.4" class="st1" width="3" height="3"/>
	<rect x="247.8" y="215.2" class="st1" width="3" height="3"/>
	<rect x="247.8" y="206.2" class="st1" width="3" height="3"/>
	<polygon class="st1" points="247.8,191.1 250.8,191.1 250.8,188.1 250.8,185.1 247.8,185.1 247.8,188.1 	"/>
	<polygon class="st1" points="247.8,182.1 250.8,182.1 250.8,179.1 250.8,176 247.8,176 247.8,179.1 	"/>
	<rect x="247.8" y="130.9" class="st1" width="3" height="3"/>
	<rect x="247.8" y="121.9" class="st1" width="3" height="3"/>
	<rect x="244.8" y="266.4" class="st1" width="3" height="3"/>
	<polygon class="st1" points="244.8,257.3 241.7,257.3 241.7,260.4 244.8,260.4 247.8,260.4 247.8,257.3 	"/>
	<polygon class="st1" points="247.8,176 247.8,173 244.8,173 241.7,173 241.7,176 244.8,176 	"/>
	<polygon class="st1" points="241.7,272.4 241.7,275.4 244.8,275.4 247.8,275.4 247.8,272.4 244.8,272.4 	"/>
	<rect x="241.7" y="263.4" class="st1" width="3" height="3"/>
	<polygon class="st1" points="241.7,218.2 241.7,215.2 241.7,212.2 241.7,209.2 241.7,206.2 241.7,203.1 238.7,203.1 238.7,206.2 
		238.7,209.2 238.7,212.2 238.7,215.2 238.7,218.2 238.7,221.2 241.7,221.2 244.8,221.2 247.8,221.2 247.8,218.2 244.8,218.2 	"/>
	<polygon class="st1" points="241.7,191.1 241.7,194.1 244.8,194.1 247.8,194.1 247.8,191.1 244.8,191.1 	"/>
	<polygon class="st1" points="241.7,182.1 241.7,185.1 244.8,185.1 247.8,185.1 247.8,182.1 244.8,182.1 	"/>
	<polygon class="st1" points="244.8,103.8 244.8,100.8 241.7,100.8 238.7,100.8 238.7,103.8 241.7,103.8 241.7,106.8 244.8,106.8 	
		"/>
	<rect x="241.7" y="94.8" class="st1" width="3" height="3"/>
	<rect x="238.7" y="269.4" class="st1" width="3" height="3"/>
	<rect x="238.7" y="260.4" class="st1" width="3" height="3"/>
	<rect x="238.7" y="188.1" class="st1" width="3" height="3"/>
	<polygon class="st1" points="238.7,182.1 241.7,182.1 241.7,179.1 241.7,176 238.7,176 238.7,179.1 	"/>
	<polygon class="st1" points="241.7,94.8 241.7,91.7 238.7,91.7 235.7,91.7 235.7,94.8 238.7,94.8 	"/>
	<polygon class="st1" points="238.7,173 235.7,173 232.7,173 229.7,173 226.7,173 223.7,173 223.7,176 226.7,176 229.7,176 
		229.7,179.1 229.7,182.1 229.7,185.1 229.7,188.1 229.7,191.1 229.7,194.1 232.7,194.1 232.7,191.1 232.7,188.1 232.7,185.1 
		232.7,182.1 232.7,179.1 232.7,176 235.7,176 238.7,176 	"/>
	<polygon class="st1" points="238.7,109.8 241.7,109.8 241.7,106.8 238.7,106.8 235.7,106.8 235.7,109.8 	"/>
	<rect x="235.7" y="97.8" class="st1" width="3" height="3"/>
	<polygon class="st1" points="232.7,209.2 232.7,212.2 229.7,212.2 226.7,212.2 226.7,209.2 226.7,206.2 223.7,206.2 223.7,209.2 
		223.7,212.2 223.7,215.2 223.7,218.2 223.7,221.2 226.7,221.2 226.7,218.2 226.7,215.2 229.7,215.2 232.7,215.2 232.7,218.2 
		232.7,221.2 235.7,221.2 235.7,218.2 235.7,215.2 235.7,212.2 235.7,209.2 235.7,206.2 232.7,206.2 	"/>
	<polygon class="st1" points="232.7,121.9 232.7,124.9 232.7,127.9 232.7,130.9 232.7,133.9 232.7,136.9 235.7,136.9 238.7,136.9 
		241.7,136.9 244.8,136.9 244.8,133.9 241.7,133.9 238.7,133.9 235.7,133.9 235.7,130.9 235.7,127.9 238.7,127.9 241.7,127.9 
		241.7,124.9 238.7,124.9 235.7,124.9 235.7,121.9 238.7,121.9 241.7,121.9 244.8,121.9 244.8,118.8 241.7,118.8 238.7,118.8 
		235.7,118.8 232.7,118.8 	"/>
	<rect x="232.7" y="103.8" class="st1" width="3" height="3"/>
	<rect x="232.7" y="94.8" class="st1" width="3" height="3"/>
	<polygon class="st1" points="229.7,257.3 226.7,257.3 223.7,257.3 223.7,260.4 223.7,263.4 223.7,266.4 223.7,269.4 223.7,272.4 
		223.7,275.4 226.7,275.4 229.7,275.4 232.7,275.4 235.7,275.4 235.7,272.4 232.7,272.4 229.7,272.4 226.7,272.4 226.7,269.4 
		226.7,266.4 229.7,266.4 232.7,266.4 232.7,263.4 229.7,263.4 226.7,263.4 226.7,260.4 229.7,260.4 232.7,260.4 235.7,260.4 
		235.7,257.3 232.7,257.3 	"/>
	<polygon class="st1" points="232.7,206.2 232.7,203.1 229.7,203.1 226.7,203.1 226.7,206.2 229.7,206.2 	"/>
	<polygon class="st1" points="226.7,121.9 226.7,124.9 226.7,127.9 226.7,130.9 226.7,133.9 226.7,136.9 229.7,136.9 229.7,133.9 
		229.7,130.9 229.7,127.9 229.7,124.9 229.7,121.9 229.7,118.8 226.7,118.8 	"/>
	<polygon class="st1" points="229.7,91.7 226.7,91.7 223.7,91.7 220.7,91.7 217.7,91.7 217.7,94.8 217.7,97.8 217.7,100.8 
		217.7,103.8 217.7,106.8 217.7,109.8 220.7,109.8 223.7,109.8 226.7,109.8 226.7,106.8 223.7,106.8 220.7,106.8 220.7,103.8 
		220.7,100.8 223.7,100.8 226.7,100.8 226.7,97.8 223.7,97.8 220.7,97.8 220.7,94.8 223.7,94.8 226.7,94.8 229.7,94.8 	"/>
	<polygon class="st1" points="220.7,293.5 217.7,293.5 214.6,293.5 211.6,293.5 208.6,293.5 205.6,293.5 202.6,293.5 199.6,293.5 
		196.6,293.5 193.6,293.5 190.6,293.5 187.6,293.5 184.5,293.5 181.5,293.5 178.5,293.5 175.5,293.5 172.5,293.5 169.5,293.5 
		166.5,293.5 163.5,293.5 160.5,293.5 157.4,293.5 154.4,293.5 151.4,293.5 148.4,293.5 145.4,293.5 142.4,293.5 139.4,293.5 
		136.4,293.5 133.4,293.5 130.3,293.5 127.3,293.5 124.3,293.5 121.3,293.5 118.3,293.5 115.3,293.5 115.3,296.5 118.3,296.5 
		121.3,296.5 124.3,296.5 127.3,296.5 130.3,296.5 133.4,296.5 136.4,296.5 139.4,296.5 142.4,296.5 145.4,296.5 148.4,296.5 
		151.4,296.5 154.4,296.5 157.4,296.5 160.5,296.5 163.5,296.5 166.5,296.5 169.5,296.5 172.5,296.5 175.5,296.5 178.5,296.5 
		181.5,296.5 184.5,296.5 187.6,296.5 190.6,296.5 193.6,296.5 196.6,296.5 199.6,296.5 202.6,296.5 205.6,296.5 208.6,296.5 
		211.6,296.5 214.6,296.5 217.7,296.5 220.7,296.5 223.7,296.5 226.7,296.5 226.7,293.5 223.7,293.5 	"/>
	<polygon class="st1" points="220.7,287.4 217.7,287.4 214.6,287.4 211.6,287.4 208.6,287.4 205.6,287.4 202.6,287.4 199.6,287.4 
		196.6,287.4 193.6,287.4 190.6,287.4 187.6,287.4 184.5,287.4 181.5,287.4 178.5,287.4 175.5,287.4 172.5,287.4 169.5,287.4 
		166.5,287.4 163.5,287.4 160.5,287.4 157.4,287.4 154.4,287.4 151.4,287.4 148.4,287.4 145.4,287.4 142.4,287.4 139.4,287.4 
		136.4,287.4 133.4,287.4 130.3,287.4 127.3,287.4 124.3,287.4 121.3,287.4 118.3,287.4 115.3,287.4 115.3,290.5 118.3,290.5 
		121.3,290.5 124.3,290.5 127.3,290.5 130.3,290.5 133.4,290.5 136.4,290.5 139.4,290.5 142.4,290.5 145.4,290.5 148.4,290.5 
		151.4,290.5 154.4,290.5 157.4,290.5 160.5,290.5 163.5,290.5 166.5,290.5 169.5,290.5 172.5,290.5 175.5,290.5 178.5,290.5 
		181.5,290.5 184.5,290.5 187.6,290.5 190.6,290.5 193.6,290.5 196.6,290.5 199.6,290.5 202.6,290.5 205.6,290.5 208.6,290.5 
		211.6,290.5 214.6,290.5 217.7,290.5 220.7,290.5 223.7,290.5 226.7,290.5 226.7,287.4 223.7,287.4 	"/>
	<polygon class="st1" points="220.7,218.2 220.7,215.2 220.7,212.2 220.7,209.2 220.7,206.2 220.7,203.1 217.7,203.1 217.7,206.2 
		214.6,206.2 214.6,209.2 217.7,209.2 217.7,212.2 217.7,215.2 217.7,218.2 217.7,221.2 220.7,221.2 	"/>
	<polygon class="st1" points="220.7,191.1 220.7,188.1 220.7,185.1 220.7,182.1 220.7,179.1 220.7,176 217.7,176 217.7,179.1 
		217.7,182.1 214.6,182.1 211.6,182.1 211.6,179.1 211.6,176 208.6,176 208.6,179.1 208.6,182.1 208.6,185.1 208.6,188.1 
		208.6,191.1 208.6,194.1 211.6,194.1 211.6,191.1 211.6,188.1 211.6,185.1 214.6,185.1 217.7,185.1 217.7,188.1 217.7,191.1 
		217.7,194.1 220.7,194.1 	"/>
	<polygon class="st1" points="217.7,176 217.7,173 214.6,173 211.6,173 211.6,176 214.6,176 	"/>
	<polygon class="st1" points="217.7,127.9 217.7,124.9 217.7,121.9 217.7,118.8 214.6,118.8 214.6,121.9 214.6,124.9 214.6,127.9 
		214.6,130.9 214.6,133.9 214.6,136.9 217.7,136.9 220.7,136.9 223.7,136.9 223.7,133.9 220.7,133.9 217.7,133.9 217.7,130.9 	"/>
	<polygon class="st1" points="214.6,275.4 217.7,275.4 220.7,275.4 220.7,272.4 217.7,272.4 214.6,272.4 211.6,272.4 211.6,269.4 
		211.6,266.4 211.6,263.4 211.6,260.4 211.6,257.3 208.6,257.3 208.6,260.4 208.6,263.4 208.6,266.4 208.6,269.4 208.6,272.4 
		208.6,275.4 211.6,275.4 	"/>
	<polygon class="st1" points="211.6,212.2 211.6,215.2 214.6,215.2 214.6,212.2 214.6,209.2 211.6,209.2 	"/>
	<rect x="208.6" y="242.3" class="st1" width="3" height="3"/>
	<rect x="208.6" y="233.3" class="st1" width="3" height="3"/>
	<polygon class="st1" points="208.6,206.2 208.6,203.1 205.6,203.1 205.6,206.2 205.6,209.2 205.6,212.2 205.6,215.2 205.6,218.2 
		205.6,221.2 208.6,221.2 208.6,218.2 208.6,215.2 208.6,212.2 208.6,209.2 211.6,209.2 211.6,206.2 	"/>
	<polygon class="st1" points="211.6,161 211.6,158 208.6,158 208.6,161 208.6,164 211.6,164 	"/>
	<rect x="208.6" y="149" class="st1" width="3" height="3"/>
	<polygon class="st1" points="208.6,91.7 205.6,91.7 202.6,91.7 199.6,91.7 199.6,94.8 202.6,94.8 205.6,94.8 205.6,97.8 
		205.6,100.8 205.6,103.8 205.6,106.8 205.6,109.8 208.6,109.8 208.6,106.8 208.6,103.8 208.6,100.8 208.6,97.8 208.6,94.8 
		211.6,94.8 214.6,94.8 214.6,91.7 211.6,91.7 	"/>
	<polygon class="st1" points="208.6,248.3 208.6,245.3 205.6,245.3 202.6,245.3 202.6,248.3 205.6,248.3 	"/>
	<polygon class="st1" points="205.6,230.2 202.6,230.2 202.6,233.3 205.6,233.3 208.6,233.3 208.6,230.2 	"/>
	<rect x="205.6" y="155" class="st1" width="3" height="3"/>
	<polygon class="st1" points="208.6,149 208.6,145.9 205.6,145.9 202.6,145.9 202.6,149 205.6,149 	"/>
	<polygon class="st1" points="202.6,260.4 202.6,263.4 202.6,266.4 202.6,269.4 202.6,272.4 202.6,275.4 205.6,275.4 205.6,272.4 
		205.6,269.4 205.6,266.4 205.6,263.4 205.6,260.4 205.6,257.3 202.6,257.3 	"/>
	<rect x="202.6" y="236.3" class="st1" width="3" height="3"/>
	<polygon class="st1" points="202.6,182.1 202.6,185.1 202.6,188.1 202.6,191.1 205.6,191.1 205.6,188.1 205.6,185.1 205.6,182.1 
		205.6,179.1 205.6,176 202.6,176 202.6,179.1 	"/>
	<polygon class="st1" points="205.6,167 208.6,167 208.6,164 205.6,164 202.6,164 202.6,167 	"/>
	<polygon class="st1" points="202.6,152 202.6,149 199.6,149 199.6,152 199.6,155 202.6,155 205.6,155 205.6,152 	"/>
	<polygon class="st1" points="205.6,127.9 205.6,124.9 205.6,121.9 205.6,118.8 202.6,118.8 202.6,121.9 202.6,124.9 202.6,127.9 
		202.6,130.9 202.6,133.9 202.6,136.9 205.6,136.9 208.6,136.9 211.6,136.9 211.6,133.9 208.6,133.9 205.6,133.9 205.6,130.9 	"/>
	<rect x="199.6" y="242.3" class="st1" width="3" height="3"/>
	<rect x="199.6" y="233.3" class="st1" width="3" height="3"/>
	<polygon class="st1" points="202.6,218.2 202.6,215.2 202.6,212.2 202.6,209.2 202.6,206.2 202.6,203.1 199.6,203.1 199.6,206.2 
		199.6,209.2 199.6,212.2 199.6,215.2 199.6,218.2 199.6,221.2 202.6,221.2 	"/>
	<polygon class="st1" points="202.6,194.1 202.6,191.1 199.6,191.1 196.6,191.1 196.6,194.1 199.6,194.1 	"/>
	<polygon class="st1" points="202.6,176 202.6,173 199.6,173 196.6,173 196.6,176 199.6,176 	"/>
	<rect x="199.6" y="161" class="st1" width="3" height="3"/>
	<polygon class="st1" points="196.6,185.1 196.6,182.1 196.6,179.1 196.6,176 193.6,176 193.6,179.1 193.6,182.1 193.6,185.1 
		193.6,188.1 193.6,191.1 196.6,191.1 196.6,188.1 	"/>
	<polygon class="st1" points="193.6,94.8 193.6,97.8 193.6,100.8 193.6,103.8 193.6,106.8 193.6,109.8 196.6,109.8 196.6,106.8 
		196.6,103.8 196.6,100.8 196.6,97.8 196.6,94.8 196.6,91.7 193.6,91.7 	"/>
	<polygon class="st1" points="298.2,43.6 303.8,43.6 309.5,43.6 309.5,40.6 303.8,40.6 298.2,40.6 292.5,40.6 292.5,37.6 
		292.5,34.5 292.5,31.5 292.5,28.5 292.5,25.5 292.5,22.5 286.9,22.5 286.9,25.5 286.9,28.5 286.9,31.5 286.9,34.5 286.9,37.6 
		286.9,40.6 286.9,43.6 292.5,43.6 	"/>
	<polygon class="st1" points="190.6,266.4 190.6,269.4 190.6,272.4 190.6,275.4 193.6,275.4 193.6,272.4 193.6,269.4 193.6,266.4 
		193.6,263.4 193.6,260.4 196.6,260.4 199.6,260.4 199.6,257.3 196.6,257.3 193.6,257.3 190.6,257.3 187.6,257.3 184.5,257.3 
		184.5,260.4 187.6,260.4 190.6,260.4 190.6,263.4 	"/>
	<polygon class="st1" points="193.6,218.2 193.6,221.2 196.6,221.2 196.6,218.2 196.6,215.2 196.6,212.2 196.6,209.2 196.6,206.2 
		196.6,203.1 193.6,203.1 193.6,206.2 193.6,209.2 193.6,212.2 193.6,215.2 190.6,215.2 190.6,218.2 	"/>
	<polygon class="st1" points="193.6,127.9 193.6,124.9 193.6,121.9 196.6,121.9 196.6,124.9 196.6,127.9 196.6,130.9 196.6,133.9 
		196.6,136.9 199.6,136.9 199.6,133.9 199.6,130.9 199.6,127.9 199.6,124.9 199.6,121.9 199.6,118.8 196.6,118.8 193.6,118.8 
		190.6,118.8 190.6,121.9 190.6,124.9 190.6,127.9 190.6,130.9 193.6,130.9 	"/>
	<polygon class="st1" points="187.6,215.2 190.6,215.2 190.6,212.2 190.6,209.2 187.6,209.2 187.6,212.2 	"/>
	<polygon class="st1" points="190.6,188.1 190.6,185.1 187.6,185.1 187.6,188.1 187.6,191.1 187.6,194.1 190.6,194.1 193.6,194.1 
		193.6,191.1 190.6,191.1 	"/>
	<polygon class="st1" points="187.6,76.7 190.6,76.7 193.6,76.7 193.6,73.7 190.6,73.7 190.6,70.7 187.6,70.7 187.6,73.7 	"/>
	<polygon class="st1" points="187.6,64.7 190.6,64.7 190.6,61.6 190.6,58.6 187.6,58.6 187.6,61.6 	"/>
	<polygon class="st1" points="187.6,233.3 187.6,236.3 187.6,239.3 187.6,242.3 187.6,245.3 187.6,248.3 190.6,248.3 190.6,245.3 
		190.6,242.3 190.6,239.3 190.6,236.3 190.6,233.3 193.6,233.3 196.6,233.3 196.6,230.2 193.6,230.2 190.6,230.2 187.6,230.2 
		184.5,230.2 181.5,230.2 181.5,233.3 184.5,233.3 	"/>
	<polygon class="st1" points="184.5,182.1 181.5,182.1 181.5,179.1 181.5,176 184.5,176 187.6,176 187.6,179.1 187.6,182.1 
		190.6,182.1 190.6,179.1 190.6,176 190.6,173 187.6,173 184.5,173 181.5,173 178.5,173 178.5,176 178.5,179.1 178.5,182.1 
		178.5,185.1 178.5,188.1 178.5,191.1 178.5,194.1 181.5,194.1 181.5,191.1 181.5,188.1 181.5,185.1 184.5,185.1 187.6,185.1 
		187.6,182.1 	"/>
	<polygon class="st1" points="187.6,149 190.6,149 193.6,149 196.6,149 196.6,145.9 193.6,145.9 190.6,145.9 187.6,145.9 
		184.5,145.9 184.5,149 184.5,152 184.5,155 184.5,158 184.5,161 184.5,164 184.5,167 187.6,167 190.6,167 193.6,167 196.6,167 
		196.6,164 193.6,164 190.6,164 187.6,164 187.6,161 187.6,158 190.6,158 193.6,158 193.6,155 190.6,155 187.6,155 187.6,152 	"/>
	<polygon class="st1" points="184.5,127.9 184.5,130.9 184.5,133.9 187.6,133.9 187.6,136.9 190.6,136.9 190.6,133.9 190.6,130.9 
		187.6,130.9 187.6,127.9 187.6,124.9 187.6,121.9 184.5,121.9 184.5,124.9 	"/>
	<polygon class="st1" points="181.5,263.4 181.5,266.4 184.5,266.4 184.5,263.4 184.5,260.4 181.5,260.4 	"/>
	<polygon class="st1" points="181.5,203.1 181.5,206.2 181.5,209.2 181.5,212.2 181.5,215.2 181.5,218.2 181.5,221.2 184.5,221.2 
		184.5,218.2 184.5,215.2 184.5,212.2 184.5,209.2 187.6,209.2 187.6,206.2 184.5,206.2 184.5,203.1 	"/>
	<polygon class="st1" points="184.5,109.8 187.6,109.8 190.6,109.8 190.6,106.8 190.6,103.8 190.6,100.8 187.6,100.8 187.6,103.8 
		187.6,106.8 184.5,106.8 181.5,106.8 181.5,103.8 181.5,100.8 184.5,100.8 187.6,100.8 187.6,97.8 184.5,97.8 181.5,97.8 
		181.5,94.8 184.5,94.8 187.6,94.8 187.6,97.8 190.6,97.8 190.6,94.8 190.6,91.7 187.6,91.7 184.5,91.7 181.5,91.7 178.5,91.7 
		178.5,94.8 178.5,97.8 178.5,100.8 178.5,103.8 178.5,106.8 178.5,109.8 181.5,109.8 	"/>
	<polygon class="st1" points="275.5,43.6 281.2,43.6 281.2,40.6 275.5,40.6 269.9,40.6 269.9,37.6 269.9,34.5 269.9,31.5 
		269.9,28.5 269.9,25.5 269.9,22.5 264.2,22.5 264.2,25.5 264.2,28.5 264.2,31.5 264.2,34.5 264.2,37.6 264.2,40.6 264.2,43.6 
		269.9,43.6 	"/>
	<rect x="178.5" y="242.3" class="st1" width="3" height="3"/>
	<rect x="178.5" y="233.3" class="st1" width="3" height="3"/>
	<polygon class="st1" points="178.5,164 181.5,164 181.5,161 181.5,158 178.5,158 178.5,161 	"/>
	<rect x="178.5" y="149" class="st1" width="3" height="3"/>
	<polygon class="st1" points="181.5,127.9 181.5,124.9 181.5,121.9 184.5,121.9 184.5,118.8 181.5,118.8 178.5,118.8 178.5,121.9 
		178.5,124.9 178.5,127.9 178.5,130.9 181.5,130.9 	"/>
	<polygon class="st1" points="181.5,73.7 181.5,70.7 181.5,67.7 184.5,67.7 184.5,70.7 187.6,70.7 187.6,67.7 187.6,64.7 
		184.5,64.7 181.5,64.7 181.5,61.6 181.5,58.6 184.5,58.6 187.6,58.6 187.6,55.6 184.5,55.6 181.5,55.6 178.5,55.6 178.5,58.6 
		178.5,61.6 178.5,64.7 178.5,67.7 178.5,70.7 178.5,73.7 178.5,76.7 181.5,76.7 	"/>
	<polygon class="st1" points="175.5,266.4 175.5,263.4 175.5,260.4 178.5,260.4 181.5,260.4 181.5,257.3 178.5,257.3 175.5,257.3 
		172.5,257.3 172.5,260.4 172.5,263.4 172.5,266.4 172.5,269.4 172.5,272.4 172.5,275.4 175.5,275.4 175.5,272.4 175.5,269.4 
		178.5,269.4 181.5,269.4 181.5,266.4 178.5,266.4 	"/>
	<polygon class="st1" points="178.5,233.3 178.5,230.2 175.5,230.2 172.5,230.2 172.5,233.3 175.5,233.3 	"/>
	<rect x="175.5" y="155" class="st1" width="3" height="3"/>
	<polygon class="st1" points="175.5,145.9 172.5,145.9 172.5,149 175.5,149 178.5,149 178.5,145.9 	"/>
	<polygon class="st1" points="175.5,248.3 178.5,248.3 178.5,245.3 175.5,245.3 172.5,245.3 172.5,248.3 	"/>
	<polygon class="st1" points="175.5,206.2 175.5,203.1 172.5,203.1 169.5,203.1 169.5,206.2 172.5,206.2 	"/>
	<polygon class="st1" points="172.5,191.1 172.5,194.1 175.5,194.1 175.5,191.1 175.5,188.1 175.5,185.1 175.5,182.1 175.5,179.1 
		175.5,176 175.5,173 172.5,173 172.5,176 172.5,179.1 172.5,182.1 169.5,182.1 166.5,182.1 166.5,179.1 166.5,176 166.5,173 
		163.5,173 163.5,176 163.5,179.1 163.5,182.1 163.5,185.1 163.5,188.1 163.5,191.1 163.5,194.1 166.5,194.1 166.5,191.1 
		166.5,188.1 166.5,185.1 169.5,185.1 172.5,185.1 172.5,188.1 	"/>
	<polygon class="st1" points="172.5,164 172.5,167 175.5,167 178.5,167 178.5,164 175.5,164 	"/>
	<polygon class="st1" points="175.5,127.9 175.5,124.9 175.5,121.9 172.5,121.9 172.5,118.8 169.5,118.8 169.5,121.9 169.5,124.9 
		172.5,124.9 172.5,127.9 172.5,130.9 172.5,133.9 175.5,133.9 175.5,136.9 178.5,136.9 178.5,133.9 178.5,130.9 175.5,130.9 	"/>
	<polygon class="st1" points="172.5,64.7 172.5,67.7 172.5,70.7 172.5,73.7 175.5,73.7 175.5,70.7 175.5,67.7 175.5,64.7 
		175.5,61.6 175.5,58.6 172.5,58.6 172.5,61.6 	"/>
	<polygon class="st1" points="258.5,40.6 258.5,37.6 258.5,34.5 258.5,31.5 258.5,28.5 258.5,25.5 258.5,22.5 252.9,22.5 
		252.9,25.5 252.9,28.5 252.9,31.5 252.9,34.5 252.9,37.6 252.9,40.6 252.9,43.6 258.5,43.6 	"/>
	<polygon class="st1" points="172.5,242.3 172.5,239.3 172.5,236.3 172.5,233.3 169.5,233.3 169.5,236.3 169.5,239.3 169.5,242.3 
		169.5,245.3 172.5,245.3 	"/>
	<rect x="169.5" y="161" class="st1" width="3" height="3"/>
	<polygon class="st1" points="169.5,152 169.5,155 172.5,155 175.5,155 175.5,152 172.5,152 172.5,149 169.5,149 	"/>
	<polygon class="st1" points="169.5,218.2 169.5,215.2 172.5,215.2 175.5,215.2 175.5,218.2 175.5,221.2 178.5,221.2 178.5,218.2 
		178.5,215.2 178.5,212.2 178.5,209.2 178.5,206.2 175.5,206.2 175.5,209.2 175.5,212.2 172.5,212.2 169.5,212.2 169.5,209.2 
		169.5,206.2 166.5,206.2 166.5,209.2 166.5,212.2 166.5,215.2 166.5,218.2 166.5,221.2 169.5,221.2 	"/>
	<polygon class="st1" points="169.5,91.7 166.5,91.7 163.5,91.7 160.5,91.7 157.4,91.7 154.4,91.7 154.4,94.8 157.4,94.8 
		160.5,94.8 160.5,97.8 160.5,100.8 160.5,103.8 160.5,106.8 160.5,109.8 163.5,109.8 163.5,106.8 163.5,103.8 163.5,100.8 
		163.5,97.8 163.5,94.8 166.5,94.8 169.5,94.8 	"/>
	<polygon class="st1" points="166.5,73.7 163.5,73.7 163.5,76.7 166.5,76.7 169.5,76.7 172.5,76.7 172.5,73.7 169.5,73.7 	"/>
	<polygon class="st1" points="169.5,58.6 172.5,58.6 172.5,55.6 169.5,55.6 166.5,55.6 163.5,55.6 163.5,58.6 166.5,58.6 	"/>
	<polygon class="st1" points="241.6,31.5 247.2,31.5 247.2,28.5 247.2,25.5 241.6,25.5 241.6,28.5 	"/>
	<polygon class="st1" points="166.5,164 166.5,161 166.5,158 166.5,155 166.5,152 166.5,149 166.5,145.9 163.5,145.9 163.5,149 
		163.5,152 163.5,155 163.5,158 163.5,161 163.5,164 163.5,167 166.5,167 	"/>
	<polygon class="st1" points="163.5,260.4 166.5,260.4 169.5,260.4 169.5,257.3 166.5,257.3 163.5,257.3 160.5,257.3 157.4,257.3 
		157.4,260.4 157.4,263.4 157.4,266.4 157.4,269.4 157.4,272.4 157.4,275.4 160.5,275.4 163.5,275.4 166.5,275.4 169.5,275.4 
		169.5,272.4 166.5,272.4 163.5,272.4 160.5,272.4 160.5,269.4 160.5,266.4 163.5,266.4 166.5,266.4 166.5,263.4 163.5,263.4 
		160.5,263.4 160.5,260.4 	"/>
	<polygon class="st1" points="160.5,64.7 160.5,67.7 160.5,70.7 160.5,73.7 163.5,73.7 163.5,70.7 163.5,67.7 163.5,64.7 
		163.5,61.6 163.5,58.6 160.5,58.6 160.5,61.6 	"/>
	<polygon class="st1" points="160.5,248.3 163.5,248.3 166.5,248.3 166.5,245.3 163.5,245.3 160.5,245.3 157.4,245.3 157.4,242.3 
		157.4,239.3 160.5,239.3 163.5,239.3 163.5,236.3 160.5,236.3 157.4,236.3 157.4,233.3 160.5,233.3 163.5,233.3 166.5,233.3 
		166.5,230.2 163.5,230.2 160.5,230.2 157.4,230.2 154.4,230.2 154.4,233.3 154.4,236.3 154.4,239.3 154.4,242.3 154.4,245.3 
		154.4,248.3 157.4,248.3 	"/>
	<polygon class="st1" points="160.5,161 160.5,158 160.5,155 160.5,152 160.5,149 160.5,145.9 157.4,145.9 157.4,149 157.4,152 
		157.4,155 157.4,158 157.4,161 157.4,164 160.5,164 	"/>
	<polygon class="st1" points="230.3,40.6 230.3,37.6 230.3,34.5 235.9,34.5 241.6,34.5 241.6,31.5 235.9,31.5 230.3,31.5 
		230.3,28.5 230.3,25.5 235.9,25.5 241.6,25.5 241.6,22.5 235.9,22.5 230.3,22.5 224.6,22.5 224.6,25.5 224.6,28.5 224.6,31.5 
		224.6,34.5 224.6,37.6 224.6,40.6 224.6,43.6 230.3,43.6 	"/>
	<polygon class="st1" points="151.4,275.4 154.4,275.4 154.4,272.4 154.4,269.4 151.4,269.4 151.4,272.4 	"/>
	<polygon class="st1" points="151.4,266.4 154.4,266.4 154.4,263.4 154.4,260.4 151.4,260.4 151.4,263.4 	"/>
	<polygon class="st1" points="154.4,209.2 151.4,209.2 148.4,209.2 148.4,206.2 151.4,206.2 154.4,206.2 157.4,206.2 157.4,203.1 
		154.4,203.1 151.4,203.1 148.4,203.1 145.4,203.1 145.4,206.2 145.4,209.2 145.4,212.2 145.4,215.2 145.4,218.2 145.4,221.2 
		148.4,221.2 148.4,218.2 148.4,215.2 148.4,212.2 151.4,212.2 154.4,212.2 	"/>
	<polygon class="st1" points="151.4,182.1 151.4,185.1 151.4,188.1 151.4,191.1 151.4,194.1 154.4,194.1 154.4,191.1 154.4,188.1 
		154.4,185.1 154.4,182.1 154.4,179.1 154.4,176 157.4,176 160.5,176 160.5,173 157.4,173 154.4,173 151.4,173 148.4,173 145.4,173 
		145.4,176 148.4,176 151.4,176 151.4,179.1 	"/>
	<polygon class="st1" points="151.4,164 151.4,167 154.4,167 157.4,167 157.4,164 154.4,164 	"/>
	<polygon class="st1" points="148.4,266.4 145.4,266.4 145.4,263.4 145.4,260.4 148.4,260.4 151.4,260.4 151.4,257.3 148.4,257.3 
		145.4,257.3 142.4,257.3 142.4,260.4 142.4,263.4 142.4,266.4 142.4,269.4 142.4,272.4 142.4,275.4 145.4,275.4 145.4,272.4 
		145.4,269.4 148.4,269.4 151.4,269.4 151.4,266.4 	"/>
	<rect x="148.4" y="242.3" class="st1" width="3" height="3"/>
	<rect x="148.4" y="233.3" class="st1" width="3" height="3"/>
	<polygon class="st1" points="151.4,158 151.4,155 151.4,152 151.4,149 151.4,145.9 148.4,145.9 148.4,149 148.4,152 148.4,155 
		148.4,158 148.4,161 148.4,164 151.4,164 151.4,161 	"/>
	<rect x="148.4" y="103.8" class="st1" width="3" height="3"/>
	<rect x="148.4" y="94.8" class="st1" width="3" height="3"/>
	<polygon class="st1" points="151.4,73.7 151.4,70.7 151.4,67.7 154.4,67.7 157.4,67.7 157.4,64.7 154.4,64.7 151.4,64.7 
		151.4,61.6 151.4,58.6 154.4,58.6 157.4,58.6 160.5,58.6 160.5,55.6 157.4,55.6 154.4,55.6 151.4,55.6 148.4,55.6 148.4,58.6 
		148.4,61.6 148.4,64.7 148.4,67.7 148.4,70.7 148.4,73.7 148.4,76.7 151.4,76.7 	"/>
	<rect x="145.4" y="239.3" class="st1" width="3" height="3"/>
	<polygon class="st1" points="148.4,233.3 148.4,230.2 145.4,230.2 142.4,230.2 142.4,233.3 145.4,233.3 	"/>
	<polygon class="st1" points="145.4,118.8 142.4,118.8 139.4,118.8 139.4,121.9 139.4,124.9 139.4,127.9 139.4,130.9 139.4,133.9 
		139.4,136.9 142.4,136.9 145.4,136.9 148.4,136.9 151.4,136.9 151.4,133.9 148.4,133.9 145.4,133.9 142.4,133.9 142.4,130.9 
		142.4,127.9 145.4,127.9 148.4,127.9 148.4,124.9 145.4,124.9 142.4,124.9 142.4,121.9 145.4,121.9 148.4,121.9 151.4,121.9 
		151.4,118.8 148.4,118.8 	"/>
	<rect x="145.4" y="100.8" class="st1" width="3" height="3"/>
	<polygon class="st1" points="145.4,248.3 148.4,248.3 148.4,245.3 145.4,245.3 142.4,245.3 142.4,248.3 	"/>
	<rect x="142.4" y="236.3" class="st1" width="3" height="3"/>
	<polygon class="st1" points="142.4,164 142.4,167 145.4,167 145.4,164 145.4,161 145.4,158 142.4,158 142.4,161 	"/>
	<polygon class="st1" points="142.4,155 145.4,155 145.4,152 145.4,149 142.4,149 142.4,152 	"/>
	<polygon class="st1" points="142.4,106.8 142.4,109.8 145.4,109.8 148.4,109.8 148.4,106.8 145.4,106.8 	"/>
	<rect x="142.4" y="97.8" class="st1" width="3" height="3"/>
	<polygon class="st1" points="142.4,94.8 145.4,94.8 148.4,94.8 148.4,91.7 145.4,91.7 142.4,91.7 	"/>
	<rect x="139.4" y="242.3" class="st1" width="3" height="3"/>
	<rect x="139.4" y="233.3" class="st1" width="3" height="3"/>
	<polygon class="st1" points="139.4,212.2 139.4,215.2 139.4,218.2 142.4,218.2 142.4,215.2 142.4,212.2 142.4,209.2 142.4,206.2 
		139.4,206.2 139.4,209.2 	"/>
	<rect x="139.4" y="103.8" class="st1" width="3" height="3"/>
	<rect x="139.4" y="94.8" class="st1" width="3" height="3"/>
	<polygon class="st1" points="196.3,43.6 201.9,43.6 201.9,40.6 196.3,40.6 190.6,40.6 190.6,37.6 190.6,34.5 196.3,34.5 
		196.3,31.5 190.6,31.5 190.6,28.5 190.6,25.5 196.3,25.5 201.9,25.5 201.9,22.5 196.3,22.5 190.6,22.5 185,22.5 185,25.5 185,28.5 
		185,31.5 185,34.5 185,37.6 185,40.6 185,43.6 190.6,43.6 	"/>
	<polygon class="st1" points="139.4,221.2 139.4,218.2 136.4,218.2 133.4,218.2 133.4,221.2 136.4,221.2 	"/>
	<polygon class="st1" points="139.4,206.2 139.4,203.1 136.4,203.1 133.4,203.1 133.4,206.2 136.4,206.2 	"/>
	<polygon class="st1" points="136.4,145.9 133.4,145.9 133.4,149 133.4,152 133.4,155 133.4,158 133.4,161 133.4,164 133.4,167 
		136.4,167 136.4,164 136.4,161 136.4,158 139.4,158 142.4,158 142.4,155 139.4,155 136.4,155 136.4,152 136.4,149 139.4,149 
		142.4,149 142.4,145.9 139.4,145.9 	"/>
	<polygon class="st1" points="136.4,248.3 136.4,245.3 136.4,242.3 136.4,239.3 136.4,236.3 136.4,233.3 136.4,230.2 133.4,230.2 
		133.4,233.3 133.4,236.3 133.4,239.3 133.4,242.3 130.3,242.3 130.3,245.3 133.4,245.3 133.4,248.3 	"/>
	<polygon class="st1" points="136.4,133.9 136.4,130.9 136.4,127.9 136.4,124.9 136.4,121.9 136.4,118.8 133.4,118.8 133.4,121.9 
		133.4,124.9 133.4,127.9 133.4,130.9 133.4,133.9 133.4,136.9 136.4,136.9 	"/>
	<polygon class="st1" points="133.4,100.8 133.4,103.8 133.4,106.8 136.4,106.8 136.4,103.8 136.4,100.8 136.4,97.8 136.4,94.8 
		133.4,94.8 133.4,97.8 	"/>
	<polygon class="st1" points="133.4,212.2 133.4,209.2 133.4,206.2 130.3,206.2 130.3,209.2 130.3,212.2 130.3,215.2 130.3,218.2 
		133.4,218.2 133.4,215.2 	"/>
	<polygon class="st1" points="130.3,91.7 127.3,91.7 127.3,94.8 130.3,94.8 133.4,94.8 133.4,91.7 	"/>
	<polygon class="st1" points="127.3,263.4 130.3,263.4 130.3,260.4 130.3,257.3 127.3,257.3 127.3,260.4 	"/>
	<polygon class="st1" points="130.3,236.3 127.3,236.3 127.3,239.3 127.3,242.3 130.3,242.3 130.3,239.3 	"/>
	<polygon class="st1" points="130.3,176 133.4,176 136.4,176 139.4,176 139.4,173 136.4,173 133.4,173 130.3,173 127.3,173 
		127.3,176 127.3,179.1 127.3,182.1 127.3,185.1 127.3,188.1 127.3,191.1 127.3,194.1 130.3,194.1 133.4,194.1 136.4,194.1 
		139.4,194.1 139.4,191.1 136.4,191.1 133.4,191.1 130.3,191.1 130.3,188.1 130.3,185.1 133.4,185.1 136.4,185.1 136.4,182.1 
		133.4,182.1 130.3,182.1 130.3,179.1 	"/>
	<polygon class="st1" points="127.3,155 130.3,155 130.3,152 130.3,149 127.3,149 127.3,152 	"/>
	<polygon class="st1" points="127.3,106.8 127.3,109.8 130.3,109.8 133.4,109.8 133.4,106.8 130.3,106.8 	"/>
	<rect x="168" y="25.5" class="st1" width="5.7" height="3"/>
	<polygon class="st1" points="124.3,233.3 124.3,230.2 121.3,230.2 121.3,233.3 121.3,236.3 121.3,239.3 121.3,242.3 121.3,245.3 
		121.3,248.3 124.3,248.3 124.3,245.3 124.3,242.3 124.3,239.3 124.3,236.3 127.3,236.3 127.3,233.3 	"/>
	<polygon class="st1" points="127.3,167 130.3,167 130.3,164 130.3,161 130.3,158 127.3,158 127.3,161 127.3,164 124.3,164 
		121.3,164 121.3,161 121.3,158 124.3,158 127.3,158 127.3,155 124.3,155 121.3,155 121.3,152 121.3,149 124.3,149 127.3,149 
		127.3,145.9 124.3,145.9 121.3,145.9 118.3,145.9 118.3,149 118.3,152 118.3,155 118.3,158 118.3,161 118.3,164 118.3,167 
		121.3,167 124.3,167 	"/>
	<polygon class="st1" points="127.3,100.8 127.3,97.8 127.3,94.8 124.3,94.8 124.3,97.8 124.3,100.8 124.3,103.8 124.3,106.8 
		127.3,106.8 127.3,103.8 	"/>
	<polygon class="st1" points="168,25.5 168,22.5 162.3,22.5 156.7,22.5 156.7,25.5 162.3,25.5 	"/>
	<polygon class="st1" points="124.3,266.4 127.3,266.4 127.3,263.4 124.3,263.4 121.3,263.4 121.3,260.4 121.3,257.3 124.3,257.3 
		127.3,257.3 127.3,254.3 124.3,254.3 121.3,254.3 118.3,254.3 118.3,257.3 118.3,260.4 118.3,263.4 118.3,266.4 121.3,266.4 	"/>
	<polygon class="st1" points="121.3,191.1 121.3,194.1 124.3,194.1 124.3,191.1 124.3,188.1 124.3,185.1 121.3,185.1 121.3,188.1 	
		"/>
	<polygon class="st1" points="121.3,182.1 124.3,182.1 124.3,179.1 124.3,176 121.3,176 121.3,179.1 	"/>
	<polygon class="st1" points="124.3,127.9 124.3,124.9 124.3,121.9 124.3,118.8 121.3,118.8 121.3,121.9 121.3,124.9 121.3,127.9 
		121.3,130.9 121.3,133.9 121.3,136.9 124.3,136.9 127.3,136.9 130.3,136.9 130.3,133.9 127.3,133.9 124.3,133.9 124.3,130.9 	"/>
	<polygon class="st1" points="162.3,43.6 168,43.6 173.6,43.6 173.6,40.6 173.6,37.6 173.6,34.5 173.6,31.5 168,31.5 162.3,31.5 
		162.3,34.5 168,34.5 168,37.6 168,40.6 162.3,40.6 156.7,40.6 156.7,43.6 	"/>
	<rect x="118.3" y="206.2" class="st1" width="3" height="3"/>
	<polygon class="st1" points="118.3,182.1 115.3,182.1 115.3,179.1 115.3,176 118.3,176 121.3,176 121.3,173 118.3,173 115.3,173 
		112.3,173 112.3,176 112.3,179.1 112.3,182.1 112.3,185.1 112.3,188.1 112.3,191.1 112.3,194.1 115.3,194.1 115.3,191.1 
		115.3,188.1 115.3,185.1 118.3,185.1 121.3,185.1 121.3,182.1 	"/>
	<polygon class="st1" points="118.3,109.8 121.3,109.8 121.3,106.8 121.3,103.8 118.3,103.8 118.3,106.8 	"/>
	<polygon class="st1" points="118.3,100.8 121.3,100.8 121.3,97.8 121.3,94.8 118.3,94.8 118.3,97.8 	"/>
	<polygon class="st1" points="156.7,37.6 156.7,34.5 156.7,31.5 156.7,28.5 156.7,25.5 151,25.5 151,28.5 151,31.5 151,34.5 
		151,37.6 151,40.6 156.7,40.6 	"/>
	<polygon class="st1" points="118.3,245.3 118.3,242.3 118.3,239.3 118.3,236.3 118.3,233.3 118.3,230.2 115.3,230.2 115.3,233.3 
		115.3,236.3 115.3,239.3 115.3,242.3 115.3,245.3 115.3,248.3 118.3,248.3 	"/>
	<rect x="115.3" y="212.2" class="st1" width="3" height="3"/>
	<polygon class="st1" points="118.3,206.2 118.3,203.1 115.3,203.1 112.3,203.1 112.3,206.2 115.3,206.2 	"/>
	<polygon class="st1" points="115.3,91.7 112.3,91.7 109.3,91.7 109.3,94.8 109.3,97.8 109.3,100.8 109.3,103.8 109.3,106.8 
		109.3,109.8 112.3,109.8 112.3,106.8 112.3,103.8 115.3,103.8 118.3,103.8 118.3,100.8 115.3,100.8 112.3,100.8 112.3,97.8 
		112.3,94.8 115.3,94.8 118.3,94.8 118.3,91.7 	"/>
	<polygon class="st1" points="115.3,272.4 115.3,269.4 115.3,266.4 115.3,263.4 115.3,260.4 115.3,257.3 112.3,257.3 112.3,260.4 
		112.3,263.4 112.3,266.4 109.3,266.4 109.3,269.4 112.3,269.4 112.3,272.4 	"/>
	<polygon class="st1" points="115.3,221.2 118.3,221.2 121.3,221.2 121.3,218.2 121.3,215.2 118.3,215.2 118.3,218.2 115.3,218.2 
		112.3,218.2 112.3,221.2 	"/>
	<rect x="112.3" y="209.2" class="st1" width="3" height="3"/>
	<rect x="109.3" y="215.2" class="st1" width="3" height="3"/>
	<rect x="109.3" y="206.2" class="st1" width="3" height="3"/>
	<polygon class="st1" points="109.3,121.9 109.3,124.9 109.3,127.9 109.3,130.9 109.3,133.9 109.3,136.9 112.3,136.9 115.3,136.9 
		118.3,136.9 118.3,133.9 115.3,133.9 112.3,133.9 112.3,130.9 112.3,127.9 112.3,124.9 112.3,121.9 112.3,118.8 109.3,118.8 	"/>
	<polygon class="st1" points="139.7,40.6 139.7,43.6 145.3,43.6 145.3,40.6 145.3,37.6 145.3,34.5 145.3,31.5 145.3,28.5 
		145.3,25.5 145.3,22.5 139.7,22.5 139.7,25.5 139.7,28.5 139.7,31.5 139.7,34.5 139.7,37.6 134,37.6 134,40.6 	"/>
	<polygon class="st1" points="106.3,263.4 106.3,260.4 106.3,257.3 103.2,257.3 103.2,260.4 103.2,263.4 103.2,266.4 103.2,269.4 
		103.2,272.4 106.3,272.4 106.3,269.4 106.3,266.4 109.3,266.4 109.3,263.4 	"/>
	<polygon class="st1" points="106.3,182.1 106.3,185.1 106.3,188.1 106.3,191.1 109.3,191.1 109.3,188.1 109.3,185.1 109.3,182.1 
		109.3,179.1 109.3,176 106.3,176 106.3,179.1 	"/>
	<polygon class="st1" points="128.4,34.5 128.4,37.6 134,37.6 134,34.5 134,31.5 134,28.5 128.4,28.5 128.4,31.5 	"/>
	<polygon class="st1" points="106.3,221.2 106.3,218.2 103.2,218.2 100.2,218.2 100.2,215.2 100.2,212.2 103.2,212.2 106.3,212.2 
		106.3,209.2 103.2,209.2 100.2,209.2 100.2,206.2 103.2,206.2 106.3,206.2 106.3,203.1 103.2,203.1 100.2,203.1 97.2,203.1 
		97.2,206.2 97.2,209.2 97.2,212.2 97.2,215.2 97.2,218.2 97.2,221.2 100.2,221.2 103.2,221.2 	"/>
	<polygon class="st1" points="106.3,176 106.3,173 103.2,173 100.2,173 100.2,176 103.2,176 	"/>
	<polygon class="st1" points="103.2,121.9 103.2,124.9 103.2,127.9 103.2,130.9 103.2,133.9 103.2,136.9 106.3,136.9 106.3,133.9 
		106.3,130.9 106.3,127.9 106.3,124.9 106.3,121.9 106.3,118.8 103.2,118.8 	"/>
	<polygon class="st1" points="106.3,91.7 103.2,91.7 100.2,91.7 97.2,91.7 94.2,91.7 94.2,94.8 94.2,97.8 94.2,100.8 94.2,103.8 
		94.2,106.8 94.2,109.8 97.2,109.8 97.2,106.8 97.2,103.8 97.2,100.8 100.2,100.8 103.2,100.8 103.2,97.8 100.2,97.8 97.2,97.8 
		97.2,94.8 100.2,94.8 103.2,94.8 106.3,94.8 	"/>
	<polygon class="st1" points="103.2,194.1 106.3,194.1 106.3,191.1 103.2,191.1 100.2,191.1 100.2,194.1 	"/>
	<polygon class="st1" points="122.7,40.6 122.7,37.6 122.7,34.5 122.7,31.5 122.7,28.5 128.4,28.5 128.4,25.5 122.7,25.5 
		122.7,22.5 117,22.5 117,25.5 117,28.5 117,31.5 117,34.5 117,37.6 117,40.6 117,43.6 122.7,43.6 	"/>
	<polygon class="st1" points="97.2,269.4 94.2,269.4 91.2,269.4 91.2,266.4 88.2,266.4 88.2,269.4 88.2,272.4 88.2,275.4 
		88.2,278.4 91.2,278.4 91.2,275.4 91.2,272.4 94.2,272.4 97.2,272.4 97.2,275.4 97.2,278.4 100.2,278.4 100.2,275.4 100.2,272.4 
		100.2,269.4 100.2,266.4 97.2,266.4 	"/>
	<polygon class="st1" points="100.2,185.1 100.2,182.1 100.2,179.1 100.2,176 97.2,176 97.2,179.1 97.2,182.1 97.2,185.1 
		97.2,188.1 97.2,191.1 100.2,191.1 100.2,188.1 	"/>
	<polygon class="st1" points="97.2,266.4 97.2,263.4 94.2,263.4 91.2,263.4 91.2,266.4 94.2,266.4 	"/>
	<polygon class="st1" points="94.2,133.9 94.2,136.9 97.2,136.9 100.2,136.9 100.2,133.9 100.2,130.9 100.2,127.9 100.2,124.9 
		100.2,121.9 100.2,118.8 97.2,118.8 97.2,121.9 97.2,124.9 97.2,127.9 94.2,127.9 91.2,127.9 91.2,124.9 91.2,121.9 91.2,118.8 
		88.2,118.8 88.2,121.9 88.2,124.9 88.2,127.9 88.2,130.9 88.2,133.9 88.2,136.9 91.2,136.9 91.2,133.9 91.2,130.9 94.2,130.9 
		97.2,130.9 97.2,133.9 	"/>
	<polygon class="st1" points="91.2,191.1 94.2,191.1 94.2,188.1 94.2,185.1 91.2,185.1 91.2,188.1 	"/>
	<rect x="91.2" y="176" class="st1" width="3" height="3"/>
	<polygon class="st1" points="105.7,25.5 105.7,22.5 100.1,22.5 94.4,22.5 94.4,25.5 100.1,25.5 	"/>
	<polygon class="st1" points="88.2,173 85.2,173 85.2,176 88.2,176 91.2,176 91.2,173 	"/>
	<polygon class="st1" points="85.2,212.2 85.2,215.2 85.2,218.2 85.2,221.2 88.2,221.2 88.2,218.2 88.2,215.2 88.2,212.2 
		88.2,209.2 88.2,206.2 91.2,206.2 94.2,206.2 94.2,203.1 91.2,203.1 88.2,203.1 85.2,203.1 82.2,203.1 79.2,203.1 79.2,206.2 
		82.2,206.2 85.2,206.2 85.2,209.2 	"/>
	<polygon class="st1" points="85.2,191.1 85.2,194.1 88.2,194.1 91.2,194.1 91.2,191.1 88.2,191.1 	"/>
	<polygon class="st1" points="88.2,185.1 91.2,185.1 91.2,182.1 88.2,182.1 85.2,182.1 85.2,185.1 	"/>
	<polygon class="st1" points="94.4,40.6 94.4,37.6 94.4,34.5 100.1,34.5 105.7,34.5 105.7,37.6 105.7,40.6 105.7,43.6 111.4,43.6 
		111.4,40.6 111.4,37.6 111.4,34.5 111.4,31.5 111.4,28.5 111.4,25.5 105.7,25.5 105.7,28.5 105.7,31.5 100.1,31.5 94.4,31.5 
		94.4,28.5 94.4,25.5 88.7,25.5 88.7,28.5 88.7,31.5 88.7,34.5 88.7,37.6 88.7,40.6 88.7,43.6 94.4,43.6 	"/>
	<rect x="82.2" y="188.1" class="st1" width="3" height="3"/>
	<polygon class="st1" points="82.2,179.1 82.2,182.1 85.2,182.1 85.2,179.1 85.2,176 82.2,176 	"/>
	<polygon class="st1" points="82.2,121.9 82.2,124.9 85.2,124.9 85.2,121.9 85.2,118.8 82.2,118.8 79.2,118.8 76.2,118.8 
		76.2,121.9 79.2,121.9 	"/>
	<polygon class="st1" points="77.4,43.6 83.1,43.6 83.1,40.6 83.1,37.6 77.4,37.6 77.4,40.6 	"/>
	<polygon class="st1" points="77.4,31.5 83.1,31.5 83.1,28.5 83.1,25.5 77.4,25.5 77.4,28.5 	"/>
	<polygon class="st1" points="79.2,136.9 82.2,136.9 85.2,136.9 85.2,133.9 85.2,130.9 82.2,130.9 82.2,133.9 79.2,133.9 
		76.2,133.9 76.2,136.9 	"/>
	<polygon class="st1" points="73.1,206.2 73.1,209.2 73.1,212.2 73.1,215.2 73.1,218.2 73.1,221.2 76.2,221.2 76.2,218.2 
		76.2,215.2 76.2,212.2 76.2,209.2 76.2,206.2 76.2,203.1 73.1,203.1 	"/>
	<polygon class="st1" points="76.2,127.9 76.2,124.9 76.2,121.9 73.1,121.9 73.1,124.9 73.1,127.9 73.1,130.9 73.1,133.9 
		76.2,133.9 76.2,130.9 	"/>
	<polygon class="st1" points="76.2,70.7 79.2,70.7 82.2,70.7 85.2,70.7 88.2,70.7 91.2,70.7 94.2,70.7 97.2,70.7 100.2,70.7 
		103.2,70.7 106.3,70.7 109.3,70.7 112.3,70.7 115.3,70.7 118.3,70.7 121.3,70.7 124.3,70.7 127.3,70.7 130.3,70.7 133.4,70.7 
		136.4,70.7 139.4,70.7 142.4,70.7 142.4,67.7 139.4,67.7 136.4,67.7 133.4,67.7 130.3,67.7 127.3,67.7 124.3,67.7 121.3,67.7 
		118.3,67.7 115.3,67.7 112.3,67.7 109.3,67.7 106.3,67.7 103.2,67.7 100.2,67.7 97.2,67.7 94.2,67.7 91.2,67.7 88.2,67.7 
		85.2,67.7 82.2,67.7 79.2,67.7 76.2,67.7 73.1,67.7 70.1,67.7 67.1,67.7 64.1,67.7 61.1,67.7 58.1,67.7 55.1,67.7 52.1,67.7 
		49.1,67.7 46,67.7 43,67.7 40,67.7 37,67.7 34,67.7 31,67.7 31,70.7 34,70.7 37,70.7 40,70.7 43,70.7 46,70.7 49.1,70.7 52.1,70.7 
		55.1,70.7 58.1,70.7 61.1,70.7 64.1,70.7 67.1,70.7 70.1,70.7 73.1,70.7 	"/>
	<polygon class="st1" points="66.1,40.6 66.1,37.6 66.1,34.5 71.8,34.5 71.8,37.6 77.4,37.6 77.4,34.5 77.4,31.5 71.8,31.5 
		66.1,31.5 66.1,28.5 66.1,25.5 71.8,25.5 77.4,25.5 77.4,22.5 71.8,22.5 66.1,22.5 60.4,22.5 60.4,25.5 60.4,28.5 60.4,31.5 
		60.4,34.5 60.4,37.6 60.4,40.6 60.4,43.6 66.1,43.6 	"/>
	<rect x="67.1" y="206.2" class="st1" width="3" height="3"/>
	<polygon class="st1" points="61.1,209.2 61.1,206.2 64.1,206.2 67.1,206.2 67.1,203.1 64.1,203.1 61.1,203.1 58.1,203.1 
		58.1,206.2 58.1,209.2 58.1,212.2 58.1,215.2 58.1,218.2 58.1,221.2 61.1,221.2 64.1,221.2 67.1,221.2 70.1,221.2 70.1,218.2 
		70.1,215.2 70.1,212.2 67.1,212.2 67.1,215.2 67.1,218.2 64.1,218.2 61.1,218.2 61.1,215.2 61.1,212.2 64.1,212.2 67.1,212.2 
		67.1,209.2 64.1,209.2 	"/>
	<polygon class="st1" points="49.1,31.5 49.1,34.5 49.1,37.6 49.1,40.6 54.8,40.6 54.8,37.6 54.8,34.5 54.8,31.5 54.8,28.5 
		54.8,25.5 49.1,25.5 49.1,28.5 	"/>
	<polygon class="st1" points="49.1,25.5 49.1,22.5 43.5,22.5 37.8,22.5 37.8,25.5 43.5,25.5 	"/>
	<polygon class="st1" points="37.8,40.6 37.8,43.6 43.5,43.6 49.1,43.6 49.1,40.6 43.5,40.6 	"/>
	<polygon class="st1" points="37.8,37.6 37.8,34.5 37.8,31.5 37.8,28.5 37.8,25.5 32.1,25.5 32.1,28.5 32.1,31.5 32.1,34.5 
		32.1,37.6 32.1,40.6 37.8,40.6 	"/>
	<polygon class="st1" points="37,64.7 40,64.7 43,64.7 46,64.7 49.1,64.7 52.1,64.7 55.1,64.7 58.1,64.7 61.1,64.7 64.1,64.7 
		67.1,64.7 70.1,64.7 73.1,64.7 76.2,64.7 79.2,64.7 82.2,64.7 85.2,64.7 88.2,64.7 91.2,64.7 94.2,64.7 97.2,64.7 100.2,64.7 
		103.2,64.7 106.3,64.7 109.3,64.7 112.3,64.7 115.3,64.7 118.3,64.7 121.3,64.7 124.3,64.7 127.3,64.7 130.3,64.7 133.4,64.7 
		136.4,64.7 139.4,64.7 142.4,64.7 142.4,61.6 139.4,61.6 136.4,61.6 133.4,61.6 130.3,61.6 127.3,61.6 124.3,61.6 121.3,61.6 
		118.3,61.6 115.3,61.6 112.3,61.6 109.3,61.6 106.3,61.6 103.2,61.6 100.2,61.6 97.2,61.6 94.2,61.6 91.2,61.6 88.2,61.6 
		85.2,61.6 82.2,61.6 79.2,61.6 76.2,61.6 73.1,61.6 70.1,61.6 67.1,61.6 64.1,61.6 61.1,61.6 58.1,61.6 55.1,61.6 52.1,61.6 
		49.1,61.6 46,61.6 43,61.6 40,61.6 37,61.6 34,61.6 31,61.6 31,64.7 34,64.7 	"/>
</g>
<g id="D5GZBk_00000159454323947784148910000005189571885237827216_">
	<g>
		
			<image style="overflow:visible;" width="397" height="113" xlink:href="F28C182015C597A2.png"  transform="matrix(0.8905 0 0 0.8905 108.9016 311.7999)">
		</image>
	</g>
</g>
<text transform="matrix(1 0 0 1 320.0285 133.894)" class="st1 st2 st3">YUM!!</text>
</svg>
