<?xml version="1.0" encoding="utf-8"?>
<!-- Generator: Adobe Illustrator 27.0.0, SVG Export Plug-In . SVG Version: 6.00 Build 0)  -->
<svg version="1.1" id="Layer_1" xmlns="http://www.w3.org/2000/svg" xmlns:xlink="http://www.w3.org/1999/xlink" x="0px" y="0px"
	 viewBox="0 0 602.3 991.7" style="enable-background:new 0 0 602.3 991.7;" xml:space="preserve">
<style type="text/css">
	.st0{fill:#0000FF;}
	.st1{font-family:'Redaction70-Bold';}
	.st2{font-size:34.4546px;}
	.st3{letter-spacing:1;}
	.st4{fill:#EB1C24;}
</style>
<text transform="matrix(1 0 0 1 86.1636 62.2874)" class="st0 st1 st2 st3">Watch Pubkey on PKTV</text>
<text transform="matrix(1 0 0 1 123.0298 944.9266)" class="st0 st1 st2 st3">Weeknights at 3 am.</text>
<g>
	<polygon class="st0" points="560.4,145.9 560.4,142.6 560.4,139.4 557.2,139.4 554,139.4 550.8,139.4 547.6,139.4 544.3,139.4 
		541.1,139.4 537.9,139.4 534.7,139.4 531.4,139.4 528.2,139.4 525,139.4 525,142.6 525,145.9 525,149.1 528.2,149.1 528.2,152.3 
		531.4,152.3 534.7,152.3 537.9,152.3 537.9,155.5 537.9,158.8 534.7,158.8 534.7,162 534.7,165.2 534.7,168.4 531.4,168.4 
		531.4,171.7 531.4,174.9 531.4,178.1 528.2,178.1 528.2,181.3 528.2,184.6 528.2,187.8 531.4,187.8 531.4,184.6 531.4,181.3 
		534.7,181.3 534.7,178.1 534.7,174.9 534.7,171.7 537.9,171.7 537.9,168.4 537.9,165.2 537.9,162 541.1,162 541.1,158.8 
		541.1,155.5 541.1,152.3 544.3,152.3 544.3,149.1 544.3,145.9 541.1,145.9 537.9,145.9 534.7,145.9 531.4,145.9 528.2,145.9 
		528.2,142.6 531.4,142.6 534.7,142.6 537.9,142.6 541.1,142.6 544.3,142.6 547.6,142.6 550.8,142.6 554,142.6 557.2,142.6 
		557.2,145.9 554,145.9 550.8,145.9 547.6,145.9 547.6,149.1 547.6,152.3 547.6,155.5 544.3,155.5 544.3,158.8 544.3,162 
		544.3,165.2 541.1,165.2 541.1,168.4 541.1,171.7 537.9,171.7 537.9,174.9 537.9,178.1 537.9,181.3 537.9,184.6 537.9,187.8 
		534.7,187.8 534.7,191 534.7,194.2 531.4,194.2 531.4,197.5 531.4,200.7 531.4,203.9 528.2,203.9 528.2,207.1 528.2,210.3 
		525,210.3 525,213.6 525,216.8 525,220 521.8,220 521.8,223.2 521.8,226.5 518.5,226.5 518.5,229.7 518.5,232.9 518.5,236.1 
		515.3,236.1 515.3,239.4 515.3,242.6 515.3,245.8 512.1,245.8 512.1,249 512.1,252.3 512.1,255.5 512.1,258.7 512.1,261.9 
		512.1,265.2 512.1,268.4 512.1,271.6 508.9,271.6 508.9,274.8 508.9,278 508.9,281.3 505.6,281.3 505.6,284.5 505.6,287.7 
		502.4,287.7 502.4,290.9 499.2,290.9 499.2,294.2 499.2,297.4 496,297.4 496,300.6 492.7,300.6 492.7,303.8 489.5,303.8 
		486.3,303.8 486.3,307.1 483.1,307.1 479.9,307.1 476.6,307.1 476.6,303.8 473.4,303.8 470.2,303.8 470.2,300.6 467,300.6 
		467,297.4 467,294.2 470.2,294.2 470.2,290.9 470.2,287.7 470.2,284.5 470.2,281.3 470.2,278 470.2,274.8 470.2,271.6 473.4,271.6 
		473.4,268.4 473.4,265.2 473.4,261.9 476.6,261.9 476.6,265.2 476.6,268.4 476.6,271.6 476.6,274.8 476.6,278 476.6,281.3 
		479.9,281.3 479.9,284.5 479.9,287.7 479.9,290.9 479.9,294.2 479.9,297.4 483.1,297.4 486.3,297.4 486.3,300.6 489.5,300.6 
		489.5,297.4 492.7,297.4 492.7,294.2 496,294.2 496,290.9 496,287.7 499.2,287.7 499.2,284.5 502.4,284.5 502.4,281.3 502.4,278 
		502.4,274.8 505.6,274.8 505.6,271.6 505.6,268.4 505.6,265.2 502.4,265.2 502.4,268.4 502.4,271.6 499.2,271.6 499.2,274.8 
		499.2,278 499.2,281.3 496,281.3 496,284.5 492.7,284.5 492.7,287.7 492.7,290.9 489.5,290.9 489.5,294.2 486.3,294.2 486.3,290.9 
		486.3,287.7 486.3,284.5 486.3,281.3 486.3,278 486.3,274.8 483.1,274.8 483.1,271.6 483.1,268.4 483.1,265.2 483.1,261.9 
		479.9,261.9 479.9,258.7 476.6,258.7 473.4,258.7 470.2,258.7 470.2,261.9 470.2,265.2 470.2,268.4 467,268.4 467,271.6 467,274.8 
		467,278 467,281.3 467,284.5 467,287.7 467,290.9 463.7,290.9 463.7,294.2 463.7,297.4 463.7,300.6 463.7,303.8 467,303.8 
		467,307.1 470.2,307.1 473.4,307.1 473.4,310.3 476.6,310.3 479.9,310.3 483.1,310.3 486.3,310.3 489.5,310.3 492.7,310.3 
		492.7,307.1 496,307.1 499.2,307.1 499.2,303.8 502.4,303.8 502.4,300.6 505.6,300.6 505.6,297.4 505.6,294.2 508.9,294.2 
		508.9,290.9 512.1,290.9 512.1,287.7 512.1,284.5 515.3,284.5 515.3,281.3 515.3,278 515.3,274.8 515.3,271.6 518.5,271.6 
		518.5,268.4 518.5,265.2 518.5,261.9 518.5,258.7 518.5,255.5 518.5,252.3 518.5,249 518.5,245.8 518.5,242.6 521.8,242.6 
		521.8,239.4 525,239.4 525,236.1 525,232.9 525,229.7 528.2,229.7 528.2,226.5 528.2,223.2 531.4,223.2 531.4,220 531.4,216.8 
		534.7,216.8 534.7,213.6 534.7,210.3 537.9,210.3 537.9,207.1 537.9,203.9 541.1,203.9 541.1,200.7 541.1,197.5 541.1,194.2 
		541.1,191 544.3,191 544.3,187.8 544.3,184.6 544.3,181.3 544.3,178.1 547.6,178.1 547.6,174.9 547.6,171.7 547.6,168.4 
		550.8,168.4 550.8,165.2 550.8,162 550.8,158.8 554,158.8 554,155.5 554,152.3 557.2,152.3 560.4,152.3 563.7,152.3 563.7,149.1 
		563.7,145.9 	"/>
	<polygon class="st0" points="508.9,261.9 508.9,258.7 505.6,258.7 502.4,258.7 502.4,255.5 502.4,252.3 502.4,249 502.4,245.8 
		502.4,242.6 499.2,242.6 499.2,239.4 499.2,236.1 499.2,232.9 499.2,229.7 496,229.7 496,226.5 496,223.2 496,220 496,216.8 
		496,213.6 492.7,213.6 492.7,210.3 492.7,207.1 492.7,203.9 492.7,200.7 492.7,197.5 489.5,197.5 489.5,194.2 489.5,191 
		489.5,187.8 489.5,184.6 489.5,181.3 486.3,181.3 486.3,178.1 486.3,174.9 486.3,171.7 486.3,168.4 486.3,165.2 486.3,162 
		483.1,162 483.1,158.8 483.1,155.5 483.1,152.3 483.1,149.1 479.9,149.1 479.9,145.9 476.6,145.9 476.6,142.6 479.9,142.6 
		483.1,142.6 486.3,142.6 489.5,142.6 492.7,142.6 496,142.6 499.2,142.6 502.4,142.6 505.6,142.6 508.9,142.6 512.1,142.6 
		512.1,145.9 508.9,145.9 505.6,145.9 502.4,145.9 499.2,145.9 499.2,149.1 499.2,152.3 499.2,155.5 502.4,155.5 502.4,158.8 
		502.4,162 502.4,165.2 502.4,168.4 502.4,171.7 502.4,174.9 505.6,174.9 505.6,178.1 505.6,181.3 505.6,184.6 505.6,187.8 
		508.9,187.8 508.9,191 508.9,194.2 508.9,197.5 508.9,200.7 508.9,203.9 508.9,207.1 512.1,207.1 512.1,210.3 512.1,213.6 
		512.1,216.8 512.1,220 512.1,223.2 515.3,223.2 518.5,223.2 518.5,220 518.5,216.8 518.5,213.6 521.8,213.6 521.8,210.3 
		521.8,207.1 525,207.1 525,203.9 525,200.7 525,197.5 528.2,197.5 528.2,194.2 528.2,191 528.2,187.8 525,187.8 525,191 525,194.2 
		521.8,194.2 521.8,197.5 521.8,200.7 521.8,203.9 518.5,203.9 518.5,207.1 518.5,210.3 515.3,210.3 515.3,207.1 515.3,203.9 
		512.1,203.9 512.1,200.7 512.1,197.5 512.1,194.2 512.1,191 512.1,187.8 512.1,184.6 508.9,184.6 508.9,181.3 508.9,178.1 
		508.9,174.9 508.9,171.7 505.6,171.7 505.6,168.4 505.6,165.2 505.6,162 505.6,158.8 505.6,155.5 505.6,152.3 508.9,152.3 
		512.1,152.3 515.3,152.3 518.5,152.3 518.5,149.1 518.5,145.9 518.5,142.6 515.3,142.6 515.3,139.4 512.1,139.4 508.9,139.4 
		505.6,139.4 502.4,139.4 499.2,139.4 496,139.4 492.7,139.4 489.5,139.4 486.3,139.4 483.1,139.4 479.9,139.4 476.6,139.4 
		473.4,139.4 473.4,142.6 473.4,145.9 473.4,149.1 476.6,149.1 476.6,152.3 476.6,155.5 479.9,155.5 479.9,158.8 479.9,162 
		479.9,165.2 483.1,165.2 483.1,168.4 483.1,171.7 483.1,174.9 483.1,178.1 483.1,181.3 483.1,184.6 486.3,184.6 486.3,187.8 
		486.3,191 486.3,194.2 486.3,197.5 486.3,200.7 489.5,200.7 489.5,203.9 489.5,207.1 489.5,210.3 489.5,213.6 489.5,216.8 
		492.7,216.8 492.7,220 492.7,223.2 492.7,226.5 492.7,229.7 492.7,232.9 496,232.9 496,236.1 496,239.4 496,242.6 496,245.8 
		499.2,245.8 499.2,249 499.2,252.3 499.2,255.5 499.2,258.7 499.2,261.9 502.4,261.9 505.6,261.9 505.6,265.2 508.9,265.2 	"/>
	<path class="st0" d="M463.7,252.3V249h3.2v-3.2h3.2v-3.2v-3.2h3.2v-3.2v-3.2v-3.2v-3.2v-3.2V220h-3.2v-3.2H467h-3.2h-3.2v3.2v3.2
		h-3.2v3.2v3.2v3.2h-3.2v3.2v3.2v3.2h-3.2v3.2h-3.2v3.2h-3.2v3.2h-3.2v3.2h-3.2h-3.2h-3.2v-3.2h-3.2V249H425v-3.2v-3.2h-3.2v-3.2
		v-3.2v-3.2v-3.2v-3.2v-3.2h3.2V220v-3.2v-3.2v-3.2v-3.2v-3.2v-3.2v-3.2h3.2h3.2h3.2h3.2h3.2h3.2h3.2h3.2h3.2h3.2h3.2h3.2h3.2h3.2
		h3.2h3.2v-3.2V191v-3.2v-3.2v-3.2v-3.2v-3.2v-3.2v-3.2v-3.2V162h-3.2v-3.2h-3.2v-3.2v-3.2H467v-3.2v-3.2h-3.2v-3.2h-3.2v-3.2h-3.2
		v-3.2h-3.2h-3.2V133h-3.2h-3.2h-3.2h-3.2h-3.2v3.2h-3.2h-3.2v3.2H425h-3.2v3.2h-3.2v3.2v3.2h-3.2v3.2h-3.2v3.2h-3.2v3.2v3.2h-3.2
		v3.2v3.2h-3.2v3.2v3.2v3.2v3.2v3.2v3.2v3.2h-3.2v3.2v3.2v3.2v3.2v3.2H396v3.2v3.2v3.2v3.2v3.2v3.2v3.2v3.2v3.2h3.2v3.2v3.2H396
		v-3.2v-3.2h-3.2v-3.2v-3.2v-3.2h-3.2v-3.2V220h-3.2v-3.2h-3.2v-3.2v-3.2v-3.2h-3.2v-3.2v-3.2v-3.2h-3.2v-3.2V191v-3.2h-3.2v-3.2
		v-3.2h-3.2v-3.2v-3.2v-3.2H367v-3.2h-3.2v-3.2V162v-3.2h3.2v-3.2h3.2v-3.2h3.2v-3.2h3.2v-3.2v-3.2h3.2v-3.2h3.2v-3.2h3.2V133v-3.2
		h3.2v-3.2h3.2v-3.2h3.2v-3.2v-3.2h3.2v-3.2h3.2v-3.2h3.2v-3.2h3.2h3.2h3.2h3.2V104v-3.2h-3.2v-3.2v-3.2h-3.2h-3.2h-3.2h-3.2h-3.2
		H396h-3.2h-3.2h-3.2h-3.2h-3.2v3.2v3.2v3.2v3.2h3.2h3.2v3.2h3.2v-3.2V104h3.2v-3.2h-3.2h-3.2h-3.2v-3.2h3.2h3.2h3.2h3.2h3.2h3.2
		h3.2h3.2h3.2v3.2h-3.2h-3.2h-3.2h-3.2v3.2v3.2H396v3.2h-3.2v3.2h-3.2v3.2h-3.2v3.2v3.2v3.2h-3.2v3.2h-3.2v3.2h-3.2v3.2h-3.2v3.2
		h-3.2v3.2v3.2H367v3.2h-3.2v3.2v3.2h-3.2v3.2h-3.2v3.2v3.2h3.2v3.2v3.2v3.2h3.2v3.2v3.2h3.2v3.2v3.2h3.2v3.2v3.2v3.2h3.2v3.2v3.2
		v3.2h3.2v3.2v3.2h3.2v3.2v3.2h3.2v3.2v3.2h3.2v3.2v3.2h3.2v3.2v3.2h3.2v3.2v3.2v3.2h3.2v3.2v3.2v3.2h3.2h3.2v3.2h-3.2H396h-3.2
		h-3.2h-3.2h-3.2h-3.2h-3.2v-3.2v-3.2v-3.2V249h-3.2v-3.2v-3.2h-3.2v-3.2v-3.2H367v-3.2v-3.2h-3.2v-3.2v-3.2h-3.2V220v-3.2h-3.2
		v-3.2v-3.2v-3.2h-3.2v-3.2v-3.2v-3.2h-3.2v-3.2V191h-3.2v-3.2v-3.2h-3.2v-3.2v-3.2h-3.2v3.2H338v3.2v3.2v3.2v3.2v3.2v3.2v3.2v3.2
		v3.2h-3.2v3.2v3.2v3.2v3.2v3.2v3.2v3.2v3.2v3.2v3.2v3.2v3.2v3.2h-3.2v3.2v3.2h3.2h3.2h3.2h3.2h3.2v3.2h-3.2h-3.2H338h-3.2h-3.2
		h-3.2h-3.2h-3.2h-3.2h-3.2h-3.2H309h-3.2v-3.2h3.2h3.2h3.2v-3.2v-3.2V249v-3.2v-3.2h-3.2v3.2v3.2v3.2v3.2H309h-3.2h-3.2v3.2v3.2
		h-3.2v3.2h3.2h3.2v3.2h3.2h3.2h3.2h3.2h3.2h3.2h3.2h3.2h3.2h3.2h3.2h3.2h3.2h3.2h3.2v-3.2v-3.2h-3.2v-3.2v-3.2h-3.2h-3.2h-3.2v-3.2
		V249v-3.2v-3.2v-3.2v-3.2v-3.2v-3.2v-3.2v-3.2h3.2V220v-3.2v-3.2v-3.2v-3.2v-3.2v-3.2v-3.2v-3.2h3.2v3.2v3.2h3.2v3.2v3.2v3.2h3.2
		v3.2v3.2v3.2h3.2v3.2v3.2h3.2v3.2v3.2h3.2v3.2v3.2h3.2v3.2v3.2h3.2v3.2v3.2h3.2v3.2v3.2v3.2v3.2h3.2h3.2h3.2v3.2h3.2h3.2h3.2h3.2
		h3.2h3.2h3.2h3.2v-3.2v-3.2h3.2v3.2h3.2h3.2v3.2h3.2h3.2v3.2h3.2h3.2h3.2h3.2h3.2h3.2h3.2v-3.2h3.2v-3.2h3.2v-3.2h3.2v-3.2h3.2
		v-3.2h3.2V252.3z M399.3,245.8h3.2v3.2h-3.2V245.8z M405.7,258.7v-3.2h-3.2v-3.2h3.2v3.2h3.2v3.2H405.7z M454.1,255.5v3.2h-3.2
		h-3.2v3.2h-3.2v3.2h-3.2h-3.2h-3.2v3.2h-3.2v-3.2h-3.2H425h-3.2v-3.2h-3.2h-3.2v-3.2h-3.2v-3.2v-3.2h-3.2V249h-3.2v-3.2v-3.2h-3.2
		v-3.2v-3.2v-3.2h-3.2v-3.2v-3.2v-3.2V220v-3.2v-3.2v-3.2h3.2v-3.2v-3.2v-3.2v-3.2v-3.2h3.2V191v-3.2v-3.2v-3.2v-3.2v-3.2v-3.2h3.2
		v-3.2v-3.2h3.2V162v-3.2h3.2v-3.2h3.2v-3.2h3.2v-3.2v-3.2h3.2v-3.2h3.2h3.2v-3.2h3.2h3.2v-3.2h3.2h3.2h3.2v3.2h3.2h3.2v3.2h3.2v3.2
		h3.2v3.2h3.2v3.2v3.2h3.2v3.2v3.2v3.2h3.2v3.2v3.2v3.2v3.2v3.2v3.2v3.2v3.2H467h-3.2h-3.2h-3.2h-3.2h-3.2h-3.2h-3.2h-3.2h-3.2h-3.2
		h-3.2h-3.2H425h-3.2h-3.2v3.2v3.2v3.2v3.2v3.2v3.2v3.2v3.2v3.2h-3.2v3.2v3.2v3.2v3.2v3.2v3.2v3.2h3.2v3.2v3.2h3.2v3.2v3.2h3.2v3.2
		h3.2h3.2v3.2h3.2v-3.2h3.2h3.2h3.2v-3.2h3.2v-3.2h3.2V249h3.2v-3.2h3.2v-3.2v-3.2v-3.2h3.2v-3.2v-3.2v-3.2h3.2v-3.2V220h3.2v3.2
		v3.2v3.2h-3.2v3.2v3.2v3.2v3.2h-3.2v3.2v3.2h-3.2v3.2v3.2H454.1z"/>
	<path class="st0" d="M425,184.6h3.2h3.2h3.2h3.2h3.2h3.2h3.2h3.2h3.2v-3.2v-3.2v-3.2v-3.2v-3.2v-3.2V162v-3.2v-3.2v-3.2h-3.2v-3.2
		v-3.2h-3.2v-3.2h-3.2h-3.2h-3.2v3.2h-3.2v3.2h-3.2v3.2h-3.2v3.2v3.2v3.2H425v3.2v3.2h-3.2v3.2v3.2v3.2h-3.2v3.2v3.2h3.2H425z
		 M431.5,168.4v-3.2V162h3.2v-3.2v-3.2h3.2v-3.2h3.2v-3.2h3.2h3.2v3.2v3.2h3.2v3.2v3.2v3.2v3.2v3.2v3.2v3.2v3.2h-3.2h-3.2h-3.2h-3.2
		h-3.2h-3.2h-3.2v-3.2v-3.2v-3.2v-3.2H431.5z"/>
	<rect x="383.1" y="110.4" class="st0" width="3.2" height="3.2"/>
	<polygon class="st0" points="383.1,116.9 383.1,113.6 379.9,113.6 379.9,116.9 379.9,120.1 383.1,120.1 	"/>
	<rect x="376.7" y="120.1" class="st0" width="3.2" height="3.2"/>
	<rect x="373.5" y="123.3" class="st0" width="3.2" height="3.2"/>
	<polygon class="st0" points="370.2,133 373.5,133 373.5,129.8 373.5,126.5 370.2,126.5 370.2,129.8 367,129.8 367,133 367,136.2 
		370.2,136.2 	"/>
	<rect x="363.8" y="136.2" class="st0" width="3.2" height="3.2"/>
	<polygon class="st0" points="363.8,142.6 363.8,139.4 360.6,139.4 360.6,142.6 360.6,145.9 363.8,145.9 	"/>
	<rect x="357.3" y="145.9" class="st0" width="3.2" height="3.2"/>
	<polygon class="st0" points="321.9,197.5 321.9,194.2 321.9,191 321.9,187.8 321.9,184.6 321.9,181.3 321.9,178.1 321.9,174.9 
		321.9,171.7 321.9,168.4 321.9,165.2 325.1,165.2 325.1,162 325.1,158.8 325.1,155.5 325.1,152.3 325.1,149.1 325.1,145.9 
		325.1,142.6 325.1,139.4 325.1,136.2 325.1,133 325.1,129.8 325.1,126.5 328.3,126.5 328.3,123.3 328.3,120.1 328.3,116.9 
		328.3,113.6 328.3,110.4 328.3,107.2 328.3,104 328.3,100.7 325.1,100.7 321.9,100.7 318.7,100.7 318.7,97.5 321.9,97.5 
		325.1,97.5 328.3,97.5 331.6,97.5 334.8,97.5 338,97.5 341.2,97.5 344.4,97.5 347.7,97.5 350.9,97.5 354.1,97.5 357.3,97.5 
		360.6,97.5 360.6,100.7 357.3,100.7 354.1,100.7 350.9,100.7 347.7,100.7 347.7,104 347.7,107.2 347.7,110.4 347.7,113.6 
		347.7,116.9 347.7,120.1 347.7,123.3 347.7,126.5 347.7,129.8 347.7,133 347.7,136.2 344.4,136.2 344.4,139.4 344.4,142.6 
		344.4,145.9 344.4,149.1 344.4,152.3 344.4,155.5 341.2,155.5 341.2,158.8 341.2,162 341.2,165.2 341.2,168.4 344.4,168.4 
		344.4,165.2 347.7,165.2 347.7,162 350.9,162 350.9,158.8 354.1,158.8 354.1,155.5 357.3,155.5 357.3,152.3 357.3,149.1 
		354.1,149.1 354.1,152.3 350.9,152.3 350.9,149.1 350.9,145.9 350.9,142.6 350.9,139.4 354.1,139.4 354.1,136.2 354.1,133 
		354.1,129.8 354.1,126.5 354.1,123.3 354.1,120.1 354.1,116.9 354.1,113.6 354.1,110.4 354.1,107.2 357.3,107.2 360.6,107.2 
		363.8,107.2 367,107.2 367,104 367,100.7 363.8,100.7 363.8,97.5 363.8,94.3 360.6,94.3 357.3,94.3 354.1,94.3 350.9,94.3 
		347.7,94.3 344.4,94.3 341.2,94.3 338,94.3 334.8,94.3 331.6,94.3 328.3,94.3 325.1,94.3 321.9,94.3 318.7,94.3 315.4,94.3 
		315.4,97.5 315.4,100.7 315.4,104 318.7,104 318.7,107.2 321.9,107.2 325.1,107.2 325.1,110.4 325.1,113.6 325.1,116.9 
		325.1,120.1 325.1,123.3 321.9,123.3 321.9,126.5 321.9,129.8 321.9,133 321.9,136.2 321.9,139.4 321.9,142.6 321.9,145.9 
		321.9,149.1 321.9,152.3 321.9,155.5 321.9,158.8 321.9,162 318.7,162 318.7,165.2 318.7,168.4 318.7,171.7 318.7,174.9 
		318.7,178.1 318.7,181.3 318.7,184.6 318.7,187.8 318.7,191 318.7,194.2 318.7,197.5 318.7,200.7 321.9,200.7 	"/>
	<polygon class="st0" points="318.7,239.4 318.7,236.1 318.7,232.9 318.7,229.7 318.7,226.5 318.7,223.2 318.7,220 318.7,216.8 
		318.7,213.6 318.7,210.3 318.7,207.1 318.7,203.9 318.7,200.7 315.4,200.7 315.4,203.9 315.4,207.1 315.4,210.3 315.4,213.6 
		315.4,216.8 315.4,220 315.4,223.2 315.4,226.5 315.4,229.7 315.4,232.9 315.4,236.1 315.4,239.4 315.4,242.6 318.7,242.6 	"/>
	<polygon class="st0" points="299.3,242.6 299.3,239.4 302.5,239.4 302.5,236.1 302.5,232.9 302.5,229.7 305.8,229.7 305.8,226.5 
		305.8,223.2 305.8,220 309,220 309,216.8 309,213.6 309,210.3 309,207.1 309,203.9 309,200.7 309,197.5 309,194.2 309,191 
		309,187.8 309,184.6 309,181.3 309,178.1 309,174.9 309,171.7 309,168.4 309,165.2 309,162 305.8,162 305.8,158.8 305.8,155.5 
		302.5,155.5 302.5,152.3 299.3,152.3 299.3,149.1 299.3,145.9 296.1,145.9 296.1,142.6 292.9,142.6 292.9,139.4 289.6,139.4 
		289.6,136.2 286.4,136.2 283.2,136.2 283.2,139.4 286.4,139.4 286.4,142.6 289.6,142.6 289.6,145.9 292.9,145.9 292.9,149.1 
		296.1,149.1 296.1,152.3 296.1,155.5 299.3,155.5 299.3,158.8 299.3,162 299.3,165.2 302.5,165.2 302.5,168.4 302.5,171.7 
		302.5,174.9 302.5,178.1 302.5,181.3 302.5,184.6 302.5,187.8 302.5,191 302.5,194.2 302.5,197.5 302.5,200.7 302.5,203.9 
		302.5,207.1 302.5,210.3 302.5,213.6 299.3,213.6 299.3,216.8 299.3,220 299.3,223.2 299.3,226.5 296.1,226.5 296.1,229.7 
		296.1,232.9 296.1,236.1 292.9,236.1 292.9,239.4 292.9,242.6 289.6,242.6 289.6,245.8 286.4,245.8 286.4,249 286.4,252.3 
		283.2,252.3 283.2,255.5 280,255.5 280,258.7 280,261.9 276.7,261.9 273.5,261.9 273.5,265.2 270.3,265.2 267.1,265.2 267.1,268.4 
		263.9,268.4 260.6,268.4 260.6,265.2 257.4,265.2 254.2,265.2 251,265.2 251,261.9 251,258.7 247.7,258.7 247.7,255.5 244.5,255.5 
		244.5,258.7 244.5,261.9 247.7,261.9 247.7,265.2 247.7,268.4 251,268.4 251,271.6 254.2,271.6 257.4,271.6 260.6,271.6 
		263.9,271.6 267.1,271.6 270.3,271.6 273.5,271.6 273.5,268.4 276.7,268.4 276.7,265.2 280,265.2 283.2,265.2 283.2,261.9 
		286.4,261.9 286.4,258.7 289.6,258.7 289.6,255.5 292.9,255.5 292.9,252.3 292.9,249 296.1,249 296.1,245.8 299.3,245.8 	"/>
	<path class="st0" d="M263.9,145.9v3.2h-3.2v3.2v3.2h-3.2v3.2v3.2v3.2v3.2h-3.2v3.2v3.2v3.2H251v3.2v3.2v3.2v3.2v3.2v3.2h-3.2v3.2
		v3.2v3.2v3.2v3.2v3.2v3.2v3.2v3.2v3.2v3.2v3.2v3.2v3.2v3.2v3.2h3.2v3.2v3.2h3.2v3.2v3.2h3.2h3.2h3.2h3.2v-3.2h3.2v-3.2h3.2v-3.2
		h3.2V249v-3.2h3.2v-3.2v-3.2v-3.2h3.2v-3.2v-3.2v-3.2h3.2v-3.2V220v-3.2v-3.2v-3.2v-3.2v-3.2v-3.2v-3.2v-3.2V191v-3.2v-3.2v-3.2
		v-3.2v-3.2v-3.2v-3.2v-3.2V162v-3.2h-3.2v-3.2v-3.2v-3.2H280v-3.2h-3.2v-3.2h-3.2h-3.2h-3.2v3.2H263.9z M270.3,149.1h3.2h3.2v3.2
		h3.2v3.2v3.2v3.2h3.2v3.2v3.2v3.2v3.2v3.2v3.2v3.2v3.2v3.2v3.2v3.2v3.2v3.2v3.2v3.2v3.2v3.2v3.2v3.2H280v3.2v3.2v3.2h-3.2v3.2v3.2
		v3.2h-3.2v3.2v3.2h-3.2v3.2h-3.2v3.2h-3.2v3.2h-3.2v-3.2h-3.2v-3.2V249h-3.2v-3.2v-3.2v-3.2v-3.2v-3.2v-3.2v-3.2v-3.2V220v-3.2
		v-3.2v-3.2v-3.2v-3.2v-3.2v-3.2h3.2v-3.2V191v-3.2v-3.2v-3.2v-3.2v-3.2h3.2v-3.2v-3.2h3.2v-3.2V162v-3.2v-3.2h3.2v-3.2v-3.2H270.3z
		"/>
	<polygon class="st0" points="241.3,252.3 241.3,249 238.1,249 238.1,252.3 238.1,255.5 234.8,255.5 234.8,258.7 234.8,261.9 
		231.6,261.9 231.6,258.7 231.6,255.5 231.6,252.3 231.6,249 231.6,245.8 231.6,242.6 231.6,239.4 231.6,236.1 228.4,236.1 
		228.4,239.4 228.4,242.6 228.4,245.8 228.4,249 228.4,252.3 228.4,255.5 228.4,258.7 228.4,261.9 228.4,265.2 231.6,265.2 
		231.6,268.4 234.8,268.4 238.1,268.4 238.1,265.2 241.3,265.2 241.3,261.9 241.3,258.7 241.3,255.5 244.5,255.5 244.5,252.3 	"/>
	<polygon class="st0" points="244.5,120.1 244.5,116.9 244.5,113.6 244.5,110.4 244.5,107.2 244.5,104 241.3,104 238.1,104 
		234.8,104 234.8,100.7 238.1,100.7 241.3,100.7 244.5,100.7 247.7,100.7 251,100.7 254.2,100.7 257.4,100.7 257.4,104 257.4,107.2 
		257.4,110.4 257.4,113.6 257.4,116.9 257.4,120.1 254.2,120.1 254.2,123.3 254.2,126.5 254.2,129.8 254.2,133 254.2,136.2 
		254.2,139.4 254.2,142.6 254.2,145.9 254.2,149.1 254.2,152.3 257.4,152.3 257.4,149.1 257.4,145.9 260.6,145.9 260.6,142.6 
		263.9,142.6 267.1,142.6 267.1,139.4 270.3,139.4 270.3,136.2 273.5,136.2 276.7,136.2 280,136.2 283.2,136.2 283.2,133 280,133 
		276.7,133 273.5,133 270.3,133 267.1,133 267.1,136.2 263.9,136.2 263.9,139.4 260.6,139.4 260.6,136.2 260.6,133 260.6,129.8 
		260.6,126.5 260.6,123.3 263.9,123.3 263.9,120.1 263.9,116.9 263.9,113.6 263.9,110.4 263.9,107.2 263.9,104 263.9,100.7 
		260.6,100.7 260.6,97.5 257.4,97.5 254.2,97.5 251,97.5 247.7,97.5 244.5,97.5 241.3,97.5 238.1,97.5 234.8,97.5 231.6,97.5 
		231.6,100.7 231.6,104 231.6,107.2 234.8,107.2 234.8,110.4 238.1,110.4 241.3,110.4 241.3,113.6 241.3,116.9 241.3,120.1 
		241.3,123.3 244.5,123.3 	"/>
	<polygon class="st0" points="238.1,194.2 238.1,191 238.1,187.8 238.1,184.6 238.1,181.3 238.1,178.1 238.1,174.9 238.1,171.7 
		238.1,168.4 238.1,165.2 238.1,162 238.1,158.8 241.3,158.8 241.3,155.5 241.3,152.3 241.3,149.1 241.3,145.9 241.3,142.6 
		241.3,139.4 241.3,136.2 241.3,133 241.3,129.8 241.3,126.5 241.3,123.3 238.1,123.3 238.1,126.5 238.1,129.8 238.1,133 
		238.1,136.2 238.1,139.4 238.1,142.6 238.1,145.9 238.1,149.1 238.1,152.3 238.1,155.5 234.8,155.5 234.8,158.8 234.8,162 
		234.8,165.2 234.8,168.4 234.8,171.7 234.8,174.9 234.8,178.1 234.8,181.3 234.8,184.6 234.8,187.8 234.8,191 234.8,194.2 
		234.8,197.5 238.1,197.5 	"/>
	<polygon class="st0" points="234.8,232.9 234.8,229.7 234.8,226.5 234.8,223.2 234.8,220 234.8,216.8 234.8,213.6 234.8,210.3 
		234.8,207.1 234.8,203.9 234.8,200.7 234.8,197.5 231.6,197.5 231.6,200.7 231.6,203.9 231.6,207.1 231.6,210.3 231.6,213.6 
		231.6,216.8 231.6,220 231.6,223.2 231.6,226.5 231.6,229.7 231.6,232.9 231.6,236.1 234.8,236.1 	"/>
	<polygon class="st0" points="221.9,139.4 218.7,139.4 215.5,139.4 212.3,139.4 209,139.4 205.8,139.4 202.6,139.4 199.4,139.4 
		196.2,139.4 192.9,139.4 189.7,139.4 189.7,142.6 189.7,145.9 189.7,149.1 192.9,149.1 196.2,149.1 196.2,152.3 199.4,152.3 
		202.6,152.3 202.6,155.5 202.6,158.8 205.8,158.8 205.8,155.5 205.8,152.3 205.8,149.1 205.8,145.9 202.6,145.9 199.4,145.9 
		196.2,145.9 192.9,145.9 192.9,142.6 196.2,142.6 199.4,142.6 202.6,142.6 205.8,142.6 209,142.6 212.3,142.6 215.5,142.6 
		218.7,142.6 218.7,145.9 218.7,149.1 218.7,152.3 218.7,155.5 218.7,158.8 218.7,162 215.5,162 215.5,165.2 215.5,168.4 
		215.5,171.7 215.5,174.9 215.5,178.1 215.5,181.3 215.5,184.6 215.5,187.8 215.5,191 215.5,194.2 212.3,194.2 212.3,197.5 
		212.3,200.7 212.3,203.9 212.3,207.1 212.3,210.3 212.3,213.6 212.3,216.8 212.3,220 212.3,223.2 212.3,226.5 212.3,229.7 
		209,229.7 209,232.9 209,236.1 209,239.4 209,242.6 209,245.8 209,249 209,252.3 209,255.5 209,258.7 212.3,258.7 215.5,258.7 
		218.7,258.7 218.7,261.9 215.5,261.9 212.3,261.9 209,261.9 205.8,261.9 202.6,261.9 199.4,261.9 196.2,261.9 192.9,261.9 
		192.9,258.7 192.9,255.5 189.7,255.5 189.7,258.7 186.5,258.7 183.3,258.7 183.3,261.9 180,261.9 180,265.2 176.8,265.2 
		173.6,265.2 170.4,265.2 167.1,265.2 163.9,265.2 160.7,265.2 160.7,268.4 163.9,268.4 163.9,271.6 167.1,271.6 170.4,271.6 
		173.6,271.6 176.8,271.6 180,271.6 183.3,271.6 183.3,268.4 186.5,268.4 189.7,268.4 189.7,265.2 192.9,265.2 196.2,265.2 
		196.2,268.4 199.4,268.4 202.6,268.4 205.8,268.4 209,268.4 212.3,268.4 215.5,268.4 218.7,268.4 221.9,268.4 225.2,268.4 
		225.2,265.2 225.2,261.9 225.2,258.7 221.9,258.7 221.9,255.5 218.7,255.5 215.5,255.5 215.5,252.3 215.5,249 215.5,245.8 
		215.5,242.6 215.5,239.4 215.5,236.1 215.5,232.9 215.5,229.7 218.7,229.7 218.7,226.5 218.7,223.2 218.7,220 218.7,216.8 
		218.7,213.6 218.7,210.3 218.7,207.1 218.7,203.9 218.7,200.7 218.7,197.5 218.7,194.2 221.9,194.2 221.9,191 221.9,187.8 
		221.9,184.6 221.9,181.3 221.9,178.1 221.9,174.9 221.9,171.7 221.9,168.4 221.9,165.2 225.2,165.2 225.2,162 225.2,158.8 
		225.2,155.5 225.2,152.3 225.2,149.1 225.2,145.9 225.2,142.6 221.9,142.6 	"/>
	<polygon class="st0" points="202.6,187.8 202.6,184.6 202.6,181.3 202.6,178.1 202.6,174.9 202.6,171.7 202.6,168.4 202.6,165.2 
		202.6,162 202.6,158.8 199.4,158.8 199.4,162 199.4,165.2 199.4,168.4 199.4,171.7 199.4,174.9 199.4,178.1 199.4,181.3 
		199.4,184.6 199.4,187.8 199.4,191 202.6,191 	"/>
	<polygon class="st0" points="199.4,223.2 199.4,220 199.4,216.8 199.4,213.6 199.4,210.3 199.4,207.1 199.4,203.9 199.4,200.7 
		199.4,197.5 199.4,194.2 199.4,191 196.2,191 196.2,194.2 196.2,197.5 196.2,200.7 196.2,203.9 196.2,207.1 196.2,210.3 
		196.2,213.6 196.2,216.8 196.2,220 196.2,223.2 196.2,226.5 199.4,226.5 	"/>
	<rect x="192.9" y="252.3" class="st0" width="3.2" height="3.2"/>
	<polygon class="st0" points="186.5,255.5 186.5,252.3 189.7,252.3 189.7,249 189.7,245.8 192.9,245.8 192.9,242.6 196.2,242.6 
		196.2,239.4 196.2,236.1 196.2,232.9 196.2,229.7 196.2,226.5 192.9,226.5 192.9,229.7 192.9,232.9 192.9,236.1 192.9,239.4 
		189.7,239.4 189.7,242.6 186.5,242.6 186.5,245.8 186.5,249 183.3,249 183.3,252.3 180,252.3 180,255.5 183.3,255.5 	"/>
	<polygon class="st0" points="173.6,258.7 176.8,258.7 180,258.7 180,255.5 176.8,255.5 173.6,255.5 170.4,255.5 170.4,258.7 	"/>
	<polygon class="st0" points="170.4,162 170.4,165.2 170.4,168.4 170.4,171.7 170.4,174.9 170.4,178.1 170.4,181.3 170.4,184.6 
		170.4,187.8 170.4,191 170.4,194.2 170.4,197.5 173.6,197.5 173.6,194.2 173.6,191 173.6,187.8 176.8,187.8 176.8,184.6 
		176.8,181.3 176.8,178.1 173.6,178.1 173.6,174.9 173.6,171.7 173.6,168.4 173.6,165.2 173.6,162 173.6,158.8 170.4,158.8 	"/>
	<polygon class="st0" points="167.1,200.7 167.1,203.9 167.1,207.1 167.1,210.3 167.1,213.6 167.1,216.8 167.1,220 167.1,223.2 
		167.1,226.5 167.1,229.7 167.1,232.9 167.1,236.1 163.9,236.1 163.9,239.4 163.9,242.6 163.9,245.8 167.1,245.8 167.1,249 
		167.1,252.3 167.1,255.5 170.4,255.5 170.4,252.3 170.4,249 170.4,245.8 170.4,242.6 170.4,239.4 170.4,236.1 170.4,232.9 
		170.4,229.7 170.4,226.5 170.4,223.2 170.4,220 170.4,216.8 170.4,213.6 173.6,213.6 173.6,210.3 173.6,207.1 173.6,203.9 
		170.4,203.9 170.4,200.7 170.4,197.5 167.1,197.5 	"/>
	<polygon class="st0" points="157.5,261.9 157.5,258.7 154.2,258.7 154.2,255.5 154.2,252.3 151,252.3 151,255.5 151,258.7 
		151,261.9 154.2,261.9 154.2,265.2 157.5,265.2 160.7,265.2 160.7,261.9 	"/>
	<polygon class="st0" points="157.5,181.3 157.5,178.1 157.5,174.9 157.5,171.7 157.5,168.4 157.5,165.2 157.5,162 157.5,158.8 
		157.5,155.5 157.5,152.3 157.5,149.1 157.5,145.9 154.2,145.9 151,145.9 151,142.6 154.2,142.6 157.5,142.6 160.7,142.6 
		163.9,142.6 167.1,142.6 170.4,142.6 173.6,142.6 173.6,145.9 173.6,149.1 173.6,152.3 173.6,155.5 173.6,158.8 176.8,158.8 
		176.8,155.5 176.8,152.3 176.8,149.1 176.8,145.9 176.8,142.6 176.8,139.4 173.6,139.4 170.4,139.4 167.1,139.4 163.9,139.4 
		160.7,139.4 157.5,139.4 154.2,139.4 151,139.4 151,136.2 151,133 151,129.8 151,126.5 147.8,126.5 147.8,123.3 147.8,120.1 
		147.8,116.9 144.6,116.9 144.6,113.6 141.3,113.6 141.3,110.4 138.1,110.4 138.1,107.2 134.9,107.2 134.9,110.4 134.9,113.6 
		138.1,113.6 138.1,116.9 138.1,120.1 141.3,120.1 141.3,123.3 141.3,126.5 141.3,129.8 141.3,133 144.6,133 144.6,136.2 
		144.6,139.4 141.3,139.4 141.3,142.6 141.3,145.9 141.3,149.1 141.3,152.3 141.3,155.5 138.1,155.5 138.1,158.8 138.1,162 
		134.9,162 134.9,165.2 131.7,165.2 131.7,168.4 128.4,168.4 128.4,171.7 125.2,171.7 125.2,174.9 122,174.9 122,178.1 118.8,178.1 
		115.6,178.1 112.3,178.1 112.3,181.3 109.1,181.3 105.9,181.3 102.7,181.3 99.4,181.3 96.2,181.3 93,181.3 89.8,181.3 86.5,181.3 
		83.3,181.3 80.1,181.3 80.1,184.6 80.1,187.8 80.1,191 80.1,194.2 80.1,197.5 80.1,200.7 76.9,200.7 76.9,203.9 76.9,207.1 
		76.9,210.3 76.9,213.6 76.9,216.8 76.9,220 76.9,223.2 76.9,226.5 76.9,229.7 76.9,232.9 76.9,236.1 73.6,236.1 73.6,239.4 
		73.6,242.6 73.6,245.8 73.6,249 73.6,252.3 73.6,255.5 73.6,258.7 76.9,258.7 80.1,258.7 83.3,258.7 86.5,258.7 89.8,258.7 
		89.8,261.9 86.5,261.9 83.3,261.9 80.1,261.9 76.9,261.9 73.6,261.9 70.4,261.9 67.2,261.9 64,261.9 60.7,261.9 57.5,261.9 
		54.3,261.9 51.1,261.9 47.9,261.9 44.6,261.9 44.6,258.7 41.4,258.7 41.4,261.9 41.4,265.2 44.6,265.2 47.9,265.2 47.9,268.4 
		51.1,268.4 54.3,268.4 57.5,268.4 60.7,268.4 64,268.4 67.2,268.4 70.4,268.4 73.6,268.4 76.9,268.4 80.1,268.4 83.3,268.4 
		86.5,268.4 89.8,268.4 93,268.4 96.2,268.4 96.2,265.2 96.2,261.9 93,261.9 93,258.7 93,255.5 89.8,255.5 86.5,255.5 83.3,255.5 
		80.1,255.5 80.1,252.3 80.1,249 80.1,245.8 80.1,242.6 80.1,239.4 83.3,239.4 83.3,236.1 83.3,232.9 83.3,229.7 83.3,226.5 
		83.3,223.2 83.3,220 83.3,216.8 83.3,213.6 83.3,210.3 83.3,207.1 86.5,207.1 86.5,203.9 86.5,200.7 86.5,197.5 86.5,194.2 
		86.5,191 86.5,187.8 89.8,187.8 93,187.8 96.2,187.8 99.4,187.8 102.7,187.8 105.9,187.8 109.1,187.8 112.3,187.8 115.6,187.8 
		118.8,187.8 122,187.8 125.2,187.8 125.2,184.6 128.4,184.6 128.4,181.3 131.7,181.3 131.7,178.1 134.9,178.1 134.9,174.9 
		138.1,174.9 138.1,171.7 141.3,171.7 141.3,168.4 141.3,165.2 144.6,165.2 144.6,162 144.6,158.8 144.6,155.5 147.8,155.5 
		147.8,152.3 147.8,149.1 151,149.1 151,152.3 154.2,152.3 154.2,155.5 154.2,158.8 154.2,162 154.2,165.2 154.2,168.4 154.2,171.7 
		154.2,174.9 154.2,178.1 154.2,181.3 154.2,184.6 157.5,184.6 	"/>
	<polygon class="st0" points="154.2,213.6 154.2,210.3 154.2,207.1 154.2,203.9 154.2,200.7 154.2,197.5 154.2,194.2 154.2,191 
		154.2,187.8 154.2,184.6 151,184.6 151,187.8 151,191 151,194.2 151,197.5 151,200.7 151,203.9 151,207.1 151,210.3 151,213.6 
		151,216.8 154.2,216.8 	"/>
	<polygon class="st0" points="151,245.8 151,242.6 151,239.4 151,236.1 151,232.9 151,229.7 151,226.5 151,223.2 151,220 151,216.8 
		147.8,216.8 147.8,220 147.8,223.2 147.8,226.5 147.8,229.7 147.8,232.9 147.8,236.1 147.8,239.4 147.8,242.6 147.8,245.8 
		147.8,249 147.8,252.3 151,252.3 151,249 	"/>
	<polygon class="st0" points="128.4,104 128.4,107.2 131.7,107.2 134.9,107.2 134.9,104 131.7,104 131.7,100.7 128.4,100.7 
		125.2,100.7 125.2,104 	"/>
	<polygon class="st0" points="122,120.1 122,123.3 122,126.5 122,129.8 122,133 122,136.2 122,139.4 122,142.6 122,145.9 122,149.1 
		122,152.3 122,155.5 125.2,155.5 125.2,152.3 125.2,149.1 125.2,145.9 125.2,142.6 125.2,139.4 125.2,136.2 125.2,133 125.2,129.8 
		125.2,126.5 125.2,123.3 125.2,120.1 125.2,116.9 125.2,113.6 122,113.6 122,116.9 	"/>
	<polygon class="st0" points="118.8,158.8 118.8,162 118.8,165.2 122,165.2 122,162 122,158.8 122,155.5 118.8,155.5 	"/>
	<rect x="118.8" y="110.4" class="st0" width="3.2" height="3.2"/>
	<polygon class="st0" points="115.6,168.4 112.3,168.4 112.3,171.7 109.1,171.7 109.1,174.9 112.3,174.9 115.6,174.9 115.6,171.7 
		118.8,171.7 118.8,168.4 118.8,165.2 115.6,165.2 	"/>
	<polygon class="st0" points="118.8,100.7 122,100.7 125.2,100.7 125.2,97.5 122,97.5 118.8,97.5 115.6,97.5 115.6,100.7 	"/>
	<polygon class="st0" points="86.5,178.1 89.8,178.1 93,178.1 96.2,178.1 99.4,178.1 102.7,178.1 105.9,178.1 109.1,178.1 
		109.1,174.9 105.9,174.9 102.7,174.9 99.4,174.9 96.2,174.9 93,174.9 89.8,174.9 86.5,174.9 86.5,171.7 86.5,168.4 86.5,165.2 
		86.5,162 86.5,158.8 86.5,155.5 86.5,152.3 86.5,149.1 86.5,145.9 89.8,145.9 89.8,142.6 89.8,139.4 89.8,136.2 89.8,133 
		89.8,129.8 89.8,126.5 89.8,123.3 89.8,120.1 89.8,116.9 89.8,113.6 89.8,110.4 93,110.4 96.2,110.4 99.4,110.4 102.7,110.4 
		105.9,110.4 109.1,110.4 112.3,110.4 115.6,110.4 118.8,110.4 118.8,107.2 115.6,107.2 115.6,104 112.3,104 109.1,104 105.9,104 
		102.7,104 99.4,104 96.2,104 93,104 89.8,104 86.5,104 86.5,107.2 86.5,110.4 86.5,113.6 83.3,113.6 83.3,116.9 83.3,120.1 
		83.3,123.3 83.3,126.5 83.3,129.8 83.3,133 83.3,136.2 83.3,139.4 83.3,142.6 83.3,145.9 80.1,145.9 80.1,149.1 80.1,152.3 
		80.1,155.5 80.1,158.8 80.1,162 80.1,165.2 80.1,168.4 80.1,171.7 80.1,174.9 80.1,178.1 83.3,178.1 	"/>
	<polygon class="st0" points="67.2,145.9 67.2,142.6 67.2,139.4 67.2,136.2 67.2,133 67.2,129.8 67.2,126.5 67.2,123.3 67.2,120.1 
		67.2,116.9 67.2,113.6 67.2,110.4 67.2,107.2 67.2,104 67.2,100.7 64,100.7 60.7,100.7 57.5,100.7 57.5,97.5 60.7,97.5 64,97.5 
		67.2,97.5 70.4,97.5 73.6,97.5 76.9,97.5 80.1,97.5 83.3,97.5 86.5,97.5 89.8,97.5 93,97.5 96.2,97.5 99.4,97.5 102.7,97.5 
		105.9,97.5 109.1,97.5 112.3,97.5 115.6,97.5 115.6,94.3 112.3,94.3 109.1,94.3 105.9,94.3 102.7,94.3 99.4,94.3 96.2,94.3 
		93,94.3 89.8,94.3 86.5,94.3 83.3,94.3 80.1,94.3 76.9,94.3 73.6,94.3 70.4,94.3 67.2,94.3 64,94.3 60.7,94.3 57.5,94.3 54.3,94.3 
		54.3,97.5 54.3,100.7 54.3,104 57.5,104 57.5,107.2 60.7,107.2 64,107.2 64,110.4 64,113.6 64,116.9 64,120.1 64,123.3 64,126.5 
		64,129.8 64,133 64,136.2 64,139.4 64,142.6 64,145.9 64,149.1 67.2,149.1 	"/>
	<polygon class="st0" points="64,181.3 64,178.1 64,174.9 64,171.7 64,168.4 64,165.2 64,162 64,158.8 64,155.5 64,152.3 64,149.1 
		60.7,149.1 60.7,152.3 60.7,155.5 60.7,158.8 60.7,162 60.7,165.2 60.7,168.4 60.7,171.7 60.7,174.9 60.7,178.1 60.7,181.3 
		60.7,184.6 64,184.6 	"/>
	<polygon class="st0" points="60.7,220 60.7,216.8 60.7,213.6 60.7,210.3 60.7,207.1 60.7,203.9 60.7,200.7 60.7,197.5 60.7,194.2 
		60.7,191 60.7,187.8 60.7,184.6 57.5,184.6 57.5,187.8 57.5,191 57.5,194.2 57.5,197.5 57.5,200.7 57.5,203.9 57.5,207.1 
		57.5,210.3 57.5,213.6 57.5,216.8 57.5,220 57.5,223.2 60.7,223.2 	"/>
	<polygon class="st0" points="57.5,249 57.5,245.8 57.5,242.6 57.5,239.4 57.5,236.1 57.5,232.9 57.5,229.7 57.5,226.5 57.5,223.2 
		54.3,223.2 54.3,226.5 54.3,229.7 54.3,232.9 54.3,236.1 54.3,239.4 54.3,242.6 54.3,245.8 54.3,249 54.3,252.3 57.5,252.3 	"/>
	<polygon class="st0" points="51.1,258.7 54.3,258.7 54.3,255.5 54.3,252.3 51.1,252.3 51.1,255.5 47.9,255.5 44.6,255.5 
		44.6,258.7 47.9,258.7 	"/>
</g>
<polygon class="st4" points="359.8,813.1 359.8,807.4 366.2,807.4 366.2,797.7 363,796.1 356.5,794.5 354.9,796.9 350.1,796.9 
	350.1,784.8 345.3,784.8 324.3,784.1 322.7,796.1 317.9,800 316.2,803.2 329.1,803.2 338,809 337.2,815.4 332.4,821 317.3,834.8 
	317.3,836.4 316.2,836.4 316.2,842.8 338.8,842.8 341.6,841.2 346.9,839.6 349.3,836.4 351.7,838 353.3,834.8 358.7,833.1 
	361.3,830.5 372.7,829.9 373.6,827.6 376.9,826.7 382.3,821.9 382.3,814.4 "/>
<g>
	<path class="st4" d="M565.3,673.2h-3.2V670v-3.2v-3.2h-3.2v-3.2h-3.2h-3.2h-3.2v-3.2v-3.2v-3.2h-3.2v-3.2v-3.2V641v-3.2v-3.2v-3.2
		v-3.2v-3.2h-3.2v-3.2v-3.2v-3.2V612v-3.2v-3.2v-3.2v-3.2v-3.2v-3.2h-3.2v3.2v3.2v3.2v3.2v3.2v3.2v3.2v3.2v3.2v3.2v3.2h3.2v3.2v3.2
		v3.2v3.2v3.2v3.2v3.2v3.2h3.2v3.2v3.2h-3.2h-3.2h-3.2v3.2H533h-3.2v-3.2h-3.2v-3.2v-3.2v-3.2h-3.2v-3.2v-3.2V641v-3.2v-3.2v-3.2
		v-3.2v-3.2v-3.2v-3.2v-3.2V612v-3.2h3.2v-3.2v-3.2v-3.2v-3.2v-3.2v-3.2v-3.2V583v-3.2v-3.2v-3.2v-3.2h-3.2v-3.2h-3.2h-3.2v3.2h3.2
		v3.2h3.2v3.2v3.2v3.2v3.2v3.2v3.2v3.2v3.2v3.2v3.2h-3.2v3.2v3.2v3.2v3.2v3.2v3.2v3.2v3.2v3.2v3.2v3.2v3.2v3.2v3.2v3.2h3.2v3.2v3.2
		v3.2h3.2v3.2h3.2v3.2v3.2v3.2v3.2h3.2h3.2v-3.2h3.2h3.2h3.2v3.2h3.2h3.2h3.2v-3.2h3.2h3.2h3.2v3.2h-3.2v3.2h-3.2h-3.2h-3.2v3.2
		h-3.2h-3.2v3.2h-3.2h-3.2h-3.2H533v-3.2h-3.2v-3.2h-3.2v-3.2v-3.2h-3.2v-3.2V670h-3.2v-3.2v-3.2h-3.2v-3.2v-3.2v-3.2v-3.2h-3.2
		v-3.2v-3.2V641v-3.2v-3.2v-3.2v-3.2v-3.2v-3.2v-3.2v-3.2V612v-3.2v-3.2v-3.2v-3.2v-3.2v-3.2v-3.2v-3.2h-3.2v3.2v3.2v3.2v3.2v3.2
		v3.2v3.2v3.2v3.2v3.2v3.2v3.2v3.2v3.2v3.2v3.2v3.2v3.2v3.2v3.2v3.2h3.2v3.2v3.2v3.2v3.2h3.2v3.2v3.2h3.2v3.2v3.2h3.2v3.2v3.2h3.2
		v3.2v3.2h3.2v3.2h3.2h3.2v3.2h3.2h3.2h3.2v-3.2v-3.2h3.2v-3.2h3.2h3.2v3.2v3.2v3.2v3.2v3.2v3.2v3.2v3.2v3.2h-3.2v3.2h-3.2v3.2h-3.2
		v3.2h-3.2v3.2h-3.2h-3.2v3.2H533v-3.2V728v-3.2v-3.2h-3.2v3.2v3.2h-3.2v3.2v3.2v3.2v3.2v3.2v3.2v3.2v3.2v3.2v3.2v3.2v3.2v3.2v3.2
		v3.2v3.2h3.2v3.2h-3.2h-3.2v3.2h-3.2v3.2h-3.2h-3.2h-3.2v3.2h-3.2H504h-3.2v3.2h-3.2h-3.2h-3.2v3.2h-3.2h-3.2v-3.2h3.2v-3.2v-3.2
		h3.2h3.2v-3.2h3.2h3.2h3.2h3.2v-3.2h3.2v-3.2h3.2v-3.2h3.2v-3.2h3.2v-3.2v-3.2v-3.2v-3.2V757v-3.2v-3.2v-3.2v-3.2v-3.2v-3.2v-3.2
		v-3.2V728v-3.2v-3.2h-3.2v3.2v3.2h-3.2v3.2v3.2h-3.2h-3.2H504h-3.2v-3.2h-3.2h-3.2V728v-3.2h-3.2v-3.2h-3.2v-3.2v-3.2h-3.2v-3.2
		h-3.2v-3.2v-3.2v-3.2h-3.2V699v-3.2v-3.2v-3.2v-3.2H475v-3.2v-3.2v-3.2v-3.2h-3.2V670v-3.2v-3.2v-3.2v-3.2v-3.2h-3.2v-3.2v-3.2
		v-3.2V641v-3.2v-3.2v-3.2h3.2v3.2v3.2h3.2v3.2h3.2v-3.2h3.2v-3.2h-3.2H475v-3.2v-3.2h-3.2v-3.2v-3.2v-3.2h3.2v-3.2V612h3.2v-3.2
		v-3.2v-3.2v-3.2H475v3.2h-3.2h-3.2v-3.2v-3.2h-3.2v-3.2h3.2h3.2v3.2v3.2h3.2v-3.2h3.2h3.2v3.2v3.2v3.2v3.2h3.2v3.2v3.2v3.2h3.2v3.2
		v3.2h-3.2v3.2h-3.2v3.2v3.2h3.2v-3.2h3.2v-3.2h3.2v-3.2v-3.2v-3.2v-3.2h-3.2V612v-3.2h3.2h3.2v-3.2h3.2h3.2v-3.2h3.2v-3.2h3.2v-3.2
		v-3.2v-3.2H504h-3.2h-3.2h-3.2v3.2h-3.2h-3.2h-3.2v-3.2h-3.2h-3.2H475h-3.2h-3.2v-3.2h-3.2V583v-3.2v-3.2v-3.2v-3.2v-3.2v-3.2v-3.2
		v-3.2v-3.2v-3.2v-3.2v-3.2V541v-3.2v-3.2v-3.2v-3.2v-3.2v-3.2v-3.2h3.2v3.2v3.2v3.2v3.2v3.2h3.2v3.2h3.2v3.2h3.2h3.2h3.2v-3.2h3.2
		v3.2h3.2h3.2h3.2h3.2v-3.2h3.2v-3.2v-3.2h-3.2v3.2h-3.2v3.2h-3.2h-3.2v-3.2h-3.2v-3.2h-3.2v-3.2v-3.2v-3.2v-3.2h3.2v-3.2V512v-3.2
		h3.2v-3.2v-3.2v-3.2h3.2v-3.2h3.2v3.2h3.2v3.2h3.2v3.2v3.2v3.2v3.2v3.2v3.2v3.2v3.2v3.2h3.2v-3.2v-3.2v-3.2v-3.2v-3.2V512v-3.2
		v-3.2v-3.2v-3.2H504v-3.2h-3.2v-3.2h-3.2h-3.2h-3.2h-3.2h-3.2h-3.2h-3.2v3.2H475v3.2h-3.2v3.2h-3.2v-3.2h3.2v-3.2v-3.2v-3.2h3.2
		v-3.2V483v-3.2v-3.2h3.2v-3.2v-3.2v-3.2v-3.2h3.2v-3.2v-3.2h3.2V454v-3.2v-3.2h3.2v-3.2v-3.2h3.2v-3.2h3.2v-3.2v-3.2h3.2v-3.2h3.2
		V425h3.2h3.2h3.2v-3.2h3.2h3.2v-3.2h3.2h3.2h3.2h3.2v3.2h3.2h3.2v3.2h3.2v3.2h3.2v3.2h3.2v-3.2h3.2h3.2h3.2V425v-3.2v-3.2v-3.2
		v-3.2h-3.2v-3.2h-3.2h-3.2v-3.2h-3.2h-3.2h-3.2H533h-3.2h-3.2h-3.2h-3.2h-3.2v3.2v3.2v3.2h-3.2v3.2h-3.2h-3.2v3.2H504h-3.2h-3.2
		v3.2h-3.2v3.2h-3.2v3.2v3.2h-3.2v3.2h-3.2v3.2v3.2h-3.2v3.2v3.2v3.2h-3.2v3.2v3.2H475v3.2v3.2v3.2v3.2h-3.2v3.2v3.2v3.2v3.2h-3.2
		v3.2v3.2v3.2h-3.2v3.2v3.2v3.2v3.2v3.2v3.2h-3.2v3.2v3.2v3.2v3.2v3.2v3.2v3.2v3.2v3.2v3.2v3.2v3.2v3.2v3.2v3.2v3.2v3.2v3.2v3.2
		h-3.2h-3.2v3.2v3.2v3.2v3.2v3.2v3.2v3.2v3.2v3.2v3.2h3.2v3.2v3.2v3.2v3.2v3.2v3.2v3.2v3.2v3.2v3.2v3.2v3.2v3.2v3.2v3.2v3.2v3.2
		h-3.2v3.2v3.2v3.2v3.2h3.2v3.2v3.2h3.2v3.2v3.2h-3.2v3.2h-3.2h-3.2v3.2h-3.2H446v3.2h-3.2v3.2v3.2v3.2v3.2v3.2v3.2v3.2v3.2v3.2
		h-3.2h-3.2v-3.2h-3.2h-3.2v-3.2h-3.2h-3.2h-3.2v-3.2h3.2v-3.2v-3.2h-3.2v-3.2h3.2v-3.2h3.2h3.2h3.2v-3.2h3.2h3.2V699h3.2v-3.2v-3.2
		v-3.2v-3.2v-3.2v-3.2v-3.2v-3.2V670v-3.2v-3.2v-3.2v-3.2v-3.2v-3.2v-3.2v-3.2h3.2V641v-3.2v-3.2v-3.2v-3.2h3.2v-3.2v-3.2v-3.2v-3.2
		V612v-3.2v-3.2v-3.2v-3.2v-3.2v-3.2v-3.2v-3.2h3.2V583v-3.2v-3.2v-3.2v-3.2v-3.2v-3.2v-3.2v-3.2h-3.2v3.2v3.2v3.2v3.2v3.2v3.2v3.2
		v3.2H446v3.2v3.2v3.2v3.2v3.2h-3.2h-3.2v3.2h-3.2h-3.2v3.2h3.2h3.2h3.2v-3.2h3.2v3.2v3.2v3.2v3.2v3.2v3.2v3.2h-3.2v3.2v3.2v3.2v3.2
		v3.2h-3.2v3.2v3.2h-3.2h-3.2h-3.2v3.2h3.2h3.2h3.2v3.2v3.2v3.2v3.2v3.2v3.2v3.2v3.2v3.2v3.2v3.2v3.2v3.2v3.2h-3.2v3.2h-3.2h-3.2
		v3.2h-3.2h-3.2h-3.2H417V699v-3.2h-3.2v-3.2h-3.2h-3.2h-3.2h-3.2h-3.2h-3.2h-3.2H388h-3.2h-3.2h-3.2v3.2h-3.2h-3.2v3.2h-3.2h-3.2
		v3.2h-3.2v3.2H359v3.2v3.2h-3.2v3.2v3.2h-3.2v3.2v3.2v3.2h3.2v3.2h-3.2h-3.2h-3.2v3.2h-3.2h-3.2h-3.2v3.2h-3.2h-3.2h-3.2h-3.2v3.2
		h-3.2H317h-3.2h-3.2v3.2h-3.2h-3.2h-3.2v3.2h-3.2h-3.2h-3.2v3.2H288h-3.2h-3.2h-3.2v3.2h-3.2v-3.2v-3.2v-3.2v-3.2v-3.2v-3.2v-3.2
		V728v-3.2v-3.2v-3.2v-3.2v-3.2v-3.2v-3.2v-3.2V699v-3.2v-3.2v-3.2v-3.2v-3.2v-3.2v-3.2v-3.2V670v-3.2v-3.2v-3.2v-3.2v-3.2v-3.2
		v-3.2v-3.2V641v-3.2h-3.2v3.2v3.2v3.2v3.2v3.2v3.2v3.2v3.2v3.2v3.2v3.2v3.2v3.2v3.2v3.2v3.2v3.2v3.2v3.2v3.2v3.2v3.2v3.2v3.2v3.2
		v3.2v3.2v3.2v3.2v3.2v3.2v3.2v3.2v3.2v3.2v3.2h-3.2v3.2h-3.2h-3.2v-3.2v-3.2v-3.2v-3.2v-3.2v-3.2v-3.2h3.2v-3.2V728v-3.2v-3.2v-3.2
		v-3.2v-3.2v-3.2v-3.2v-3.2h-3.2V699v-3.2v-3.2v-3.2v-3.2v-3.2v-3.2v-3.2v-3.2V670v-3.2v-3.2v-3.2v-3.2v-3.2v-3.2v-3.2v-3.2V641
		v-3.2H259v3.2v3.2v3.2v3.2v3.2v3.2v3.2v3.2v3.2v3.2v3.2v3.2v3.2v3.2v3.2v3.2v3.2v3.2v3.2v3.2v3.2h3.2v3.2v3.2v3.2v3.2v3.2v3.2v3.2
		v3.2H259v3.2v3.2v3.2v3.2v3.2v3.2v3.2v3.2h-3.2v-3.2h-3.2h-3.2v-3.2v-3.2v-3.2v-3.2v-3.2h-3.2h-3.2h-3.2h-3.2h-3.2H230v3.2v3.2
		h-3.2v3.2h-3.2h-3.2h-3.2v-3.2h-3.2h-3.2h-3.2h-3.2H201h-3.2v-3.2h-3.2h-3.2h-3.2h-3.2h-3.2h-3.2h-3.2H172v-3.2h-3.2h-3.2h-3.2
		v-3.2v-3.2V728h-3.2v-3.2v-3.2v-3.2v-3.2v-3.2v-3.2v-3.2v-3.2V699v-3.2v-3.2v-3.2v-3.2v-3.2v-3.2v-3.2v-3.2h-3.2v3.2v3.2v3.2v3.2
		v3.2v3.2v3.2v3.2v3.2v3.2v3.2v3.2v3.2v3.2v3.2v3.2v3.2v3.2h3.2v3.2v3.2v3.2v3.2v3.2h3.2h3.2h3.2v-3.2h-3.2h-3.2v-3.2h3.2h3.2v3.2
		h3.2h3.2h3.2h3.2h3.2h3.2h3.2v3.2h3.2h3.2h3.2v3.2h-3.2h-3.2h-3.2v3.2h3.2v3.2v3.2h-3.2v3.2v3.2v3.2h-3.2h-3.2v-3.2v-3.2h-3.2v-3.2
		h-3.2h-3.2v3.2h3.2v3.2h3.2v3.2v3.2h-3.2h-3.2v-3.2H172v-3.2v-3.2v-3.2h3.2V757v-3.2H172v-3.2h3.2v3.2h3.2v3.2h3.2v3.2h3.2V757
		v-3.2h-3.2v-3.2h3.2h3.2h3.2v-3.2h-3.2h-3.2h-3.2h-3.2h-3.2H172h-3.2v3.2h-3.2v3.2h3.2v3.2v3.2v3.2v3.2h-3.2h-3.2v-3.2h-3.2h-3.2
		v-3.2h-3.2V757h-3.2v-0.1v-3.1v-3.2v-3.2v-2.7v-0.5v-3.2v-3.2v-3.2v-3.2V728v-3.2v-3.2v-3.2v-3.2v-3.2v-3.2v-3.2v-3.2V699v-3.2
		v-3.2v-3.2h-3.2v3.2v3.2v3.2v3.2v3.2v3.2v3.2v3.2v3.2v3.2v3.2v3.2v3.2v3.2v3.2v3.2v3.2v0.5v2.7v3.2v3.2v3.1v0.1v3.2h3.2v3.2v3.2
		v3.2v3.2h-3.2H143h-3.2h-3.2h-3.2v3.2h3.2h3.2h3.2h3.2h3.2h3.2h3.2h3.2h3.2h3.2h3.2h3.2h3.2v3.2H172h-3.2v3.2h-3.2v3.2v3.2v3.2v3.2
		h3.2h3.2h3.2h3.2v3.2h3.2h3.2h3.2h3.2h3.2h3.2v3.2h3.2h3.2v3.2h3.2v-3.2V799h3.2v3.2h3.2v3.2h3.2h3.2v3.2h3.2h3.2v-3.2h-3.2v-3.2
		V799h-3.2v3.2h-3.2V799h-3.2v-3.2h-3.2h-3.2v-3.2h3.2v-3.2v-3.2h-3.2v3.2h-3.2v3.2v3.2v3.2H201v-3.2v-3.2v-3.2v-3.2h-3.2v-3.2h3.2
		v3.2h3.2v-3.2v-3.2h3.2v-3.2h3.2v-3.2h3.2v3.2h3.2v3.2v3.2v3.2h3.2v3.2h3.2v3.2v3.2v3.2h3.2v-3.2v-3.2h3.2v3.2h3.2h3.2h3.2h3.2h3.2
		h3.2h3.2h3.2h3.2h3.2v-3.2h3.2h3.2h3.2v-3.2h3.2h3.2h3.2v-3.2h3.2h3.2h3.2h3.2v-3.2h3.2h3.2h3.2h3.2v3.2h3.2h3.2h3.2v3.2h-3.2h-3.2
		v3.2h3.2h3.2h3.2h3.2v3.2h3.2v-3.2v-3.2h3.2h3.2v-3.2h3.2h3.2h3.2h3.2h3.2v3.2h3.2v-3.2h3.2h3.2v3.2h3.2v-3.2h3.2h3.2v-3.2v-3.2
		v-3.2v-3.2h3.2v3.2h3.2h3.2h3.2v3.2h3.2h3.2v-3.2h3.2h3.2h3.2v-3.2h3.2h3.2h3.2v-3.2h3.2v-3.2h3.2v-3.2h3.2h3.2v-3.2h3.2h3.2V757
		v-3.2h-3.2h-3.2v-3.2v-3.2h3.2h3.2v-3.2h3.2h3.2h3.2v3.2v3.2v3.2h3.2h3.2h3.2h3.2v-3.2h3.2v-3.2v-3.2v-3.2h3.2h3.2h3.2v-3.2h3.2
		v-3.2h3.2h3.2v-3.2h3.2h3.2V728h3.2h3.2v-3.2h3.2v3.2h3.2v3.2v3.2v3.2v3.2v3.2v3.2v3.2v3.2v3.2h-3.2v-3.2h-3.2h-3.2h-3.2H475h-3.2
		v3.2h-3.2v3.2h-3.2h-3.2h-3.2v3.2h-3.2h-3.2v3.2h-3.2H446v3.2h-3.2v3.2h3.2v3.2h3.2h3.2v3.2h3.2v3.2v3.2v3.2v3.2h3.2h3.2h3.2h3.2
		h3.2h3.2v-3.2h3.2v3.2v3.2v3.2h3.2v3.2h3.2h3.2h3.2h3.2V799h3.2h3.2h3.2v3.2h3.2h3.2h3.2h3.2h3.2h3.2h3.2V799h3.2h3.2v-3.2h3.2
		v-3.2v-3.2v-3.2H533v-3.2v-3.2v-3.2h-3.2v-3.2v-3.2v-3.2v-3.2v-3.2V757v-3.2h3.2v-3.2h3.2h3.2h3.2v3.2h3.2h3.2h3.2v-3.2h3.2v-3.2
		v-3.2v-3.2h3.2v-3.2h3.2v-3.2v-3.2h-3.2V728v-3.2h-3.2v-3.2h3.2v-3.2v-3.2v-3.2v-3.2v-3.2v-3.2V699v-3.2v-3.2v-3.2v-3.2h3.2h3.2
		v-3.2h3.2v-3.2v-3.2v-3.2H565.3z M536.3,670v3.2H533V670v-3.2h3.2V670z M545.9,666.8v3.2v3.2h-3.2h-3.2V670v-3.2v-3.2h3.2h3.2
		V666.8z M558.8,670v3.2h-3.2h-3.2v3.2h-3.2v-3.2V670v-3.2h3.2v-3.2h3.2v3.2h3.2V670z M504,766.7v-3.2v-3.2V757v-3.2v-3.2v-3.2v-3.2
		v-3.2h3.2v3.2h3.2h3.2v3.2h3.2v3.2v3.2v3.2v3.2v3.2v3.2h-3.2v3.2h-3.2v3.2h-3.2v-3.2H504V766.7z M484.7,599.1v-3.2h3.2h3.2h3.2h3.2
		v-3.2h3.2h3.2v3.2h-3.2v3.2h-3.2v3.2h-3.2h-3.2v3.2h-3.2v-3.2h-3.2V599.1z M471.8,528.1v-3.2v-3.2v-3.2v-3.2V512v-3.2v-3.2h3.2
		v-3.2h3.2v-3.2h3.2v-3.2h3.2h3.2v3.2v3.2v3.2h-3.2v3.2v3.2v3.2h-3.2v3.2v3.2h-3.2v3.2H475v3.2h3.2v3.2h3.2v3.2v3.2h-3.2v-3.2H475
		v-3.2h-3.2V528.1z M520.2,412.1v-3.2h3.2h3.2h3.2v3.2h3.2h3.2v-3.2h3.2h3.2v3.2v3.2h3.2v-3.2h3.2v3.2h3.2v3.2v3.2v3.2h-3.2h-3.2
		h-3.2v-3.2h-3.2v-3.2h-3.2H533v-3.2h-3.2h-3.2h-3.2h-3.2V412.1z M230,782.8h-3.2v3.2h-3.2v-3.2h-3.2v-3.2v-3.2v-3.2v-3.2h3.2v-3.2
		h3.2v-3.2v-3.2h3.2V757v-3.2v-3.2v-3.2h3.2v-3.2v-3.2h3.2h3.2h3.2h3.2v3.2v3.2v3.2h-3.2v3.2v3.2h-3.2v3.2v3.2h-3.2v3.2v3.2h-3.2
		v3.2v3.2v3.2v3.2H230z M255.8,789.3h-3.2v3.2h-3.2v-3.2h-3.2v3.2h-3.2h-3.2v-3.2h3.2v-3.2h-3.2h-3.2v3.2v3.2h-3.2v-3.2v-3.2h3.2
		v-3.2h3.2h3.2h3.2v3.2h3.2v-3.2h3.2v3.2h3.2V789.3z M262.2,786.1v3.2H259v-3.2v-3.2h-3.2v-3.2v-3.2h3.2v3.2v3.2h3.2V786.1z
		 M281.6,763.5h-3.2v3.2v3.2v3.2v3.2v3.2v3.2v3.2h-3.2h-3.2h-3.2v3.2h-3.2v-3.2v-3.2v-3.2h3.2v3.2h3.2v-3.2v-3.2h-3.2v-3.2v-3.2
		h-3.2h-3.2H259h-3.2v-3.2h3.2h3.2h3.2h3.2h3.2v-3.2h-3.2h-3.2h-3.2H259h-3.2h-3.2h-3.2v-3.2V757h3.2v3.2h3.2h3.2h3.2h3.2h3.2h3.2
		v3.2h3.2h3.2v-3.2h3.2V763.5z M291.3,782.8H288v-3.2h3.2V782.8z M329.9,753.8h-3.2h-3.2h-3.2v-3.2H317v-3.2v-3.2h3.2v3.2h3.2h3.2
		v1.6h-3.2v3.2h3.2v-1.6h3.2V753.8z M342.8,753.8h-3.2v-3.2v-3.2v-3.2h3.2v-3.2h3.2v-3.2h3.2v3.2v3.2v3.2v3.2h-3.2v3.2H342.8z
		 M365.4,779.6h-3.2v-3.2H359v3.2v3.2h-3.2v-3.2h-3.2v3.2h-3.2h-3.2v-3.2v-3.2h3.2h3.2v-3.2h3.2h3.2v-3.2h3.2v3.2v3.2h3.2V779.6z
		 M394.4,773.2h-3.2H388v-3.2h-3.2h-3.2v-3.2h-3.2v-3.2h-3.2v-3.2V757v-3.2v-3.2v-3.2h3.2v-3.2h3.2v3.2v3.2v3.2v3.2h3.2v3.2v3.2h3.2
		v3.2h3.2v3.2h3.2V773.2z M417,715.1h-3.2v-3.2h3.2V715.1z M417,708.7h-3.2v-3.2h-3.2h-3.2h-3.2h-3.2v3.2h-3.2h-3.2v3.2h-3.2v3.2
		v3.2h3.2v-3.2h3.2v-3.2h3.2h3.2h3.2v3.2h3.2v3.2h3.2v3.2v3.2h3.2v3.2v3.2v3.2v3.2v3.2v3.2v3.2v3.2v3.2h-3.2v3.2v3.2h-3.2v3.2h-3.2
		v3.2h-3.2v3.2h-3.2v-3.2h-3.2h-3.2v-3.2h-3.2v-3.2H388V757v-3.2h-3.2v-3.2v-3.2v-3.2v-3.2v-3.2v-3.2v-3.2V728h3.2v-3.2h3.2v-3.2
		v-3.2H388v3.2h-3.2v3.2h-3.2v3.2h-3.2h-3.2h-3.2h-3.2h-3.2h-3.2v-3.2H359h-3.2v-3.2h3.2v-3.2v-3.2h3.2v-3.2v-3.2h3.2v-3.2h3.2v-3.2
		h3.2h3.2V699h3.2h3.2v-3.2h3.2h3.2h3.2h3.2h3.2h3.2h3.2v3.2h-3.2h-3.2v3.2h3.2h3.2h3.2V699h3.2h3.2v3.2v3.2h3.2V708.7z
		 M465.3,621.6v-3.2v-3.2V612v-3.2v-3.2h3.2h3.2h3.2v3.2h-3.2v3.2v3.2h-3.2v3.2v3.2v3.2h-3.2V621.6z M458.9,602.3v-3.2v-3.2v-3.2
		v-3.2v-3.2V583v-3.2h3.2v3.2v3.2v3.2v3.2v3.2v3.2v3.2v3.2h-3.2V602.3z M458.9,673.2V670v-3.2h3.2v-3.2v-3.2v-3.2v-3.2v-3.2v-3.2
		v-3.2V641v-3.2v-3.2v-3.2v-3.2h3.2v3.2v3.2v3.2v3.2v3.2v3.2v3.2v3.2v3.2h3.2v3.2v3.2v3.2v3.2v3.2h-3.2v3.2h-3.2v-3.2H458.9z
		 M436.3,737.7h-3.2v-3.2v-3.2h3.2h3.2v3.2v3.2H436.3z M449.2,744.1v3.2H446v3.2h-3.2h-3.2v-3.2v-3.2v-3.2h3.2h3.2h3.2V744.1z
		 M455.7,705.5h-3.2v3.2h3.2v3.2v3.2v3.2v3.2v3.2v3.2v3.2v3.2v3.2h-3.2h-3.2v-3.2H446v-3.2V728v-3.2v-3.2v-3.2v-3.2v-3.2v-3.2v-3.2
		h3.2h3.2v-3.2h-3.2V699h3.2h3.2v-3.2h3.2h3.2h3.2v-3.2v-3.2v-3.2v-3.2v-3.2h3.2v3.2v3.2v3.2v3.2h3.2v3.2h-3.2h-3.2v3.2h-3.2v3.2
		h-3.2v3.2H455.7z M481.5,724.8h-3.2H475v3.2h-3.2h-3.2v3.2h-3.2h-3.2v3.2h-3.2v-3.2V728v-3.2v-3.2v-3.2v-3.2v-3.2v-3.2h3.2v-3.2
		h3.2v-3.2h3.2V699h3.2v3.2v3.2v3.2h3.2v3.2v3.2v3.2h3.2v3.2h3.2V724.8z M481.5,782.8h-3.2v3.2H475h-3.2v3.2h-3.2h-3.2h-3.2h-3.2
		v-3.2v-3.2h3.2v-3.2h3.2h3.2h3.2v-3.2h3.2h3.2v-3.2h3.2v-3.2h3.2h3.2v-3.2h3.2v-3.2h3.2v-3.2V757v-3.2v-3.2v-3.2v-3.2v-3.2v-3.2
		h3.2v3.2v3.2v3.2h3.2v3.2v3.2v3.2v3.2v3.2v3.2v3.2v3.2h-3.2v3.2h-3.2v3.2h-3.2h-3.2h-3.2v3.2H481.5z M555.6,731.3v3.2v3.2h-3.2
		h-3.2v3.2v3.2h3.2v3.2h-3.2v3.2h-3.2v-3.2h-3.2v-3.2h-3.2v3.2h-3.2v-3.2v-3.2h3.2v-3.2h3.2v-3.2h3.2v-3.2h3.2V728h3.2h3.2V731.3z"
		/>
	<polygon class="st4" points="549.2,495.9 549.2,499.1 549.2,502.4 549.2,505.6 549.2,508.8 549.2,512 552.4,512 552.4,508.8 
		552.4,505.6 552.4,502.4 552.4,499.1 552.4,495.9 552.4,492.7 549.2,492.7 	"/>
	<polygon class="st4" points="549.2,444.3 549.2,447.6 552.4,447.6 552.4,450.8 552.4,454 552.4,457.2 552.4,460.4 552.4,463.7 
		552.4,466.9 552.4,470.1 552.4,473.3 552.4,476.6 552.4,479.8 552.4,483 552.4,486.2 552.4,489.5 552.4,492.7 555.6,492.7 
		555.6,489.5 555.6,486.2 555.6,483 555.6,479.8 555.6,476.6 555.6,473.3 555.6,470.1 555.6,466.9 555.6,463.7 555.6,460.4 
		555.6,457.2 555.6,454 555.6,450.8 555.6,447.6 555.6,444.3 552.4,444.3 552.4,441.1 552.4,437.9 549.2,437.9 549.2,441.1 	"/>
	<polygon class="st4" points="545.9,515.3 545.9,518.5 545.9,521.7 545.9,524.9 545.9,528.1 542.7,528.1 542.7,531.4 542.7,534.6 
		542.7,537.8 542.7,541 542.7,544.3 542.7,547.5 542.7,550.7 542.7,553.9 542.7,557.2 542.7,560.4 542.7,563.6 542.7,566.8 
		542.7,570.1 542.7,573.3 542.7,576.5 542.7,579.7 542.7,583 542.7,586.2 542.7,589.4 542.7,592.6 545.9,592.6 545.9,589.4 
		545.9,586.2 545.9,583 545.9,579.7 545.9,576.5 545.9,573.3 545.9,570.1 545.9,566.8 545.9,563.6 545.9,560.4 545.9,557.2 
		545.9,553.9 545.9,550.7 545.9,547.5 545.9,544.3 545.9,541 545.9,537.8 545.9,534.6 545.9,531.4 549.2,531.4 549.2,528.1 
		549.2,524.9 549.2,521.7 549.2,518.5 549.2,515.3 549.2,512 545.9,512 	"/>
	<polygon class="st4" points="545.9,437.9 549.2,437.9 549.2,434.7 549.2,431.4 545.9,431.4 545.9,434.7 	"/>
	<polygon class="st4" points="494.4,550.7 491.1,550.7 487.9,550.7 484.7,550.7 481.5,550.7 478.2,550.7 478.2,553.9 481.5,553.9 
		484.7,553.9 487.9,553.9 491.1,553.9 491.1,557.2 494.4,557.2 497.6,557.2 497.6,553.9 494.4,553.9 	"/>
	<polygon class="st4" points="494.4,521.7 491.1,521.7 491.1,524.9 487.9,524.9 487.9,528.1 491.1,528.1 491.1,531.4 494.4,531.4 
		494.4,528.1 497.6,528.1 497.6,524.9 494.4,524.9 	"/>
	<polygon class="st4" points="481.5,370.2 481.5,373.4 481.5,376.6 484.7,376.6 484.7,379.8 484.7,383.1 487.9,383.1 487.9,386.3 
		487.9,389.5 487.9,392.7 484.7,392.7 481.5,392.7 481.5,396 478.2,396 475,396 475,399.2 478.2,399.2 481.5,399.2 484.7,399.2 
		484.7,396 487.9,396 491.1,396 491.1,392.7 494.4,392.7 494.4,389.5 494.4,386.3 491.1,386.3 491.1,383.1 491.1,379.8 487.9,379.8 
		487.9,376.6 487.9,373.4 484.7,373.4 484.7,370.2 484.7,367 481.5,367 478.2,367 478.2,370.2 	"/>
	<path class="st4" d="M468.6,399.2h-3.2h-3.2h-3.2h-3.2h-3.2h-3.2H446h-3.2v3.2h-3.2h-3.2h-3.2h-3.2h-3.2v-3.2V396v-3.2v-3.2v-3.2
		v-3.2v-3.2v-3.2v-3.2h-3.2v3.2h-3.2v3.2v3.2H417v3.2h-3.2h-3.2v3.2h-3.2v3.2h-3.2v3.2h-3.2v3.2h-3.2h-3.2v3.2h-3.2H388h-3.2h-3.2
		v3.2h-3.2h-3.2h-3.2h-3.2h-3.2h-3.2v3.2H359v-3.2h-3.2h-3.2h-3.2h-3.2h-3.2h-3.2v3.2h-3.2h-3.2h-3.2h-3.2h-3.2h-3.2v3.2h3.2v3.2
		v3.2v3.2h3.2v-3.2v-3.2h3.2v3.2h3.2v3.2h3.2v3.2h3.2h3.2h3.2h3.2h3.2v-3.2h3.2h3.2h3.2h3.2h3.2h3.2h3.2h3.2h3.2h3.2h3.2h3.2h3.2
		h3.2h3.2h3.2h3.2h3.2h3.2h3.2h3.2v-3.2h3.2h3.2v-3.2h3.2v-3.2h3.2v-3.2h3.2v-3.2h3.2h3.2h3.2v-3.2h3.2h3.2h3.2h3.2h3.2h3.2h3.2h3.2
		h3.2v-3.2h-3.2H468.6z M429.9,408.9h-3.2v3.2h-3.2v3.2h-3.2H417v3.2h-3.2h-3.2h-3.2h-3.2h-3.2h-3.2h-3.2h-3.2H388h-3.2h-3.2h-3.2
		h-3.2h-3.2h-3.2h-3.2h-3.2H359h-3.2h-3.2h-3.2v3.2h-3.2h-3.2h-3.2v-3.2h-3.2v-3.2h3.2h3.2h3.2h3.2h3.2h3.2v-3.2h3.2h3.2h3.2h3.2
		h3.2h3.2h3.2h3.2h3.2v-3.2h3.2h3.2h3.2v-3.2h3.2h3.2v-3.2h3.2v-3.2h3.2V396h3.2v-3.2h3.2v-3.2h3.2h3.2v3.2H417v3.2v3.2v3.2h3.2v3.2
		h3.2h3.2h3.2V408.9z"/>
	<polygon class="st4" points="465.3,367 462.1,367 458.9,367 455.7,367 452.4,367 452.4,370.2 455.7,370.2 458.9,370.2 462.1,370.2 
		465.3,370.2 468.6,370.2 471.8,370.2 471.8,367 468.6,367 	"/>
	<polygon class="st4" points="462.1,360.5 465.3,360.5 465.3,363.7 468.6,363.7 471.8,363.7 471.8,367 475,367 478.2,367 
		478.2,363.7 475,363.7 475,360.5 471.8,360.5 468.6,360.5 468.6,357.3 465.3,357.3 462.1,357.3 458.9,357.3 458.9,360.5 	"/>
	<polygon class="st4" points="452.4,547.5 449.2,547.5 449.2,550.7 446,550.7 442.8,550.7 439.6,550.7 436.3,550.7 433.1,550.7 
		429.9,550.7 429.9,553.9 426.7,553.9 423.4,553.9 420.2,553.9 417,553.9 413.8,553.9 410.5,553.9 407.3,553.9 404.1,553.9 
		400.9,553.9 397.6,553.9 394.4,553.9 391.2,553.9 388,553.9 384.7,553.9 381.5,553.9 378.3,553.9 375.1,553.9 371.9,553.9 
		368.6,553.9 365.4,553.9 362.2,553.9 359,553.9 359,557.2 355.7,557.2 352.5,557.2 349.3,557.2 349.3,560.4 352.5,560.4 
		352.5,563.6 349.3,563.6 349.3,566.8 349.3,570.1 349.3,573.3 349.3,576.5 349.3,579.7 349.3,583 349.3,586.2 349.3,589.4 
		349.3,592.6 349.3,595.8 349.3,599.1 349.3,602.3 349.3,605.5 349.3,608.7 346.1,608.7 346.1,612 342.8,612 339.6,612 339.6,615.2 
		342.8,615.2 346.1,615.2 346.1,618.4 349.3,618.4 349.3,615.2 352.5,615.2 355.7,615.2 359,615.2 359,612 362.2,612 365.4,612 
		368.6,612 371.9,612 371.9,608.7 368.6,608.7 365.4,608.7 362.2,608.7 359,608.7 355.7,608.7 355.7,612 352.5,612 352.5,608.7 
		352.5,605.5 352.5,602.3 352.5,599.1 352.5,595.8 352.5,592.6 352.5,589.4 352.5,586.2 352.5,583 352.5,579.7 352.5,576.5 
		352.5,573.3 352.5,570.1 352.5,566.8 355.7,566.8 355.7,563.6 355.7,560.4 359,560.4 362.2,560.4 362.2,557.2 365.4,557.2 
		368.6,557.2 371.9,557.2 375.1,557.2 378.3,557.2 381.5,557.2 384.7,557.2 388,557.2 391.2,557.2 394.4,557.2 397.6,557.2 
		400.9,557.2 404.1,557.2 407.3,557.2 410.5,557.2 413.8,557.2 417,557.2 420.2,557.2 423.4,557.2 426.7,557.2 426.7,560.4 
		429.9,560.4 433.1,560.4 433.1,563.6 436.3,563.6 436.3,560.4 436.3,557.2 433.1,557.2 433.1,553.9 436.3,553.9 439.6,553.9 
		442.8,553.9 446,553.9 449.2,553.9 452.4,553.9 452.4,557.2 455.7,557.2 455.7,553.9 455.7,550.7 455.7,547.5 455.7,544.3 
		452.4,544.3 	"/>
	<polygon class="st4" points="455.7,357.3 458.9,357.3 458.9,354.1 455.7,354.1 452.4,354.1 452.4,357.3 	"/>
	<polygon class="st4" points="449.2,354.1 452.4,354.1 452.4,350.8 449.2,350.8 446,350.8 446,354.1 	"/>
	<polygon class="st4" points="442.8,370.2 446,370.2 449.2,370.2 449.2,367 446,367 442.8,367 439.6,367 436.3,367 436.3,370.2 
		439.6,370.2 	"/>
	<polygon class="st4" points="426.7,605.5 423.4,605.5 420.2,605.5 420.2,608.7 417,608.7 413.8,608.7 410.5,608.7 407.3,608.7 
		407.3,612 404.1,612 400.9,612 397.6,612 394.4,612 394.4,615.2 397.6,615.2 397.6,618.4 397.6,621.6 397.6,624.9 397.6,628.1 
		397.6,631.3 397.6,634.5 397.6,637.8 394.4,637.8 394.4,641 394.4,644.2 394.4,647.4 394.4,650.7 394.4,653.9 394.4,657.1 
		394.4,660.3 394.4,663.6 394.4,666.8 394.4,670 394.4,673.2 391.2,673.2 388,673.2 388,676.4 384.7,676.4 381.5,676.4 378.3,676.4 
		375.1,676.4 371.9,676.4 371.9,679.7 368.6,679.7 365.4,679.7 362.2,679.7 359,679.7 355.7,679.7 355.7,676.4 355.7,673.2 
		355.7,670 355.7,666.8 355.7,663.6 355.7,660.3 355.7,657.1 355.7,653.9 355.7,650.7 355.7,647.4 355.7,644.2 355.7,641 
		355.7,637.8 355.7,634.5 352.5,634.5 352.5,631.3 352.5,628.1 352.5,624.9 355.7,624.9 359,624.9 362.2,624.9 365.4,624.9 
		365.4,621.6 368.6,621.6 371.9,621.6 375.1,621.6 378.3,621.6 381.5,621.6 384.7,621.6 384.7,618.4 388,618.4 391.2,618.4 
		394.4,618.4 394.4,615.2 391.2,615.2 388,615.2 384.7,615.2 381.5,615.2 381.5,618.4 378.3,618.4 375.1,618.4 371.9,618.4 
		368.6,618.4 365.4,618.4 362.2,618.4 362.2,621.6 359,621.6 355.7,621.6 352.5,621.6 349.3,621.6 349.3,624.9 346.1,624.9 
		342.8,624.9 339.6,624.9 336.4,624.9 333.2,624.9 333.2,628.1 329.9,628.1 326.7,628.1 323.5,628.1 320.3,628.1 317,628.1 
		313.8,628.1 313.8,631.3 310.6,631.3 307.4,631.3 304.2,631.3 304.2,634.5 307.4,634.5 310.6,634.5 313.8,634.5 317,634.5 
		317,631.3 320.3,631.3 323.5,631.3 326.7,631.3 329.9,631.3 333.2,631.3 336.4,631.3 336.4,628.1 339.6,628.1 342.8,628.1 
		346.1,628.1 349.3,628.1 349.3,631.3 349.3,634.5 349.3,637.8 352.5,637.8 352.5,641 352.5,644.2 352.5,647.4 352.5,650.7 
		352.5,653.9 352.5,657.1 352.5,660.3 352.5,663.6 352.5,666.8 352.5,670 352.5,673.2 352.5,676.4 352.5,679.7 352.5,682.9 
		352.5,686.1 355.7,686.1 355.7,682.9 359,682.9 362.2,682.9 365.4,682.9 368.6,682.9 371.9,682.9 375.1,682.9 375.1,679.7 
		378.3,679.7 381.5,679.7 384.7,679.7 388,679.7 391.2,679.7 391.2,676.4 394.4,676.4 397.6,676.4 397.6,673.2 397.6,670 
		397.6,666.8 397.6,663.6 397.6,660.3 397.6,657.1 397.6,653.9 397.6,650.7 397.6,647.4 397.6,644.2 397.6,641 400.9,641 
		400.9,637.8 400.9,634.5 400.9,631.3 400.9,628.1 400.9,624.9 400.9,621.6 400.9,618.4 400.9,615.2 404.1,615.2 407.3,615.2 
		410.5,615.2 410.5,612 413.8,612 417,612 417,615.2 417,618.4 417,621.6 417,624.9 417,628.1 417,631.3 417,634.5 417,637.8 
		417,641 417,644.2 417,647.4 417,650.7 417,653.9 417,657.1 420.2,657.1 423.4,657.1 426.7,657.1 426.7,653.9 429.9,653.9 
		429.9,650.7 426.7,650.7 423.4,650.7 423.4,653.9 420.2,653.9 420.2,650.7 420.2,647.4 420.2,644.2 420.2,641 420.2,637.8 
		420.2,634.5 420.2,631.3 420.2,628.1 420.2,624.9 420.2,621.6 420.2,618.4 420.2,615.2 420.2,612 423.4,612 423.4,608.7 
		426.7,608.7 429.9,608.7 433.1,608.7 433.1,605.5 429.9,605.5 	"/>
	<polygon class="st4" points="426.7,595.8 429.9,595.8 433.1,595.8 436.3,595.8 439.6,595.8 439.6,592.6 442.8,592.6 442.8,589.4 
		439.6,589.4 436.3,589.4 436.3,592.6 433.1,592.6 429.9,592.6 426.7,592.6 423.4,592.6 420.2,592.6 420.2,595.8 423.4,595.8 	"/>
	<polygon class="st4" points="423.4,563.6 423.4,566.8 426.7,566.8 426.7,570.1 429.9,570.1 429.9,573.3 426.7,573.3 423.4,573.3 
		423.4,570.1 423.4,566.8 420.2,566.8 417,566.8 413.8,566.8 413.8,570.1 417,570.1 420.2,570.1 420.2,573.3 417,573.3 413.8,573.3 
		413.8,570.1 410.5,570.1 410.5,566.8 410.5,563.6 407.3,563.6 404.1,563.6 404.1,566.8 404.1,570.1 407.3,570.1 407.3,573.3 
		410.5,573.3 410.5,576.5 413.8,576.5 417,576.5 420.2,576.5 423.4,576.5 426.7,576.5 429.9,576.5 433.1,576.5 433.1,573.3 
		436.3,573.3 436.3,570.1 436.3,566.8 433.1,566.8 429.9,566.8 429.9,563.6 426.7,563.6 426.7,560.4 423.4,560.4 	"/>
	<polygon class="st4" points="417,583 417,586.2 420.2,586.2 423.4,586.2 423.4,583 420.2,583 	"/>
	<polygon class="st4" points="420.2,363.7 423.4,363.7 423.4,367 426.7,367 429.9,367 429.9,363.7 426.7,363.7 426.7,360.5 
		423.4,360.5 420.2,360.5 417,360.5 417,363.7 	"/>
	<polygon class="st4" points="417,563.6 420.2,563.6 420.2,560.4 417,560.4 413.8,560.4 410.5,560.4 410.5,563.6 413.8,563.6 	"/>
	<polygon class="st4" points="410.5,586.2 407.3,586.2 404.1,586.2 404.1,589.4 407.3,589.4 410.5,589.4 413.8,589.4 417,589.4 
		417,586.2 413.8,586.2 	"/>
	<polygon class="st4" points="391.2,731.3 391.2,734.5 388,734.5 388,737.7 391.2,737.7 391.2,740.9 391.2,744.1 391.2,747.4 
		391.2,750.6 391.2,753.8 394.4,753.8 394.4,757 397.6,757 400.9,757 404.1,757 407.3,757 407.3,753.8 410.5,753.8 410.5,750.6 
		410.5,747.4 410.5,744.1 407.3,744.1 407.3,747.4 407.3,750.6 404.1,750.6 404.1,753.8 400.9,753.8 397.6,753.8 397.6,750.6 
		397.6,747.4 397.6,744.1 400.9,744.1 400.9,740.9 400.9,737.7 397.6,737.7 397.6,734.5 397.6,731.3 400.9,731.3 400.9,734.5 
		400.9,737.7 404.1,737.7 407.3,737.7 407.3,734.5 410.5,734.5 410.5,737.7 410.5,740.9 410.5,744.1 413.8,744.1 413.8,740.9 
		413.8,737.7 413.8,734.5 413.8,731.3 410.5,731.3 410.5,728 410.5,724.8 407.3,724.8 407.3,721.6 404.1,721.6 400.9,721.6 
		397.6,721.6 397.6,724.8 394.4,724.8 394.4,728 391.2,728 	"/>
	<polygon class="st4" points="407.3,334.7 410.5,334.7 410.5,337.9 413.8,337.9 417,337.9 417,341.2 420.2,341.2 423.4,341.2 
		423.4,344.4 426.7,344.4 429.9,344.4 429.9,347.6 433.1,347.6 436.3,347.6 436.3,350.8 439.6,350.8 442.8,350.8 446,350.8 
		446,347.6 442.8,347.6 439.6,347.6 439.6,344.4 436.3,344.4 433.1,344.4 433.1,341.2 429.9,341.2 426.7,341.2 426.7,337.9 
		423.4,337.9 420.2,337.9 420.2,334.7 417,334.7 413.8,334.7 413.8,331.5 410.5,331.5 407.3,331.5 404.1,331.5 404.1,334.7 	"/>
	<polygon class="st4" points="400.9,573.3 397.6,573.3 397.6,576.5 394.4,576.5 391.2,576.5 391.2,573.3 391.2,570.1 394.4,570.1 
		394.4,566.8 397.6,566.8 397.6,570.1 400.9,570.1 400.9,566.8 400.9,563.6 397.6,563.6 394.4,563.6 391.2,563.6 391.2,566.8 
		388,566.8 388,570.1 388,573.3 388,576.5 388,579.7 391.2,579.7 394.4,579.7 397.6,579.7 400.9,579.7 400.9,576.5 404.1,576.5 
		404.1,573.3 404.1,570.1 400.9,570.1 	"/>
	<polygon class="st4" points="397.6,589.4 394.4,589.4 391.2,589.4 391.2,592.6 388,592.6 384.7,592.6 384.7,595.8 388,595.8 
		391.2,595.8 394.4,595.8 394.4,592.6 397.6,592.6 400.9,592.6 404.1,592.6 404.1,589.4 400.9,589.4 	"/>
	<polygon class="st4" points="397.6,367 394.4,367 391.2,367 388,367 384.7,367 384.7,370.2 381.5,370.2 378.3,370.2 375.1,370.2 
		371.9,370.2 368.6,370.2 365.4,370.2 362.2,370.2 362.2,373.4 365.4,373.4 368.6,373.4 371.9,373.4 375.1,373.4 378.3,373.4 
		381.5,373.4 384.7,373.4 388,373.4 388,370.2 391.2,370.2 394.4,370.2 397.6,370.2 400.9,370.2 404.1,370.2 404.1,367 400.9,367 	
		"/>
	<polygon class="st4" points="400.9,331.5 404.1,331.5 404.1,328.3 400.9,328.3 397.6,328.3 397.6,331.5 	"/>
	<polygon class="st4" points="391.2,702.2 388,702.2 384.7,702.2 384.7,705.5 384.7,708.7 381.5,708.7 381.5,711.9 381.5,715.1 
		378.3,715.1 378.3,718.4 378.3,721.6 381.5,721.6 381.5,718.4 384.7,718.4 384.7,715.1 384.7,711.9 388,711.9 388,708.7 388,705.5 
		391.2,705.5 394.4,705.5 397.6,705.5 397.6,702.2 394.4,702.2 	"/>
	<polygon class="st4" points="394.4,350.8 394.4,354.1 397.6,354.1 400.9,354.1 400.9,357.3 404.1,357.3 407.3,357.3 407.3,360.5 
		410.5,360.5 413.8,360.5 417,360.5 417,357.3 413.8,357.3 410.5,357.3 410.5,354.1 407.3,354.1 404.1,354.1 404.1,350.8 
		400.9,350.8 397.6,350.8 397.6,347.6 394.4,347.6 391.2,347.6 391.2,350.8 	"/>
	<polygon class="st4" points="391.2,605.5 394.4,605.5 397.6,605.5 397.6,602.3 400.9,602.3 404.1,602.3 407.3,602.3 410.5,602.3 
		410.5,599.1 413.8,599.1 417,599.1 420.2,599.1 420.2,595.8 417,595.8 413.8,595.8 410.5,595.8 407.3,595.8 407.3,599.1 
		404.1,599.1 400.9,599.1 397.6,599.1 394.4,599.1 394.4,602.3 391.2,602.3 388,602.3 384.7,602.3 384.7,605.5 388,605.5 	"/>
	<polygon class="st4" points="388,347.6 391.2,347.6 391.2,344.4 388,344.4 384.7,344.4 384.7,347.6 	"/>
	<rect x="381.5" y="341.2" class="st4" width="3.2" height="3.2"/>
	<polygon class="st4" points="384.7,325 388,325 388,328.3 391.2,328.3 394.4,328.3 397.6,328.3 397.6,325 394.4,325 391.2,325 
		391.2,321.8 388,321.8 384.7,321.8 381.5,321.8 381.5,325 	"/>
	<rect x="378.3" y="592.6" class="st4" width="3.2" height="3.2"/>
	<polygon class="st4" points="378.3,608.7 381.5,608.7 384.7,608.7 384.7,605.5 381.5,605.5 378.3,605.5 375.1,605.5 371.9,605.5 
		371.9,608.7 375.1,608.7 	"/>
	<polygon class="st4" points="375.1,566.8 371.9,566.8 368.6,566.8 368.6,570.1 371.9,570.1 375.1,570.1 378.3,570.1 378.3,573.3 
		378.3,576.5 378.3,579.7 375.1,579.7 371.9,579.7 368.6,579.7 368.6,576.5 365.4,576.5 365.4,573.3 368.6,573.3 368.6,570.1 
		365.4,570.1 362.2,570.1 362.2,573.3 362.2,576.5 362.2,579.7 365.4,579.7 365.4,583 365.4,586.2 368.6,586.2 371.9,586.2 
		371.9,583 375.1,583 378.3,583 381.5,583 381.5,579.7 381.5,576.5 381.5,573.3 381.5,570.1 381.5,566.8 378.3,566.8 	"/>
	<polygon class="st4" points="378.3,341.2 381.5,341.2 381.5,337.9 378.3,337.9 375.1,337.9 375.1,341.2 	"/>
	<rect x="371.9" y="334.7" class="st4" width="3.2" height="3.2"/>
	<polygon class="st4" points="375.1,321.8 378.3,321.8 381.5,321.8 381.5,318.6 378.3,318.6 375.1,318.6 371.9,318.6 371.9,321.8 	
		"/>
	<polygon class="st4" points="368.6,595.8 368.6,599.1 365.4,599.1 365.4,602.3 368.6,602.3 371.9,602.3 371.9,599.1 375.1,599.1 
		375.1,595.8 371.9,595.8 	"/>
	<rect x="368.6" y="331.5" class="st4" width="3.2" height="3.2"/>
	<rect x="365.4" y="534.6" class="st4" width="3.2" height="3.2"/>
	<polygon class="st4" points="355.7,373.4 352.5,373.4 349.3,373.4 346.1,373.4 346.1,376.6 349.3,376.6 352.5,376.6 355.7,376.6 
		359,376.6 362.2,376.6 362.2,373.4 359,373.4 	"/>
	<polygon class="st4" points="352.5,312.1 355.7,312.1 359,312.1 359,315.4 362.2,315.4 362.2,318.6 365.4,318.6 368.6,318.6 
		371.9,318.6 371.9,315.4 368.6,315.4 365.4,315.4 365.4,312.1 362.2,312.1 362.2,308.9 359,308.9 355.7,308.9 355.7,305.7 
		352.5,305.7 352.5,302.5 349.3,302.5 346.1,302.5 342.8,302.5 339.6,302.5 336.4,302.5 333.2,302.5 329.9,302.5 326.7,302.5 
		323.5,302.5 320.3,302.5 317,302.5 313.8,302.5 310.6,302.5 307.4,302.5 307.4,299.3 304.2,299.3 300.9,299.3 297.7,299.3 
		297.7,296 297.7,292.8 297.7,289.6 294.5,289.6 291.3,289.6 288,289.6 284.8,289.6 284.8,292.8 281.6,292.8 281.6,296 281.6,299.3 
		281.6,302.5 281.6,305.7 284.8,305.7 284.8,302.5 284.8,299.3 284.8,296 288,296 288,292.8 291.3,292.8 294.5,292.8 294.5,296 
		294.5,299.3 294.5,302.5 297.7,302.5 300.9,302.5 304.2,302.5 304.2,305.7 307.4,305.7 310.6,305.7 313.8,305.7 317,305.7 
		320.3,305.7 323.5,305.7 326.7,305.7 329.9,305.7 333.2,305.7 336.4,305.7 339.6,305.7 342.8,305.7 346.1,305.7 349.3,305.7 
		349.3,308.9 352.5,308.9 	"/>
	<polygon class="st4" points="349.3,325 352.5,325 355.7,325 355.7,328.3 359,328.3 362.2,328.3 362.2,331.5 365.4,331.5 
		368.6,331.5 368.6,328.3 365.4,328.3 365.4,325 362.2,325 359,325 359,321.8 355.7,321.8 352.5,321.8 349.3,321.8 346.1,321.8 
		346.1,325 	"/>
	<rect x="342.8" y="744.1" class="st4" width="3.2" height="3.2"/>
	<polygon class="st4" points="346.1,321.8 346.1,318.6 342.8,318.6 339.6,318.6 339.6,321.8 342.8,321.8 	"/>
	<path class="st4" d="M339.6,663.6v-3.2v-3.2v-3.2v-3.2v-3.2v-3.2V641h-3.2h-3.2h-3.2h-3.2v3.2h-3.2V641h-3.2H317h-3.2h-3.2h-3.2
		h-3.2h-3.2v3.2h-3.2v3.2h-3.2v-3.2h-3.2H288h-3.2h-3.2v3.2v3.2h-3.2v3.2v3.2h3.2v3.2v3.2v3.2h3.2v3.2h-3.2v3.2h-3.2v3.2v3.2v3.2
		v3.2v3.2v3.2h3.2v3.2h3.2v3.2h3.2h3.2h3.2v-3.2h3.2h3.2h3.2v-3.2h3.2h3.2h3.2h3.2v-3.2h3.2v3.2h3.2v-3.2h3.2v-3.2h3.2v-3.2h3.2
		v-3.2h-3.2h-3.2v3.2h-3.2v3.2h-3.2v-3.2h3.2v-3.2v-3.2h-3.2v3.2H317v-3.2v-3.2V670h3.2h3.2v3.2h3.2V670h3.2h3.2v-3.2h3.2v3.2h3.2
		v3.2h-3.2v3.2h-3.2v3.2h3.2h3.2v-3.2h3.2v-3.2V670v-3.2h-3.2V663.6z M284.8,660.3v-3.2v-3.2v-3.2v-3.2h3.2h3.2v3.2h3.2v3.2v3.2
		h-3.2v3.2v3.2v3.2H288v-3.2h-3.2V660.3z M300.9,689.3v3.2h-3.2v-3.2h-3.2h-3.2v3.2v3.2H288v-3.2h-3.2v-3.2h-3.2v-3.2v-3.2v-3.2
		v-3.2h3.2h3.2v3.2h3.2h3.2v-3.2v-3.2h3.2v3.2v3.2v3.2v3.2h3.2V689.3z M300.9,666.8v3.2h-3.2v-3.2v-3.2h-3.2v-3.2h3.2v-3.2v-3.2h3.2
		v3.2v3.2h3.2v3.2v3.2H300.9z M313.8,679.7v3.2v3.2v3.2h-3.2h-3.2v-3.2h-3.2v-3.2v-3.2v-3.2v-3.2V670h3.2h3.2v3.2h-3.2v3.2h3.2h3.2
		V679.7z M320.3,647.4v3.2v3.2H317v3.2v3.2h-3.2v3.2h3.2h3.2v3.2H317h-3.2v-3.2h-3.2h-3.2v-3.2v-3.2h-3.2v-3.2v-3.2h-3.2v-3.2h3.2
		v-3.2h3.2v3.2h3.2v3.2v3.2v3.2h3.2v-3.2v-3.2v-3.2v-3.2h3.2h3.2V647.4z M336.4,647.4v3.2h-3.2h-3.2v3.2h3.2v3.2h3.2v3.2h-3.2v3.2
		h-3.2h-3.2h-3.2v-3.2h3.2v-3.2v-3.2v-3.2v-3.2h3.2h3.2v-3.2h3.2V647.4z"/>
	<polygon class="st4" points="336.4,605.5 339.6,605.5 342.8,605.5 346.1,605.5 346.1,602.3 342.8,602.3 339.6,602.3 336.4,602.3 
		333.2,602.3 333.2,605.5 	"/>
	<polygon class="st4" points="336.4,312.1 339.6,312.1 342.8,312.1 346.1,312.1 349.3,312.1 349.3,308.9 346.1,308.9 342.8,308.9 
		339.6,308.9 336.4,308.9 333.2,308.9 329.9,308.9 329.9,312.1 333.2,312.1 	"/>
	<rect x="329.9" y="657.1" class="st4" width="3.2" height="3.2"/>
	<polygon class="st4" points="326.7,379.8 329.9,379.8 333.2,379.8 336.4,379.8 339.6,379.8 342.8,379.8 342.8,376.6 339.6,376.6 
		336.4,376.6 333.2,376.6 329.9,376.6 326.7,376.6 323.5,376.6 320.3,376.6 320.3,379.8 323.5,379.8 	"/>
	<rect x="320.3" y="531.4" class="st4" width="3.2" height="3.2"/>
	<path class="st4" d="M317,795.7v3.2h-3.2v3.2h-3.2h-3.2V799v-3.2v-3.2v-3.2h-3.2h-3.2h-3.2h-3.2h-3.2H288h-3.2h-3.2v3.2h-3.2v3.2
		h-3.2v3.2h-3.2v3.2h-3.2h-3.2h-3.2H259v3.2h3.2h3.2v3.2v3.2h3.2v-3.2h3.2v-3.2h3.2v-3.2h3.2V799h3.2v-3.2h3.2v-3.2h3.2v3.2h-3.2
		v3.2v3.2h-3.2v3.2h-3.2v3.2h-3.2v3.2h-3.2v3.2v3.2v3.2v3.2h3.2v3.2h3.2v3.2h3.2h3.2V828h3.2v-3.2h3.2v-3.2v-3.2h3.2h3.2h3.2v-3.2
		h3.2v-3.2h-3.2v-3.2v-3.2v-3.2h-3.2h-3.2h-3.2H288V799h3.2v-3.2h3.2h3.2v-3.2h3.2h3.2v3.2v3.2v3.2v3.2v3.2v3.2h3.2h3.2v-3.2h3.2
		h3.2v-3.2h3.2h3.2h3.2h3.2h3.2v3.2h3.2v3.2h-3.2v3.2v3.2h-3.2v3.2h-3.2v3.2h-3.2v3.2h-3.2v3.2H317v3.2h-3.2v3.2h3.2v3.2h-3.2v3.2
		h3.2v3.2h-3.2v3.2h3.2v3.2h-3.2v3.2h-3.2h-3.2h-3.2h-3.2v3.2h-3.2v3.2h-3.2h-3.2v3.2h3.2v3.2v3.2h-3.2v3.2H288h-3.2h-3.2h-3.2v-3.2
		v-3.2v-3.2v-3.2h3.2h3.2v-3.2h-3.2h-3.2V857h3.2v-3.2h-3.2v-3.2h-3.2h-3.2h-3.2v-3.2h3.2v-3.2v-3.2h-3.2h-3.2v3.2h-3.2H259h-3.2
		h-3.2h-3.2v-3.2h-3.2v3.2v3.2v3.2h-3.2v3.2v3.2v3.2v3.2v3.2h-3.2v3.2v3.2v3.2v3.2v3.2v3.2v3.2v3.2v3.2v3.2h-3.2v3.2h-3.2v-3.2v-3.2
		v-3.2H230v3.2v3.2v3.2h-3.2h-3.2v-3.2h-3.2v-3.2v-3.2h3.2v-3.2h-3.2h-3.2v3.2v3.2v3.2h-3.2v-3.2v-3.2h-3.2v-3.2V886v-3.2v-3.2v-3.2
		h3.2v-3.2v-3.2v-3.2h-3.2v-3.2v-3.2V857v-3.2h3.2v-3.2v-3.2v-3.2v-3.2v-3.2h-3.2v-3.2v-3.2h-3.2v3.2v3.2h-3.2H201h-3.2v3.2h-3.2
		h-3.2v-3.2h3.2v-3.2v-3.2h-3.2h-3.2v3.2h-3.2h-3.2h-3.2h-3.2H172h-3.2v3.2h-3.2v-3.2v-3.2h-3.2h-3.2h-3.2h-3.2h-3.2V828h3.2v-3.2
		h-3.2h-3.2v3.2H143h-3.2h-3.2v3.2h-3.2h-3.2h-3.2v3.2h-3.2h-3.2h-3.2h-3.2v-3.2h-3.2h-3.2h-3.2H101h-3.2h-3.2h-3.2h-3.2h-3.2h-3.2
		h-3.2h-3.2H72h-3.2h-3.2h-3.2h-3.2V828h-3.2h-3.2h-3.2v-3.2h-3.2v-3.2H43v-3.2h-3.2v3.2v3.2v3.2H43v3.2v3.2h3.2h3.2h3.2v3.2h3.2
		h3.2h3.2h3.2h3.2H72h3.2h3.2h3.2h3.2h3.2h3.2h3.2h3.2h3.2h3.2h3.2v3.2h-3.2v3.2H101v3.2h-3.2v3.2h3.2h3.2v-3.2h3.2h3.2v3.2h3.2
		v-3.2h3.2h3.2v-3.2h3.2h3.2v-3.2h3.2v3.2h3.2v3.2v3.2h3.2v3.2h3.2v3.2h3.2h3.2v3.2v3.2H143v3.2h-3.2v3.2v3.2h3.2v3.2h3.2v3.2h3.2
		h3.2h3.2h3.2v-3.2h3.2h3.2h3.2h3.2h3.2v3.2h3.2v3.2h3.2h3.2v3.2h3.2h3.2v-3.2h3.2h3.2v-3.2h3.2h3.2v3.2v3.2h3.2v3.2v3.2v3.2v3.2
		h3.2v3.2h3.2v3.2h3.2h3.2v3.2h3.2h3.2h3.2h3.2v-3.2h3.2h3.2v-3.2h3.2v-3.2h3.2v-3.2v-3.2v-3.2V886v-3.2v-3.2v-3.2v-3.2v-3.2v-3.2
		v-3.2v-3.2V857v-3.2h3.2h3.2v3.2h3.2v3.2h3.2v3.2h3.2v3.2h3.2h3.2v3.2h3.2h3.2v3.2v3.2v3.2h3.2h3.2v3.2h3.2h3.2v-3.2h3.2h3.2v-3.2
		h3.2v-3.2h3.2v-3.2h3.2v3.2h3.2h3.2v-3.2h3.2h3.2h3.2v3.2h3.2v-3.2v-3.2h3.2v-3.2h3.2v-3.2h3.2V857v-3.2h-3.2v-3.2h-3.2h-3.2v-3.2
		v-3.2h3.2h3.2h3.2h3.2h3.2h3.2v-3.2h3.2h3.2v-3.2h3.2h3.2v-3.2h3.2h3.2v-3.2h3.2h3.2h3.2h3.2V828h3.2h3.2v-3.2h3.2v-3.2v-3.2v-3.2
		v-3.2h-3.2h-3.2h-3.2h-3.2h-3.2h-3.2h-3.2v-3.2h3.2h3.2v-3.2v-3.2V799v-3.2h-3.2v-3.2h-3.2H359h-3.2v3.2h-3.2v3.2h3.2h3.2v-3.2h3.2
		v3.2h3.2v3.2v3.2h-3.2H359v3.2v3.2v3.2h3.2h3.2h3.2h3.2h3.2h3.2h3.2v3.2v3.2h-3.2v3.2h-3.2h-3.2v3.2h-3.2h-3.2h-3.2H359v3.2h-3.2
		h-3.2v3.2h-3.2h-3.2v3.2h-3.2h-3.2v3.2h-3.2h-3.2h-3.2h-3.2h-3.2h-3.2v-3.2v-3.2h3.2v-3.2h3.2V828h3.2v-3.2h3.2v-3.2h3.2v3.2h3.2
		h3.2v-3.2h3.2v-3.2h3.2v-3.2v-3.2h-3.2v-3.2h-3.2h-3.2v-3.2h-3.2v-3.2h-3.2V799h-3.2v3.2h-3.2h-3.2h-3.2V799h3.2v-3.2h-3.2H317z
		 M291.3,805.4h3.2h3.2v3.2h-3.2h-3.2H288h-3.2v3.2v3.2h3.2v-3.2h3.2h3.2h3.2v3.2h-3.2h-3.2H288v3.2h-3.2v3.2h-3.2v3.2h-3.2v-3.2
		h-3.2v-3.2v-3.2h3.2v-3.2h3.2v-3.2h3.2v-3.2h3.2H291.3z M323.5,853.8h3.2v3.2v3.2h-3.2v3.2h-3.2H317v-3.2h3.2h3.2V857h-3.2v-3.2
		H323.5z"/>
	<rect x="317" y="534.6" class="st4" width="3.2" height="3.2"/>
	<rect x="313.8" y="537.8" class="st4" width="3.2" height="3.2"/>
	<polygon class="st4" points="317,315.4 320.3,315.4 323.5,315.4 326.7,315.4 329.9,315.4 329.9,312.1 326.7,312.1 323.5,312.1 
		320.3,312.1 317,312.1 313.8,312.1 313.8,315.4 	"/>
	<rect x="310.6" y="844.1" class="st4" width="3.2" height="3.2"/>
	<polygon class="st4" points="313.8,312.1 313.8,308.9 310.6,308.9 307.4,308.9 307.4,312.1 310.6,312.1 	"/>
	<rect x="307.4" y="847.3" class="st4" width="3.2" height="3.2"/>
	<rect x="307.4" y="840.9" class="st4" width="3.2" height="3.2"/>
	<path class="st4" d="M304.2,528.1v3.2v3.2v3.2v3.2v3.2v3.2v3.2v3.2v3.2v3.2v3.2v3.2v3.2v3.2v3.2v22h3.2v-22v-3.2v-3.2v-3.2v-3.2
		v-3.2v-3.2h3.2h3.2v-3.2h3.2h3.2h3.2h3.2v3.2h3.2h3.2h3.2h3.2h3.2h3.2v-3.2h-3.2h-3.2h-3.2h-3.2h-3.2v-3.2h-3.2h-3.2h-3.2H317h-3.2
		h-3.2v3.2h-3.2v-3.2v-3.2h3.2h3.2h3.2h3.2h3.2h3.2h3.2h3.2h3.2h3.2h3.2h3.2h3.2h3.2h3.2h3.2h3.2h3.2h3.2h3.2h3.2h3.2h3.2h3.2h3.2
		v-3.2h3.2h3.2h3.2h3.2h3.2h3.2h3.2h3.2h3.2h3.2h3.2h3.2V541h3.2h3.2h3.2h3.2h3.2h3.2h3.2h3.2h3.2v3.2h3.2V541v-3.2h-3.2h-3.2h-3.2
		H446h-3.2h-3.2v-3.2v-3.2v-3.2v-3.2h3.2v-3.2v-3.2v-3.2V512v-3.2v-3.2v-3.2v-3.2h-3.2h-3.2h-3.2h-3.2h-3.2h-3.2h-3.2H417h-3.2h-3.2
		v3.2v3.2h-3.2h-3.2v3.2h3.2h3.2h3.2h3.2h3.2v3.2v3.2H417v3.2v3.2v3.2v3.2v3.2v3.2h3.2v-3.2v-3.2v-3.2v-3.2v-3.2h3.2v-3.2V512v-3.2
		v-3.2h-3.2H417h-3.2v-3.2h3.2h3.2h3.2h3.2h3.2h3.2h3.2h3.2v3.2v3.2v3.2v3.2v3.2v3.2h-3.2v3.2v3.2v3.2v3.2v3.2h-3.2h-3.2h-3.2h-3.2
		v3.2h-3.2H417h-3.2h-3.2h-3.2h-3.2h-3.2h-3.2v-3.2v-3.2v-3.2h3.2v-3.2v-3.2v-3.2v-3.2v-3.2V512h-3.2h-3.2h-3.2H388h-3.2v-3.2v-3.2
		h3.2h3.2h3.2h3.2h3.2h3.2v-3.2h-3.2h-3.2h-3.2h-3.2H388h-3.2h-3.2v3.2h-3.2v3.2h-3.2h-3.2h-3.2h-3.2h-3.2H359h-3.2h-3.2h-3.2h-3.2
		h-3.2h-3.2h-3.2h-3.2h-3.2v3.2v3.2v3.2v3.2v3.2h-3.2v3.2h-3.2v3.2h3.2h3.2v-3.2h3.2h3.2h3.2h3.2h3.2h3.2v3.2h3.2h3.2v3.2h3.2h3.2
		h3.2v-3.2h-3.2H359v-3.2h-3.2h-3.2v-3.2h-3.2h-3.2h-3.2h-3.2h-3.2h-3.2v-3.2v-3.2v-3.2V512h3.2h3.2h3.2h3.2h3.2h3.2h3.2h3.2h3.2
		h3.2h3.2h3.2v3.2v3.2v3.2v3.2v3.2v3.2v3.2v3.2h-3.2v3.2h3.2v3.2h-3.2h-3.2h-3.2H359h-3.2h-3.2h-3.2h-3.2h-3.2h-3.2h-3.2h-3.2h-3.2
		h-3.2h-3.2h-3.2H317h-3.2V541h-3.2v3.2h-3.2V541v-3.2v-3.2v-3.2v-3.2v-3.2v-3.2h-3.2v3.2V528.1z M375.1,541v-3.2v-3.2v-3.2v-3.2
		v-3.2v-3.2v-3.2v-3.2V512h3.2h3.2v3.2h3.2h3.2h3.2h3.2h3.2v3.2v3.2v3.2v3.2h-3.2v3.2v3.2v3.2v3.2h-3.2H388h-3.2v3.2h-3.2h-3.2h-3.2
		V541z"/>
	<rect x="300.9" y="850.5" class="st4" width="3.2" height="3.2"/>
	<rect x="300.9" y="844.1" class="st4" width="3.2" height="3.2"/>
	<polygon class="st4" points="300.9,466.9 300.9,470.1 300.9,473.3 300.9,476.6 300.9,479.8 300.9,483 300.9,486.2 300.9,489.5 
		300.9,492.7 300.9,495.9 300.9,499.1 300.9,502.4 300.9,505.6 300.9,508.8 300.9,512 300.9,515.3 300.9,518.5 300.9,521.7 
		304.2,521.7 304.2,518.5 304.2,515.3 304.2,512 304.2,508.8 304.2,505.6 304.2,502.4 304.2,499.1 304.2,495.9 304.2,492.7 
		304.2,489.5 304.2,486.2 304.2,483 304.2,479.8 304.2,476.6 304.2,473.3 304.2,470.1 304.2,466.9 304.2,463.7 304.2,460.4 
		300.9,460.4 300.9,463.7 	"/>
	<polygon class="st4" points="304.2,315.4 307.4,315.4 307.4,312.1 304.2,312.1 300.9,312.1 297.7,312.1 297.7,315.4 300.9,315.4 	
		"/>
	<rect x="297.7" y="847.3" class="st4" width="3.2" height="3.2"/>
	<rect x="294.5" y="850.5" class="st4" width="3.2" height="3.2"/>
	<rect x="294.5" y="844.1" class="st4" width="3.2" height="3.2"/>
	<polygon class="st4" points="294.5,383.1 297.7,383.1 300.9,383.1 304.2,383.1 307.4,383.1 307.4,379.8 304.2,379.8 300.9,379.8 
		297.7,379.8 294.5,379.8 291.3,379.8 288,379.8 288,383.1 291.3,383.1 	"/>
	<rect x="288" y="650.7" class="st4" width="3.2" height="3.2"/>
	<polygon class="st4" points="291.3,602.3 294.5,602.3 297.7,602.3 300.9,602.3 304.2,602.3 307.4,602.3 310.6,602.3 313.8,602.3 
		317,602.3 320.3,602.3 323.5,602.3 326.7,602.3 329.9,602.3 333.2,602.3 333.2,599.1 329.9,599.1 326.7,599.1 323.5,599.1 
		320.3,599.1 317,599.1 313.8,599.1 310.6,599.1 307.4,599.1 304.2,599.1 300.9,599.1 297.7,599.1 294.5,599.1 291.3,599.1 
		288,599.1 288,602.3 	"/>
	<polygon class="st4" points="281.6,866.7 281.6,869.9 284.8,869.9 284.8,873.1 288,873.1 288,869.9 288,866.7 284.8,866.7 	"/>
	<polygon class="st4" points="284.8,637.8 288,637.8 291.3,637.8 294.5,637.8 297.7,637.8 300.9,637.8 304.2,637.8 304.2,634.5 
		300.9,634.5 297.7,634.5 294.5,634.5 291.3,634.5 288,634.5 284.8,634.5 281.6,634.5 281.6,637.8 	"/>
	<polygon class="st4" points="281.6,386.3 284.8,386.3 288,386.3 288,383.1 284.8,383.1 281.6,383.1 278.4,383.1 275.1,383.1 
		275.1,386.3 278.4,386.3 	"/>
	<polygon class="st4" points="275.1,634.5 278.4,634.5 281.6,634.5 281.6,631.3 284.8,631.3 288,631.3 291.3,631.3 291.3,628.1 
		294.5,628.1 297.7,628.1 300.9,628.1 304.2,628.1 307.4,628.1 307.4,624.9 310.6,624.9 313.8,624.9 317,624.9 317,621.6 
		320.3,621.6 323.5,621.6 326.7,621.6 326.7,618.4 329.9,618.4 333.2,618.4 336.4,618.4 339.6,618.4 339.6,615.2 336.4,615.2 
		333.2,615.2 329.9,615.2 326.7,615.2 323.5,615.2 323.5,618.4 320.3,618.4 317,618.4 313.8,618.4 313.8,621.6 310.6,621.6 
		307.4,621.6 304.2,621.6 304.2,624.9 300.9,624.9 297.7,624.9 294.5,624.9 291.3,624.9 288,624.9 288,628.1 284.8,628.1 
		281.6,628.1 278.4,628.1 278.4,631.3 275.1,631.3 271.9,631.3 271.9,634.5 	"/>
	<polygon class="st4" points="259,337.9 259,341.2 255.8,341.2 255.8,344.4 255.8,347.6 252.6,347.6 252.6,350.8 249.3,350.8 
		249.3,354.1 249.3,357.3 249.3,360.5 249.3,363.7 252.6,363.7 252.6,360.5 252.6,357.3 252.6,354.1 255.8,354.1 255.8,350.8 
		259,350.8 259,347.6 259,344.4 262.2,344.4 262.2,341.2 265.5,341.2 265.5,337.9 262.2,337.9 	"/>
	<polygon class="st4" points="259,386.3 262.2,386.3 265.5,386.3 268.7,386.3 271.9,386.3 271.9,383.1 268.7,383.1 265.5,383.1 
		262.2,383.1 259,383.1 255.8,383.1 252.6,383.1 252.6,386.3 255.8,386.3 	"/>
	<polygon class="st4" points="259,315.4 259,312.1 262.2,312.1 265.5,312.1 265.5,308.9 268.7,308.9 271.9,308.9 271.9,305.7 
		275.1,305.7 278.4,305.7 278.4,302.5 275.1,302.5 271.9,302.5 268.7,302.5 268.7,305.7 265.5,305.7 262.2,305.7 262.2,308.9 
		259,308.9 255.8,308.9 255.8,312.1 252.6,312.1 252.6,315.4 255.8,315.4 	"/>
	<polygon class="st4" points="255.8,321.8 259,321.8 262.2,321.8 265.5,321.8 268.7,321.8 271.9,321.8 271.9,318.6 275.1,318.6 
		278.4,318.6 278.4,321.8 278.4,325 275.1,325 275.1,328.3 271.9,328.3 271.9,331.5 268.7,331.5 268.7,334.7 265.5,334.7 
		265.5,337.9 268.7,337.9 271.9,337.9 271.9,334.7 275.1,334.7 275.1,331.5 278.4,331.5 278.4,328.3 281.6,328.3 281.6,325 
		281.6,321.8 281.6,318.6 284.8,318.6 288,318.6 291.3,318.6 294.5,318.6 297.7,318.6 297.7,315.4 294.5,315.4 291.3,315.4 
		288,315.4 284.8,315.4 281.6,315.4 278.4,315.4 275.1,315.4 271.9,315.4 268.7,315.4 268.7,318.6 265.5,318.6 262.2,318.6 
		259,318.6 255.8,318.6 252.6,318.6 252.6,321.8 	"/>
	<rect x="249.3" y="315.4" class="st4" width="3.2" height="3.2"/>
	<polygon class="st4" points="246.1,367 246.1,370.2 249.3,370.2 249.3,367 249.3,363.7 246.1,363.7 	"/>
	<rect x="242.9" y="370.2" class="st4" width="3.2" height="3.2"/>
	<polygon class="st4" points="213.9,431.4 217.1,431.4 220.3,431.4 223.6,431.4 226.8,431.4 230,431.4 233.2,431.4 236.4,431.4 
		239.7,431.4 242.9,431.4 246.1,431.4 249.3,431.4 249.3,428.2 252.6,428.2 255.8,428.2 259,428.2 262.2,428.2 265.5,428.2 
		268.7,428.2 271.9,428.2 275.1,428.2 278.4,428.2 281.6,428.2 284.8,428.2 288,428.2 288,431.4 288,434.7 288,437.9 288,441.1 
		288,444.3 288,447.6 288,450.8 288,454 288,457.2 288,460.4 288,463.7 288,466.9 291.3,466.9 291.3,470.1 291.3,473.3 291.3,476.6 
		291.3,479.8 291.3,483 291.3,486.2 291.3,489.5 291.3,492.7 291.3,495.9 291.3,499.1 291.3,502.4 291.3,505.6 291.3,508.8 
		291.3,512 291.3,515.3 291.3,518.5 291.3,521.7 291.3,524.9 291.3,528.1 294.5,528.1 294.5,531.4 294.5,534.6 294.5,537.8 
		294.5,541 294.5,544.3 294.5,547.5 294.5,550.7 294.5,553.9 294.5,557.2 294.5,560.4 294.5,563.6 294.5,566.8 294.5,570.1 
		294.5,573.3 294.5,576.5 294.5,589.4 291.3,589.4 288,589.4 284.8,589.4 284.8,592.6 281.6,592.6 278.4,592.6 275.1,592.6 
		271.9,592.6 268.7,592.6 265.5,592.6 265.5,595.8 262.2,595.8 259,595.8 255.8,595.8 255.8,599.1 259,599.1 262.2,599.1 
		265.5,599.1 268.7,599.1 268.7,595.8 271.9,595.8 275.1,595.8 278.4,595.8 281.6,595.8 281.6,599.1 284.8,599.1 288,599.1 
		288,595.8 288,592.6 291.3,592.6 294.5,592.6 294.5,598.5 297.7,598.5 297.7,576.5 297.7,573.3 297.7,570.1 297.7,566.8 
		297.7,563.6 297.7,560.4 297.7,557.2 297.7,553.9 297.7,550.7 297.7,547.5 297.7,544.3 297.7,541 297.7,537.8 297.7,534.6 
		297.7,531.4 297.7,528.1 297.7,524.9 294.5,524.9 294.5,521.7 294.5,518.5 294.5,515.3 294.5,512 294.5,508.8 294.5,505.6 
		294.5,502.4 294.5,499.1 294.5,495.9 294.5,492.7 294.5,489.5 294.5,486.2 294.5,483 294.5,479.8 294.5,476.6 294.5,473.3 
		294.5,470.1 294.5,466.9 294.5,463.7 291.3,463.7 291.3,460.4 291.3,457.2 291.3,454 291.3,450.8 291.3,447.6 291.3,444.3 
		291.3,441.1 291.3,437.9 291.3,434.7 291.3,431.4 291.3,428.2 291.3,425 291.3,421.8 291.3,418.5 294.5,418.5 294.5,421.8 
		297.7,421.8 297.7,425 297.7,428.2 297.7,431.4 297.7,434.7 297.7,437.9 297.7,441.1 297.7,444.3 297.7,447.6 297.7,450.8 
		297.7,454 297.7,457.2 297.7,460.4 300.9,460.4 300.9,457.2 300.9,454 300.9,450.8 300.9,447.6 300.9,444.3 300.9,441.1 
		300.9,437.9 300.9,434.7 300.9,431.4 300.9,428.2 300.9,425 304.2,425 307.4,425 310.6,425 313.8,425 317,425 320.3,425 323.5,425 
		323.5,421.8 320.3,421.8 317,421.8 313.8,421.8 310.6,421.8 307.4,421.8 304.2,421.8 304.2,418.5 307.4,418.5 310.6,418.5 
		310.6,415.3 313.8,415.3 317,415.3 320.3,415.3 320.3,412.1 317,412.1 313.8,412.1 310.6,412.1 307.4,412.1 304.2,412.1 
		300.9,412.1 297.7,412.1 294.5,412.1 291.3,412.1 288,412.1 284.8,412.1 281.6,412.1 278.4,412.1 275.1,412.1 271.9,412.1 
		268.7,412.1 265.5,412.1 262.2,412.1 259,412.1 255.8,412.1 255.8,408.9 252.6,408.9 252.6,405.6 252.6,402.4 249.3,402.4 
		249.3,399.2 249.3,396 246.1,396 246.1,392.7 242.9,392.7 242.9,389.5 242.9,386.3 239.7,386.3 239.7,383.1 236.4,383.1 
		236.4,386.3 236.4,389.5 233.2,389.5 233.2,392.7 230,392.7 230,396 226.8,396 226.8,399.2 223.6,399.2 223.6,402.4 220.3,402.4 
		217.1,402.4 213.9,402.4 210.7,402.4 210.7,405.6 207.4,405.6 204.2,405.6 204.2,408.9 207.4,408.9 207.4,412.1 204.2,412.1 
		204.2,415.3 207.4,415.3 207.4,418.5 210.7,418.5 210.7,421.8 213.9,421.8 213.9,418.5 217.1,418.5 217.1,415.3 220.3,415.3 
		223.6,415.3 226.8,415.3 226.8,412.1 230,412.1 230,408.9 230,405.6 233.2,405.6 233.2,402.4 233.2,399.2 236.4,399.2 236.4,402.4 
		236.4,405.6 239.7,405.6 239.7,408.9 239.7,412.1 242.9,412.1 242.9,415.3 242.9,418.5 246.1,418.5 249.3,418.5 252.6,418.5 
		255.8,418.5 259,418.5 262.2,418.5 262.2,421.8 265.5,421.8 268.7,421.8 271.9,421.8 275.1,421.8 278.4,421.8 281.6,421.8 
		284.8,421.8 284.8,418.5 288,418.5 288,421.8 288,425 284.8,425 281.6,425 278.4,425 275.1,425 271.9,425 268.7,425 265.5,425 
		262.2,425 259,425 255.8,425 252.6,425 249.3,425 246.1,425 246.1,428.2 242.9,428.2 239.7,428.2 236.4,428.2 233.2,428.2 
		230,428.2 226.8,428.2 223.6,428.2 220.3,428.2 217.1,428.2 213.9,428.2 210.7,428.2 210.7,425 207.4,425 204.2,425 204.2,421.8 
		204.2,418.5 204.2,415.3 201,415.3 201,418.5 201,421.8 201,425 201,428.2 204.2,428.2 207.4,428.2 207.4,431.4 210.7,431.4 	"/>
	<polygon class="st4" points="207.4,444.3 207.4,441.1 210.7,441.1 210.7,444.3 210.7,447.6 213.9,447.6 213.9,444.3 213.9,441.1 
		213.9,437.9 210.7,437.9 210.7,434.7 207.4,434.7 207.4,431.4 204.2,431.4 204.2,434.7 204.2,437.9 204.2,441.1 204.2,444.3 
		204.2,447.6 207.4,447.6 	"/>
	<rect x="201" y="408.9" class="st4" width="3.2" height="3.2"/>
	<polygon class="st4" points="204.2,344.4 204.2,341.2 207.4,341.2 210.7,341.2 210.7,337.9 213.9,337.9 217.1,337.9 220.3,337.9 
		220.3,334.7 223.6,334.7 226.8,334.7 226.8,331.5 230,331.5 233.2,331.5 233.2,328.3 236.4,328.3 239.7,328.3 239.7,325 242.9,325 
		246.1,325 249.3,325 252.6,325 252.6,321.8 249.3,321.8 249.3,318.6 246.1,318.6 242.9,318.6 242.9,321.8 239.7,321.8 236.4,321.8 
		236.4,325 233.2,325 230,325 230,328.3 226.8,328.3 223.6,328.3 223.6,331.5 220.3,331.5 217.1,331.5 217.1,334.7 213.9,334.7 
		210.7,334.7 207.4,334.7 207.4,337.9 204.2,337.9 201,337.9 201,341.2 197.8,341.2 197.8,344.4 201,344.4 	"/>
	<polygon class="st4" points="201,708.7 201,705.5 197.8,705.5 197.8,702.2 201,702.2 201,699 201,695.8 201,692.6 197.8,692.6 
		194.5,692.6 194.5,689.3 191.3,689.3 188.1,689.3 188.1,692.6 188.1,695.8 184.9,695.8 184.9,699 184.9,702.2 184.9,705.5 
		188.1,705.5 191.3,705.5 191.3,708.7 188.1,708.7 184.9,708.7 184.9,711.9 184.9,715.1 181.6,715.1 181.6,718.4 184.9,718.4 
		184.9,721.6 188.1,721.6 188.1,724.8 188.1,728 191.3,728 194.5,728 197.8,728 197.8,724.8 201,724.8 201,721.6 201,718.4 
		201,715.1 204.2,715.1 204.2,711.9 201,711.9 	"/>
	<polygon class="st4" points="201,560.4 201,557.2 204.2,557.2 207.4,557.2 210.7,557.2 210.7,560.4 213.9,560.4 217.1,560.4 
		217.1,557.2 213.9,557.2 213.9,553.9 210.7,553.9 207.4,553.9 204.2,553.9 201,553.9 197.8,553.9 197.8,557.2 194.5,557.2 
		194.5,560.4 197.8,560.4 	"/>
	<path class="st4" d="M197.8,412.1h-3.2h-3.2h-3.2h-3.2h-3.2h-3.2h-3.2H172h-3.2h-3.2h-3.2h-3.2v3.2h-3.2h-3.2h-3.2h-3.2H143v-3.2
		h3.2v-3.2v-3.2H143v3.2h-3.2v3.2v3.2h-3.2h-3.2v3.2h-3.2h-3.2h-3.2h-3.2h-3.2v-3.2h-3.2v-3.2v-3.2v-3.2h3.2v-3.2h3.2v-3.2h-3.2
		h-3.2v3.2h-3.2v3.2v3.2v3.2v3.2v3.2h3.2v3.2h3.2h3.2h3.2v3.2h3.2h3.2h3.2v3.2h3.2h3.2h3.2h3.2h3.2h3.2h3.2h3.2h3.2h3.2v3.2h3.2h3.2
		h3.2h3.2v-3.2h3.2h3.2h3.2V425h3.2v-3.2h3.2v-3.2h3.2v-3.2h3.2v-3.2H197.8z M191.3,418.5h-3.2v3.2h-3.2v3.2h-3.2h-3.2h-3.2v3.2H172
		h-3.2V425h-3.2h-3.2h-3.2h-3.2h-3.2h-3.2h-3.2H143h-3.2h-3.2v-3.2v-3.2h3.2h3.2h3.2h3.2h3.2h3.2h3.2h3.2h3.2h3.2v-3.2h3.2h3.2v3.2
		h3.2h3.2h3.2v-3.2h3.2h3.2V418.5z"/>
	<path class="st4" d="M194.5,502.4h-3.2v3.2v3.2v3.2v3.2h3.2v3.2h3.2h3.2v3.2h3.2h3.2h3.2h3.2h3.2v3.2h3.2h3.2h3.2v-3.2h-3.2h-3.2
		v-3.2h-3.2h-3.2v-3.2h-3.2V512v-3.2h-3.2h-3.2v-3.2H201v-3.2h-3.2H194.5z M204.2,512h3.2v3.2v3.2h-3.2v-3.2H201h-3.2V512h-3.2v-3.2
		v-3.2h3.2v3.2h3.2v3.2H204.2z"/>
	<polygon class="st4" points="194.5,657.1 197.8,657.1 201,657.1 201,653.9 201,650.7 201,647.4 201,644.2 201,641 197.8,641 
		197.8,637.8 194.5,637.8 191.3,637.8 191.3,641 191.3,644.2 191.3,647.4 188.1,647.4 188.1,650.7 188.1,653.9 188.1,657.1 
		191.3,657.1 	"/>
	<polygon class="st4" points="191.3,354.1 191.3,350.8 194.5,350.8 194.5,347.6 197.8,347.6 197.8,344.4 194.5,344.4 191.3,344.4 
		191.3,347.6 188.1,347.6 188.1,350.8 184.9,350.8 184.9,354.1 188.1,354.1 	"/>
	<rect x="184.9" y="760.3" class="st4" width="3.2" height="3.2"/>
	<polygon class="st4" points="181.6,466.9 184.9,466.9 188.1,466.9 191.3,466.9 191.3,463.7 194.5,463.7 197.8,463.7 197.8,460.4 
		201,460.4 201,457.2 201,454 204.2,454 204.2,450.8 204.2,447.6 201,447.6 201,450.8 197.8,450.8 197.8,454 197.8,457.2 
		194.5,457.2 194.5,460.4 191.3,460.4 188.1,460.4 188.1,463.7 184.9,463.7 181.6,463.7 178.4,463.7 178.4,466.9 178.4,470.1 
		181.6,470.1 	"/>
	<polygon class="st4" points="181.6,386.3 184.9,386.3 188.1,386.3 191.3,386.3 194.5,386.3 197.8,386.3 201,386.3 201,383.1 
		204.2,383.1 207.4,383.1 210.7,383.1 213.9,383.1 217.1,383.1 217.1,379.8 213.9,379.8 210.7,379.8 207.4,379.8 204.2,379.8 
		201,379.8 197.8,379.8 197.8,383.1 194.5,383.1 191.3,383.1 188.1,383.1 184.9,383.1 181.6,383.1 178.4,383.1 175.2,383.1 
		175.2,386.3 178.4,386.3 	"/>
	<polygon class="st4" points="178.4,363.7 178.4,360.5 181.6,360.5 181.6,357.3 184.9,357.3 184.9,354.1 181.6,354.1 178.4,354.1 
		178.4,357.3 175.2,357.3 175.2,360.5 172,360.5 172,363.7 175.2,363.7 	"/>
	<rect x="165.5" y="828" class="st4" width="3.2" height="3.2"/>
	<polygon class="st4" points="168.7,389.5 172,389.5 175.2,389.5 175.2,386.3 172,386.3 168.7,386.3 165.5,386.3 162.3,386.3 
		162.3,389.5 165.5,389.5 	"/>
	<polygon class="st4" points="162.3,392.7 162.3,389.5 159.1,389.5 155.9,389.5 155.9,392.7 159.1,392.7 	"/>
	<rect x="155.9" y="566.8" class="st4" width="3.2" height="3.2"/>
	<polygon class="st4" points="149.4,624.9 149.4,621.6 152.6,621.6 152.6,618.4 149.4,618.4 149.4,615.2 146.2,615.2 143,615.2 
		143,618.4 139.7,618.4 139.7,621.6 143,621.6 146.2,621.6 146.2,624.9 146.2,628.1 149.4,628.1 152.6,628.1 152.6,624.9 	"/>
	<polygon class="st4" points="152.6,396 155.9,396 155.9,392.7 152.6,392.7 149.4,392.7 146.2,392.7 146.2,396 149.4,396 	"/>
	<rect x="146.2" y="631.3" class="st4" width="3.2" height="3.2"/>
	<polygon class="st4" points="149.4,383.1 149.4,379.8 152.6,379.8 152.6,376.6 155.9,376.6 155.9,373.4 159.1,373.4 162.3,373.4 
		162.3,370.2 165.5,370.2 168.7,370.2 168.7,367 172,367 172,363.7 168.7,363.7 165.5,363.7 165.5,367 162.3,367 159.1,367 
		159.1,370.2 155.9,370.2 152.6,370.2 152.6,373.4 149.4,373.4 149.4,376.6 146.2,376.6 146.2,379.8 143,379.8 143,383.1 
		146.2,383.1 	"/>
	<polygon class="st4" points="146.2,682.9 146.2,679.7 146.2,676.4 143,676.4 143,679.7 143,682.9 143,686.1 143,689.3 146.2,689.3 
		146.2,686.1 	"/>
	<polygon class="st4" points="146.2,637.8 146.2,634.5 143,634.5 139.7,634.5 139.7,637.8 143,637.8 	"/>
	<polygon class="st4" points="143,670 143,666.8 143,663.6 143,660.3 139.7,660.3 139.7,663.6 139.7,666.8 139.7,670 139.7,673.2 
		139.7,676.4 143,676.4 143,673.2 	"/>
	<rect x="139.7" y="612" class="st4" width="3.2" height="3.2"/>
	<polygon class="st4" points="139.7,653.9 136.5,653.9 136.5,657.1 136.5,660.3 139.7,660.3 139.7,657.1 	"/>
	<rect x="136.5" y="615.2" class="st4" width="3.2" height="3.2"/>
	<rect x="136.5" y="608.7" class="st4" width="3.2" height="3.2"/>
	<polygon class="st4" points="139.7,399.2 143,399.2 146.2,399.2 146.2,396 143,396 139.7,396 136.5,396 133.3,396 133.3,399.2 
		136.5,399.2 	"/>
	<polygon class="st4" points="133.3,650.7 133.3,647.4 130.1,647.4 130.1,650.7 130.1,653.9 133.3,653.9 136.5,653.9 136.5,650.7 	
		"/>
	<polygon class="st4" points="136.5,644.2 136.5,641 139.7,641 139.7,637.8 136.5,637.8 133.3,637.8 133.3,641 133.3,644.2 
		133.3,647.4 136.5,647.4 	"/>
	<rect x="133.3" y="612" class="st4" width="3.2" height="3.2"/>
	<rect x="133.3" y="605.5" class="st4" width="3.2" height="3.2"/>
	<polygon class="st4" points="136.5,560.4 136.5,557.2 136.5,553.9 139.7,553.9 139.7,550.7 143,550.7 143,547.5 139.7,547.5 
		136.5,547.5 136.5,550.7 133.3,550.7 133.3,547.5 136.5,547.5 136.5,544.3 136.5,541 136.5,537.8 139.7,537.8 139.7,534.6 
		139.7,531.4 143,531.4 143,528.1 143,524.9 146.2,524.9 146.2,521.7 149.4,521.7 149.4,518.5 152.6,518.5 152.6,515.3 152.6,512 
		149.4,512 149.4,515.3 146.2,515.3 146.2,518.5 143,518.5 143,521.7 139.7,521.7 139.7,524.9 139.7,528.1 136.5,528.1 136.5,531.4 
		136.5,534.6 133.3,534.6 133.3,537.8 133.3,541 133.3,544.3 130.1,544.3 130.1,547.5 130.1,550.7 130.1,553.9 130.1,557.2 
		133.3,557.2 133.3,560.4 133.3,563.6 136.5,563.6 	"/>
	<rect x="130.1" y="634.5" class="st4" width="3.2" height="3.2"/>
	<rect x="130.1" y="608.7" class="st4" width="3.2" height="3.2"/>
	<polygon class="st4" points="130.1,628.1 126.8,628.1 126.8,631.3 126.8,634.5 130.1,634.5 130.1,631.3 	"/>
	<path class="st4" d="M130.1,605.5h3.2v-3.2v-3.2v-3.2h-3.2v-3.2v-3.2h3.2v-3.2V583h3.2v3.2h3.2v3.2h3.2v3.2h3.2v3.2h3.2h3.2v3.2
		h3.2h3.2h3.2h3.2h3.2v3.2h-3.2v3.2h-3.2v3.2v3.2v3.2h-3.2h-3.2h-3.2v3.2h3.2h3.2h3.2h3.2h3.2v3.2h3.2v3.2h3.2v3.2H172h-3.2h-3.2
		h-3.2h-3.2h-3.2h-3.2v3.2v3.2v3.2v3.2v3.2v3.2v3.2v3.2v3.2v3.2v3.2v3.2v3.2v3.2h3.2V670v-3.2v-3.2v-3.2v-3.2v-3.2v-3.2v-3.2v-3.2
		V641v-3.2v-3.2v-3.2h3.2h3.2h3.2h3.2h3.2v3.2h3.2h3.2h3.2v3.2h3.2h3.2v-3.2h3.2h3.2h3.2h3.2h3.2h3.2h3.2h3.2h3.2v-3.2h-3.2h-3.2
		h-3.2h-3.2H201h-3.2v-3.2h3.2h3.2h3.2h3.2h3.2h3.2h3.2h3.2h3.2h3.2h3.2h3.2h3.2h3.2h3.2v3.2h3.2h3.2h3.2h3.2h3.2h3.2h3.2h3.2v-3.2
		h-3.2h-3.2h-3.2H259h-3.2h-3.2h-3.2v-3.2h-3.2h-3.2h-3.2h-3.2h-3.2H230h-3.2h-3.2h-3.2h-3.2h-3.2h-3.2h-3.2h-3.2H201v-3.2v-3.2
		v-3.2h-3.2V612h-3.2v-3.2h3.2v3.2h3.2h3.2h3.2h3.2h3.2h3.2v3.2h3.2h3.2h3.2V612h3.2v3.2h3.2V612v-3.2v-3.2h3.2h3.2h3.2h3.2v-3.2
		h3.2h3.2h3.2v-3.2h-3.2h-3.2h-3.2v-3.2v-3.2v-3.2h3.2v-3.2V583v-3.2h3.2h3.2v-3.2h3.2v-3.2h3.2h3.2v-3.2h3.2v-3.2h3.2v-3.2v-3.2
		h3.2h3.2v-3.2h3.2v-3.2v-3.2v-3.2v-3.2V541v-3.2v-3.2v-3.2v-3.2h-3.2v-3.2v-3.2h-3.2v-3.2v-3.2V512h-3.2h-3.2h-3.2h-3.2H259h-3.2
		h-3.2h-3.2v-3.2h-3.2v-3.2h3.2v-3.2h3.2v-3.2v-3.2v-3.2v-3.2h3.2v-3.2h3.2V483v-3.2h-3.2v-3.2h3.2v-3.2v-3.2v-3.2h3.2v-3.2v-3.2
		v-3.2V454H259h-3.2v3.2h-3.2v3.2h-3.2v3.2h-3.2h-3.2v3.2h-3.2h-3.2v-3.2v-3.2h-3.2H230v-3.2h-3.2h-3.2h-3.2V454h-3.2v-3.2v-3.2
		h-3.2v3.2v3.2v3.2v3.2v3.2h3.2v-3.2h3.2h3.2h3.2v3.2h3.2v3.2v3.2h3.2h3.2h3.2h3.2h3.2v-3.2h3.2h3.2v-3.2h3.2v-3.2h3.2v3.2h-3.2v3.2
		h-3.2v3.2v3.2v3.2v3.2v3.2h-3.2v3.2h-3.2V483v-3.2h-3.2h-3.2h-3.2h-3.2v-3.2H230v-3.2h-3.2v-3.2h-3.2h-3.2h-3.2h-3.2v3.2h-3.2v3.2
		h-3.2v3.2h-3.2v3.2H201h-3.2v3.2h-3.2V483h-3.2h-3.2h-3.2v3.2h-3.2v3.2v3.2h-3.2v3.2v3.2v3.2v3.2v3.2h3.2v3.2h-3.2v-3.2h-3.2v-3.2
		v-3.2H172v-3.2v-3.2v-3.2v-3.2v-3.2h-3.2V483h3.2v-3.2h3.2v3.2h3.2v-3.2v-3.2v-3.2v-3.2h-3.2H172h-3.2v3.2v3.2v3.2h-3.2h-3.2v3.2
		v3.2h3.2v3.2h3.2v3.2v3.2v3.2v3.2h-3.2h-3.2h-3.2v3.2h-3.2v3.2h-3.2v3.2h3.2h3.2v-3.2h3.2v-3.2h3.2h3.2h3.2v3.2v3.2h3.2v3.2h3.2
		v3.2v3.2h3.2v3.2h3.2h3.2v3.2h3.2h3.2v3.2h3.2h3.2v3.2v3.2h3.2v3.2h3.2v3.2h3.2v3.2h3.2v-3.2h3.2h3.2V541h3.2v-3.2h3.2h3.2h3.2v3.2
		v3.2h3.2v3.2v3.2v3.2h-3.2v3.2H230h-3.2h-3.2v3.2h3.2v3.2v3.2v3.2v3.2v3.2h-3.2v-3.2h-3.2h-3.2v-3.2v-3.2h-3.2h-3.2h-3.2v3.2h-3.2
		v-3.2H201h-3.2h-3.2v3.2h-3.2v3.2v3.2h-3.2v-3.2h-3.2h-3.2v-3.2h-3.2v-3.2h-3.2H172v-3.2v-3.2v-3.2v-3.2v-3.2h3.2v-3.2v-3.2H172
		v3.2h-3.2v3.2v3.2v3.2h-3.2v3.2v3.2h-3.2h-3.2v3.2h3.2h3.2h3.2v3.2h3.2h3.2v3.2h3.2v3.2h3.2h3.2v3.2h3.2h3.2v3.2h3.2h3.2v3.2h-3.2
		v3.2v3.2h3.2v-3.2h3.2v-3.2V583v-3.2h-3.2v-3.2h-3.2v-3.2h3.2v-3.2h3.2v3.2v3.2v3.2h3.2v3.2h3.2h3.2h3.2h3.2v-3.2h3.2h3.2h3.2h3.2
		h3.2h3.2h3.2h3.2v3.2h3.2v3.2h-3.2v3.2h-3.2h-3.2v-3.2h-3.2H230h-3.2h-3.2V583h-3.2h-3.2v3.2h-3.2h-3.2v3.2h-3.2h-3.2v3.2H201h-3.2
		v3.2h3.2h3.2h3.2v-3.2h3.2h3.2v-3.2h3.2h3.2h3.2v3.2h-3.2v3.2h-3.2v3.2v3.2h3.2v-3.2h3.2h3.2h3.2v3.2h-3.2v3.2h-3.2v3.2h-3.2h-3.2
		h-3.2h-3.2v-3.2h-3.2h-3.2H201v-3.2h-3.2h-3.2v3.2h-3.2v-3.2h-3.2v-3.2h-3.2h-3.2h-3.2v-3.2h-3.2H172h-3.2h-3.2h-3.2v-3.2h-3.2
		h-3.2h-3.2v-3.2h-3.2h-3.2v-3.2H143V583v-3.2h-3.2v-3.2v-3.2h-3.2v-3.2v-3.2h-3.2v-3.2h-3.2v3.2v3.2h3.2v3.2v3.2v3.2h-3.2v3.2v3.2
		h-3.2v3.2v3.2v3.2v3.2h3.2v3.2h-3.2v3.2v3.2h3.2V605.5z M213.9,573.3v3.2v3.2h-3.2v-3.2h-3.2h-3.2v-3.2h3.2h3.2v-3.2h3.2V573.3z
		 M262.2,570.1H259v-3.2h3.2V570.1z M249.3,515.3h3.2h3.2h3.2h3.2h3.2h3.2v3.2h-3.2v3.2h3.2h3.2v3.2h3.2v3.2v3.2h3.2v3.2v3.2v3.2
		h-3.2h-3.2v-3.2h-3.2h-3.2h-3.2v3.2H259h-3.2v3.2h-3.2V541v-3.2h3.2v-3.2v-3.2v-3.2h-3.2v3.2v3.2h-3.2v3.2v3.2h-3.2h-3.2h-3.2v-3.2
		h-3.2v-3.2h3.2h3.2v-3.2v-3.2v-3.2h3.2v-3.2h3.2v-3.2h-3.2v-3.2h-3.2V512h3.2v3.2H249.3z M233.2,502.4v-3.2h3.2v3.2h3.2v3.2v3.2
		h-3.2h-3.2v-3.2h3.2v-3.2H233.2z M210.7,479.8h3.2v-3.2h3.2v-3.2h3.2h3.2v3.2h3.2v3.2h3.2v3.2h-3.2v3.2v3.2v3.2h3.2v-3.2v-3.2h3.2
		h3.2V483h3.2h3.2v3.2v3.2h3.2v3.2v3.2h-3.2v3.2h-3.2v-3.2h-3.2h-3.2H230v3.2h-3.2v-3.2v-3.2h-3.2v-3.2h-3.2v-3.2h-3.2V483h-3.2
		h-3.2V479.8z M204.2,495.9v-3.2v-3.2v-3.2h3.2h3.2h3.2v3.2h3.2v3.2h3.2v3.2v3.2v3.2v3.2h-3.2v-3.2v-3.2v-3.2h-3.2h-3.2v3.2v3.2
		h-3.2v-3.2h-3.2V495.9z M233.2,531.4v3.2H230h-3.2h-3.2h-3.2h-3.2v3.2h-3.2v-3.2h-3.2h-3.2v-3.2h-3.2v-3.2H201v-3.2h-3.2h-3.2v-3.2
		h-3.2v-3.2h-3.2v-3.2h-3.2v3.2h-3.2v-3.2h3.2V512v-3.2v-3.2h-3.2v-3.2v-3.2v-3.2h3.2v-3.2v-3.2h3.2v-3.2h3.2v3.2v3.2h3.2h3.2h3.2
		v3.2v3.2v3.2h3.2v3.2h3.2h3.2h3.2v3.2h3.2h3.2h3.2h3.2v-3.2h-3.2v-3.2h3.2h3.2v3.2v3.2h-3.2v3.2h3.2v3.2h3.2v3.2v3.2h3.2v3.2h3.2
		v3.2v3.2h-3.2H233.2z M239.7,560.4v3.2v3.2v3.2v3.2v3.2h-3.2h-3.2H230v-3.2h3.2v-3.2v-3.2H230v-3.2h3.2v-3.2h3.2v-3.2h3.2V560.4z
		 M239.7,553.9v-3.2v-3.2h3.2v-3.2h3.2v3.2v3.2h-3.2v3.2H239.7z M242.9,573.3v-3.2h3.2v-3.2v-3.2v-3.2h-3.2v-3.2h3.2v-3.2h3.2v-3.2
		v-3.2h3.2h3.2h3.2v-3.2h3.2h3.2V541h3.2v3.2h3.2h3.2v3.2h-3.2v3.2v3.2h3.2v-3.2h3.2v3.2h-3.2v3.2h-3.2h-3.2v3.2h-3.2v3.2h-3.2v-3.2
		H259v3.2h-3.2v3.2h-3.2v-3.2v-3.2v-3.2h-3.2h-3.2v3.2h3.2v3.2v3.2v3.2h3.2h3.2v3.2h-3.2v3.2h-3.2v-3.2h-3.2H242.9z M226.8,595.8
		v-3.2h3.2v-3.2h3.2v3.2h3.2h3.2h3.2v3.2v3.2h-3.2h-3.2h-3.2v-3.2H230H226.8z"/>
	<polygon class="st4" points="126.8,621.6 126.8,618.4 126.8,615.2 126.8,612 126.8,608.7 123.6,608.7 123.6,612 123.6,615.2 
		123.6,618.4 123.6,621.6 123.6,624.9 123.6,628.1 126.8,628.1 126.8,624.9 	"/>
	<polygon class="st4" points="126.8,399.2 126.8,396 130.1,396 130.1,392.7 133.3,392.7 136.5,392.7 136.5,389.5 139.7,389.5 
		139.7,386.3 143,386.3 143,383.1 139.7,383.1 136.5,383.1 136.5,386.3 133.3,386.3 133.3,389.5 130.1,389.5 126.8,389.5 
		126.8,392.7 123.6,392.7 123.6,396 120.4,396 120.4,399.2 123.6,399.2 	"/>
	<rect x="113.9" y="744.1" class="st4" width="3.2" height="3.2"/>
	<polygon class="st4" points="113.9,769.9 113.9,773.2 117.2,773.2 120.4,773.2 120.4,776.4 123.6,776.4 123.6,779.6 120.4,779.6 
		120.4,782.8 123.6,782.8 126.8,782.8 126.8,779.6 130.1,779.6 133.3,779.6 133.3,776.4 130.1,776.4 130.1,773.2 126.8,773.2 
		123.6,773.2 123.6,769.9 120.4,769.9 117.2,769.9 117.2,766.7 113.9,766.7 110.7,766.7 110.7,769.9 	"/>
	<rect x="107.5" y="763.5" class="st4" width="3.2" height="3.2"/>
	<polygon class="st4" points="107.5,795.7 110.7,795.7 110.7,792.5 113.9,792.5 113.9,789.3 117.2,789.3 117.2,786.1 120.4,786.1 
		120.4,782.8 117.2,782.8 113.9,782.8 113.9,786.1 110.7,786.1 107.5,786.1 104.3,786.1 101,786.1 101,782.8 97.8,782.8 94.6,782.8 
		91.4,782.8 91.4,779.6 88.2,779.6 84.9,779.6 84.9,776.4 81.7,776.4 78.5,776.4 78.5,773.2 75.3,773.2 75.3,769.9 75.3,766.7 
		72,766.7 72,769.9 68.8,769.9 68.8,773.2 68.8,776.4 72,776.4 72,779.6 72,782.8 75.3,782.8 78.5,782.8 78.5,786.1 81.7,786.1 
		84.9,786.1 88.2,786.1 88.2,789.3 91.4,789.3 94.6,789.3 97.8,789.3 97.8,792.5 101,792.5 104.3,792.5 104.3,795.7 104.3,799 
		107.5,799 	"/>
	<path class="st4" d="M104.3,750.6h3.2v3.2h3.2h3.2h3.2v3.2h3.2h3.2h3.2h3.2v-3.2h3.2v-3.2v-3.2v-3.2v-3.2h-3.2v-3.2v-3.2h-3.2v-3.2
		h-3.2h-3.2h-3.2h-3.2h-3.2h-3.2h-3.2v3.2h3.2v3.2v3.2h-3.2v3.2v3.2H101v-3.2v-3.2h3.2v-3.2v-3.2H101v3.2h-3.2v3.2v3.2v3.2v3.2h3.2
		H104.3z M107.5,744.1h3.2v-3.2v-3.2v-3.2h3.2h3.2h3.2h3.2v3.2h3.2v3.2v3.2h3.2v3.2v3.2h-3.2v3.2h-3.2h-3.2v-3.2h-3.2h-3.2v-3.2
		h-3.2h-3.2V744.1z"/>
	<polygon class="st4" points="88.2,805.4 91.4,805.4 94.6,805.4 97.8,805.4 101,805.4 104.3,805.4 104.3,802.2 104.3,799 101,799 
		101,802.2 97.8,802.2 94.6,802.2 91.4,802.2 88.2,802.2 84.9,802.2 81.7,802.2 81.7,805.4 84.9,805.4 	"/>
	<polygon class="st4" points="72,808.6 75.3,808.6 78.5,808.6 81.7,808.6 81.7,805.4 78.5,805.4 75.3,805.4 72,805.4 68.8,805.4 
		68.8,808.6 	"/>
	<polygon class="st4" points="72,760.3 75.3,760.3 75.3,757 78.5,757 78.5,760.3 81.7,760.3 81.7,757 81.7,753.8 81.7,750.6 
		84.9,750.6 84.9,753.8 88.2,753.8 88.2,757 91.4,757 91.4,753.8 94.6,753.8 94.6,757 97.8,757 97.8,760.3 101,760.3 101,763.5 
		104.3,763.5 107.5,763.5 107.5,760.3 104.3,760.3 104.3,757 101,757 101,753.8 97.8,753.8 97.8,750.6 94.6,750.6 94.6,747.4 
		91.4,747.4 88.2,747.4 84.9,747.4 81.7,747.4 78.5,747.4 78.5,750.6 75.3,750.6 75.3,753.8 72,753.8 72,757 68.8,757 68.8,760.3 
		68.8,763.5 68.8,766.7 72,766.7 72,763.5 	"/>
	<rect x="65.6" y="802.2" class="st4" width="3.2" height="3.2"/>
	<polygon class="st4" points="59.1,802.2 62.4,802.2 65.6,802.2 65.6,799 62.4,799 59.1,799 55.9,799 55.9,802.2 	"/>
	<rect x="52.7" y="805.4" class="st4" width="3.2" height="3.2"/>
	<rect x="52.7" y="795.7" class="st4" width="3.2" height="3.2"/>
	<rect x="49.5" y="811.8" class="st4" width="3.2" height="3.2"/>
	<polygon class="st4" points="43,815.1 43,811.8 46.2,811.8 49.5,811.8 49.5,808.6 46.2,808.6 43,808.6 43,805.4 46.2,805.4 
		49.5,805.4 52.7,805.4 52.7,802.2 52.7,799 49.5,799 46.2,799 46.2,802.2 43,802.2 39.8,802.2 39.8,805.4 39.8,808.6 36.6,808.6 
		36.6,811.8 36.6,815.1 36.6,818.3 39.8,818.3 39.8,815.1 	"/>
</g>
</svg>
