<?xml version="1.0" encoding="utf-8"?>
<!-- Generator: Adobe Illustrator 27.0.0, SVG Export Plug-In . SVG Version: 6.00 Build 0)  -->
<svg version="1.1" id="Layer_1" xmlns="http://www.w3.org/2000/svg" xmlns:xlink="http://www.w3.org/1999/xlink" x="0px" y="0px"
	 viewBox="0 0 1042.1 81.6" style="enable-background:new 0 0 1042.1 81.6;" xml:space="preserve">
<style type="text/css">
	.st0{fill:#0000FF;}
</style>
<g>
	<polygon class="st0" points="23.1,14.2 3.8,14.2 3.8,18.6 0,18.6 0,58.8 3.8,58.8 3.8,63.2 23.1,63.2 23.1,58.8 26.8,58.8 
		26.8,49.6 18.9,49.6 18.9,58.4 7.9,58.4 7.9,19 18.9,19 18.9,27.9 26.8,27.9 26.8,18.6 23.1,18.6 	"/>
	<path class="st0" d="M57.1,23H37.8v4.4H34v31.4h3.8v4.4h19.3v-4.4h3.8V27.4h-3.8V23z M53,58.4H42V27.9h11V58.4z"/>
	<polygon class="st0" points="94.6,27.4 90.8,27.4 90.8,31.9 87,31.9 87,36.3 83.6,36.3 83.6,31.9 79.8,31.9 79.8,27.4 76,27.4 
		76,23 68.1,23 68.1,63.2 76,63.2 76,36.7 79.4,36.7 79.4,41.1 83.2,41.1 83.2,45.6 87.4,45.6 87.4,41.1 91.1,41.1 91.1,36.7 
		94.6,36.7 94.6,63.2 102.5,63.2 102.5,23 94.6,23 	"/>
	<polygon class="st0" points="109.7,63.2 129,63.2 129,58.4 117.6,58.4 117.6,45.6 125.2,45.6 125.2,40.7 117.6,40.7 117.6,27.9 
		129,27.9 129,23 109.7,23 	"/>
	<polygon class="st0" points="151.3,63.2 159.2,63.2 159.2,45.6 166.8,45.6 166.8,40.7 159.2,40.7 159.2,27.9 170.6,27.9 170.6,23 
		151.3,23 	"/>
	<path class="st0" d="M200.8,23h-19.3v4.4h-3.8v31.4h3.8v4.4h19.3v-4.4h3.8V27.4h-3.8V23z M196.7,58.4h-11V27.9h11V58.4z"/>
	<path class="st0" d="M234.9,45.1h-3.8v-4h3.8V27.4h-3.8V23h-19.3v40.2h7.9V45.6h7.2v17.7h11.7v-4.8h-3.8V45.1z M226.9,40.7h-7.2
		V27.9h7.2V40.7z"/>
	<polygon class="st0" points="253.4,27.9 261,27.9 261,63.2 268.9,63.2 268.9,27.9 276.5,27.9 276.5,23 253.4,23 	"/>
	<polygon class="st0" points="298.8,40.7 287.8,40.7 287.8,23 279.9,23 279.9,63.2 287.8,63.2 287.8,45.6 298.8,45.6 298.8,63.2 
		306.7,63.2 306.7,23 298.8,23 	"/>
	<polygon class="st0" points="313.9,63.2 333.2,63.2 333.2,58.4 321.9,58.4 321.9,45.6 329.4,45.6 329.4,40.7 321.9,40.7 
		321.9,27.9 333.2,27.9 333.2,23 313.9,23 	"/>
	<path class="st0" d="M575.3,55.3h-3.8v-4h3.8V42h-4.1v8.8h-3.4v-4.4H564V42h-3.8v-4h3.8v-4.4h3.8v-9.3H564v-4.4h-11.7v4.4h-3.8V38
		h3.8v4h-3.8v4.4h-3.8v13.7h3.8v4.4H564v-4.4h7.2v4.4h7.9v-4.8h-3.8V55.3z M556.4,24.7h7.2v8.4h-3.8v4.4h-3.4V24.7z M563.6,59.7h-11
		V46.8h7.2v4.4h3.8V59.7z"/>
	<polygon class="st0" points="620.7,15.5 601.4,15.5 601.4,19.9 597.6,19.9 597.6,38 601.4,38 601.4,42.4 616.5,42.4 616.5,59.7 
		605.6,59.7 605.6,50.8 597.6,50.8 597.6,60.1 601.4,60.1 601.4,64.5 620.7,64.5 620.7,60.1 624.5,60.1 624.5,42 620.7,42 
		620.7,37.6 605.6,37.6 605.6,20.3 616.5,20.3 616.5,29.2 624.5,29.2 624.5,19.9 620.7,19.9 	"/>
	<polygon class="st0" points="627.9,29.2 635.5,29.2 635.5,64.5 643.4,64.5 643.4,29.2 650.9,29.2 650.9,24.3 627.9,24.3 	"/>
	<path class="st0" d="M673.6,24.3h-15.5v4.4h-3.8v35.8h7.9V46.8h7.2v17.7h7.9V28.7h-3.8V24.3z M669.5,42h-7.2V29.2h7.2V42z"/>
	<polygon class="st0" points="707.3,33.2 703.5,33.2 703.5,42 696.3,42 696.3,33.2 692.6,33.2 692.6,24.3 684.6,24.3 684.6,33.6 
		688.4,33.6 688.4,42.4 692.2,42.4 692.2,46.8 696,46.8 696,64.5 703.9,64.5 703.9,46.8 707.7,46.8 707.7,42.4 711.5,42.4 
		711.5,33.6 715.2,33.6 715.2,24.3 707.3,24.3 	"/>
	<polygon class="st0" points="737.6,64.5 745.5,64.5 745.5,46.8 753.1,46.8 753.1,42 745.5,42 745.5,29.2 756.9,29.2 756.9,24.3 
		737.6,24.3 	"/>
	<path class="st0" d="M787.1,24.3h-19.3v4.4h-3.8v31.4h3.8v4.4h19.3v-4.4h3.8V28.7h-3.8V24.3z M783,59.7h-11V29.2h11V59.7z"/>
	<path class="st0" d="M821.2,46.4h-3.8v-4h3.8V28.7h-3.8v-4.4h-19.3v40.2h7.9V46.8h7.2v17.7h11.7v-4.8h-3.8V46.4z M813.2,42H806
		V29.2h7.2V42z"/>
	<polygon class="st0" points="839.7,29.2 847.3,29.2 847.3,64.5 855.2,64.5 855.2,29.2 862.8,29.2 862.8,24.3 839.7,24.3 	"/>
	<polygon class="st0" points="885.1,42 874.1,42 874.1,24.3 866.2,24.3 866.2,64.5 874.1,64.5 874.1,46.8 885.1,46.8 885.1,64.5 
		893,64.5 893,24.3 885.1,24.3 	"/>
	<polygon class="st0" points="900.2,64.5 919.5,64.5 919.5,59.7 908.2,59.7 908.2,46.8 915.7,46.8 915.7,42 908.2,42 908.2,29.2 
		919.5,29.2 919.5,24.3 900.2,24.3 	"/>
	<polygon class="st0" points="522.3,9.9 522.3,7.4 519.8,7.4 519.8,4.9 519.8,2.5 517.3,2.5 514.9,2.5 514.9,0 512.4,0 512.4,2.5 
		509.9,2.5 509.9,4.9 507.4,4.9 507.4,7.4 507.4,9.9 507.4,12.4 505,12.4 505,14.8 505,17.3 505,19.8 505,22.3 505,24.7 505,27.2 
		505,29.7 507.4,29.7 507.4,32.2 507.4,34.6 509.9,34.6 509.9,37.1 509.9,39.6 512.4,39.6 512.4,42.1 514.9,42.1 514.9,44.5 
		514.9,47 512.4,47 512.4,44.5 509.9,44.5 509.9,42.1 507.4,42.1 505,42.1 505,44.5 505,47 505,49.5 505,51.9 507.4,51.9 
		507.4,54.4 509.9,54.4 509.9,56.9 512.4,56.9 514.9,56.9 517.3,56.9 519.8,56.9 519.8,54.4 519.8,51.9 522.3,51.9 522.3,49.5 
		524.8,49.5 524.8,47 524.8,44.5 524.8,42.1 524.8,39.6 522.3,39.6 522.3,37.1 519.8,37.1 519.8,34.6 517.3,34.6 517.3,32.2 
		517.3,29.7 514.9,29.7 514.9,27.2 512.4,27.2 512.4,24.7 512.4,22.3 512.4,19.8 512.4,17.3 512.4,14.8 514.9,14.8 514.9,17.3 
		514.9,19.8 514.9,22.3 514.9,24.7 517.3,24.7 517.3,27.2 519.8,27.2 519.8,29.7 522.3,29.7 522.3,27.2 522.3,24.7 524.8,24.7 
		524.8,22.3 524.8,19.8 524.8,17.3 524.8,14.8 524.8,12.4 522.3,12.4 	"/>
	<path class="st0" d="M500,9.9V7.4h-2.5V4.9h-2.5V2.5h-2.5h-2.5v2.5h-2.5v2.5v2.5h-2.5v2.5v2.5v2.5v2.5h-2.5v2.5v2.5v2.5v2.5v2.5
		v2.5v2.5v2.5v2.5v2.5V47v2.5v2.5h2.5v2.5v2.5h2.5v2.5h2.5h2.5h2.5v-2.5h2.5v-2.5h2.5v-2.5v-2.5V47h2.5v-2.5v-2.5v-2.5v-2.5v-2.5
		v-2.5H500v-2.5h-2.5h-2.5h-2.5v2.5h-2.5v-2.5v-2.5v-2.5v-2.5h2.5v-2.5v-2.5h2.5v2.5v2.5v2.5h2.5v2.5h2.5h2.5v-2.5v-2.5v-2.5v-2.5
		v-2.5v-2.5H500V9.9z M492.6,37.1v2.5h2.5v2.5v2.5V47h-2.5v2.5h-2.5V47v-2.5v-2.5v-2.5v-2.5H492.6z"/>
	<path class="st0" d="M477.8,24.7v-2.5v-2.5v-2.5v-2.5h-2.5v-2.5V9.9h-2.5V7.4h-2.5h-2.5v2.5h-2.5v2.5v2.5h-2.5v2.5v2.5v2.5h-2.5
		v2.5v2.5v2.5v2.5v2.5v2.5v2.5v2.5v2.5V47v2.5h2.5v2.5v2.5v2.5h2.5v2.5v2.5h2.5h2.5h2.5h2.5v-2.5v-2.5h2.5v-2.5v-2.5h2.5v-2.5V47
		v-2.5v-2.5v-2.5v-2.5v-2.5v-2.5v-2.5v-2.5h-2.5V24.7z M472.8,24.7v2.5v2.5v2.5v2.5v2.5v2.5v2.5v2.5V47h-2.5v2.5h-2.5V47v-2.5v-2.5
		v-2.5v-2.5v-2.5v-2.5v-2.5v-2.5v-2.5h2.5v-2.5h2.5V24.7z"/>
	<path class="st0" d="M453,19.8v-2.5h-2.5v-2.5h-2.5v-2.5h-2.5V9.9h-2.5h-2.5h-2.5v2.5h-2.5v2.5h-2.5v2.5v2.5v2.5h2.5v2.5v2.5v2.5
		v2.5v2.5v2.5v2.5v2.5v2.5V47v2.5v2.5v2.5v2.5v2.5v2.5h2.5v2.5h2.5v2.5h2.5h2.5v-2.5h2.5v-2.5h2.5v-2.5v-2.5h2.5v-2.5v-2.5h2.5v-2.5
		V47v-2.5v-2.5v-2.5v-2.5v-2.5v-2.5v-2.5v-2.5v-2.5v-2.5H453V19.8z M448.1,27.2v2.5v2.5v2.5v2.5v2.5v2.5v2.5h-2.5V47v2.5h-2.5V47
		v-2.5v-2.5v-2.5v-2.5v-2.5v-2.5v-2.5v-2.5v-2.5v-2.5h2.5v2.5h2.5V27.2z"/>
	<polygon class="st0" points="415.9,17.3 413.4,17.3 413.4,14.8 411,14.8 408.5,14.8 408.5,17.3 406,17.3 403.5,17.3 403.5,19.8 
		401.1,19.8 398.6,19.8 398.6,22.3 396.1,22.3 396.1,24.7 396.1,27.2 398.6,27.2 398.6,29.7 401.1,29.7 401.1,32.2 403.5,32.2 
		403.5,34.6 403.5,37.1 403.5,39.6 403.5,42.1 403.5,44.5 403.5,47 403.5,49.5 403.5,51.9 403.5,54.4 403.5,56.9 403.5,59.4 
		403.5,61.8 403.5,64.3 403.5,66.8 406,66.8 406,69.3 408.5,69.3 408.5,71.7 411,71.7 411,69.3 411,66.8 411,64.3 411,61.8 
		411,59.4 411,56.9 411,54.4 411,51.9 411,49.5 411,47 411,44.5 411,42.1 411,39.6 411,37.1 411,34.6 411,32.2 411,29.7 411,27.2 
		413.4,27.2 413.4,24.7 415.9,24.7 418.4,24.7 418.4,22.3 418.4,19.8 415.9,19.8 	"/>
	<path class="st0" d="M393.7,32.2v-2.5v-2.5v-2.5h-2.5v-2.5h-2.5v-2.5h-2.5h-2.5v2.5h-2.5v2.5h-2.5v2.5v2.5v2.5v2.5v2.5v2.5h-2.5
		v2.5v2.5V47v2.5v2.5v2.5v2.5h2.5v2.5v2.5v2.5v2.5v2.5h2.5v2.5h2.5v2.5h2.5h2.5v-2.5h2.5h2.5v-2.5v-2.5v-2.5v-2.5h2.5v-2.5v-2.5
		v-2.5v-2.5v-2.5V47v-2.5v-2.5v-2.5v-2.5v-2.5h-2.5V32.2z M388.7,34.6v2.5v2.5v2.5v2.5h-2.5V47v2.5v2.5v2.5h2.5v2.5v2.5v2.5h-2.5
		v-2.5h-2.5v-2.5v-2.5v-2.5v-2.5V47v-2.5v-2.5v-2.5h2.5v-2.5v-2.5v-2.5h2.5V34.6z"/>
	<polygon class="st0" points="368.9,24.7 368.9,22.3 366.4,22.3 366.4,24.7 364,24.7 364,27.2 364,29.7 364,32.2 364,34.6 364,37.1 
		364,39.6 364,42.1 364,44.5 364,47 361.5,47 361.5,44.5 361.5,42.1 361.5,39.6 361.5,37.1 361.5,34.6 361.5,32.2 361.5,29.7 
		361.5,27.2 359,27.2 359,24.7 356.6,24.7 354.1,24.7 354.1,27.2 354.1,29.7 354.1,32.2 354.1,34.6 354.1,37.1 354.1,39.6 
		354.1,42.1 354.1,44.5 354.1,47 354.1,49.5 354.1,51.9 351.6,51.9 351.6,54.4 349.1,54.4 349.1,56.9 351.6,56.9 351.6,59.4 
		354.1,59.4 354.1,61.8 354.1,64.3 354.1,66.8 354.1,69.3 354.1,71.7 354.1,74.2 354.1,76.7 356.6,76.7 356.6,79.2 359,79.2 
		359,81.6 361.5,81.6 361.5,79.2 361.5,76.7 361.5,74.2 361.5,71.7 361.5,69.3 361.5,66.8 361.5,64.3 361.5,61.8 361.5,59.4 
		364,59.4 364,61.8 364,64.3 364,66.8 364,69.3 364,71.7 364,74.2 366.4,74.2 366.4,76.7 368.9,76.7 368.9,79.2 371.4,79.2 
		371.4,76.7 373.9,76.7 373.9,74.2 373.9,71.7 373.9,69.3 373.9,66.8 373.9,64.3 373.9,61.8 373.9,59.4 373.9,56.9 373.9,54.4 
		373.9,51.9 373.9,49.5 373.9,47 373.9,44.5 373.9,42.1 373.9,39.6 373.9,37.1 373.9,34.6 373.9,32.2 373.9,29.7 373.9,27.2 
		373.9,24.7 371.4,24.7 	"/>
	<polygon class="st0" points="1039.6,49.5 1037.1,49.5 1034.7,49.5 1032.2,49.5 1032.2,51.9 1032.2,54.4 1032.2,56.9 1032.2,59.4 
		1032.2,61.8 1034.7,61.8 1037.1,61.8 1039.6,61.8 1039.6,59.4 1042.1,59.4 1042.1,56.9 1042.1,54.4 1042.1,51.9 1039.6,51.9 	"/>
	<polygon class="st0" points="1039.6,5 1039.6,2.5 1037.1,2.5 1037.1,0 1034.7,0 1034.7,2.5 1032.2,2.5 1032.2,5 1032.2,7.4 
		1032.2,9.9 1032.2,12.4 1032.2,14.8 1032.2,17.3 1032.2,19.8 1032.2,22.3 1032.2,24.7 1032.2,27.2 1032.2,29.7 1032.2,32.2 
		1032.2,34.6 1032.2,37.1 1032.2,39.6 1032.2,42.1 1032.2,44.5 1034.7,44.5 1034.7,47 1037.1,47 1039.6,47 1042.1,47 1042.1,44.5 
		1042.1,42.1 1042.1,39.6 1042.1,37.1 1042.1,34.6 1042.1,32.2 1042.1,29.7 1042.1,27.2 1042.1,24.7 1042.1,22.3 1042.1,19.8 
		1042.1,17.3 1042.1,14.8 1042.1,12.4 1042.1,9.9 1042.1,7.4 1042.1,5 	"/>
	<path class="st0" d="M1024.8,14.8v-2.5h-2.5V9.9V7.4h-2.5h-2.5h-2.5h-2.5h-2.5v2.5h-2.5v2.5h-2.5v2.5v2.5v2.5v2.5h2.5v2.5v2.5v2.5
		v2.5v2.5v2.5v2.5v2.5v2.5V47v2.5v2.5v2.5v2.5v2.5v2.5h2.5v2.5h2.5h2.5v-2.5v-2.5v-2.5v-2.5v-2.5h2.5v2.5v2.5h2.5v2.5v2.5h2.5h2.5
		h2.5v-2.5v-2.5v-2.5v-2.5h-2.5v-2.5h-2.5V47v-2.5h-2.5v-2.5v-2.5h2.5v-2.5v-2.5h2.5v-2.5h2.5v-2.5v-2.5v-2.5v-2.5v-2.5v-2.5h-2.5
		V14.8z M1019.8,22.3v2.5v2.5h-2.5v2.5h-2.5v-2.5v-2.5v-2.5h2.5v-2.5h2.5V22.3z"/>
	<polygon class="st0" points="1000,9.9 997.6,9.9 995.1,9.9 992.6,9.9 992.6,12.4 990.1,12.4 987.7,12.4 987.7,14.8 985.2,14.8 
		985.2,17.3 985.2,19.8 987.7,19.8 987.7,22.3 987.7,24.7 987.7,27.2 987.7,29.7 987.7,32.2 987.7,34.6 987.7,37.1 987.7,39.6 
		987.7,42.1 987.7,44.5 985.2,44.5 985.2,47 985.2,49.5 985.2,51.9 985.2,54.4 985.2,56.9 985.2,59.4 985.2,61.8 987.7,61.8 
		987.7,64.3 990.1,64.3 990.1,66.8 992.6,66.8 995.1,66.8 995.1,64.3 997.6,64.3 997.6,61.8 1000,61.8 1002.5,61.8 1002.5,59.4 
		1002.5,56.9 1002.5,54.4 1000,54.4 1000,51.9 1000,49.5 997.6,49.5 995.1,49.5 995.1,47 995.1,44.5 997.6,44.5 1000,44.5 
		1000,42.1 1002.5,42.1 1002.5,39.6 1002.5,37.1 1002.5,34.6 1002.5,32.2 1000,32.2 997.6,32.2 995.1,32.2 995.1,29.7 995.1,27.2 
		995.1,24.7 997.6,24.7 997.6,22.3 1000,22.3 1002.5,22.3 1002.5,19.8 1002.5,17.3 1002.5,14.8 1002.5,12.4 1000,12.4 	"/>
	<polygon class="st0" points="980.2,12.4 977.8,12.4 975.3,12.4 975.3,14.8 972.8,14.8 970.3,14.8 967.9,14.8 967.9,17.3 
		965.4,17.3 965.4,19.8 962.9,19.8 962.9,22.3 962.9,24.7 965.4,24.7 965.4,27.2 965.4,29.7 965.4,32.2 965.4,34.6 965.4,37.1 
		965.4,39.6 965.4,42.1 965.4,44.5 965.4,47 965.4,49.5 965.4,51.9 965.4,54.4 965.4,56.9 965.4,59.4 965.4,61.8 967.9,61.8 
		967.9,64.3 967.9,66.8 970.3,66.8 970.3,69.3 972.8,69.3 975.3,69.3 975.3,66.8 977.8,66.8 977.8,64.3 980.2,64.3 982.7,64.3 
		982.7,61.8 982.7,59.4 982.7,56.9 982.7,54.4 980.2,54.4 980.2,51.9 977.8,51.9 977.8,54.4 975.3,54.4 972.8,54.4 972.8,51.9 
		975.3,51.9 975.3,49.5 975.3,47 977.8,47 980.2,47 980.2,44.5 982.7,44.5 982.7,42.1 982.7,39.6 982.7,37.1 980.2,37.1 980.2,34.6 
		977.8,34.6 975.3,34.6 975.3,32.2 975.3,29.7 975.3,27.2 977.8,27.2 977.8,24.7 980.2,24.7 982.7,24.7 982.7,22.3 982.7,19.8 
		982.7,17.3 982.7,14.8 980.2,14.8 	"/>
	<path class="st0" d="M960.5,24.7v-2.5H958v-2.5v-2.5h-2.5v-2.5H953h-2.5h-2.5h-2.5v2.5h-2.5v2.5h-2.5v2.5h-2.5v2.5v2.5h-2.5v2.5
		v2.5h2.5h2.5v2.5v2.5v2.5v2.5v2.5V47v2.5v2.5v2.5v2.5v2.5v2.5v2.5v2.5h2.5v2.5h2.5v2.5v2.5h2.5h2.5v-2.5h2.5v-2.5h2.5v-2.5h2.5
		v-2.5h2.5v-2.5v-2.5v-2.5v-2.5v-2.5v-2.5V47H958v-2.5v-2.5h2.5v-2.5v-2.5h2.5v-2.5v-2.5v-2.5v-2.5h-2.5V24.7z M953,54.4v2.5h-2.5
		v2.5h-2.5v-2.5v-2.5v-2.5h2.5h2.5V54.4z M955.5,32.2H953v2.5v2.5h-2.5v-2.5v-2.5v-2.5v-2.5h2.5v2.5h2.5V32.2z"/>
</g>
</svg>
